solid OpenSCAD_Model
  facet normal 1 -0 0
    outer loop
      vertex -36 66 57.6
      vertex -36 67 14
      vertex -36 67 57.6
    endloop
  endfacet
  facet normal 1 0 0
    outer loop
      vertex -36 67 14
      vertex -36 66 57.6
      vertex -36 66 14
    endloop
  endfacet
  facet normal 1 -0 0
    outer loop
      vertex -36 53 57.6
      vertex -36 54 14
      vertex -36 54 57.6
    endloop
  endfacet
  facet normal 1 0 0
    outer loop
      vertex -36 54 14
      vertex -36 53 57.6
      vertex -36 53 14
    endloop
  endfacet
  facet normal -0 0 1
    outer loop
      vertex -46 67 57.6
      vertex -36 66 57.6
      vertex -36 67 57.6
    endloop
  endfacet
  facet normal 0 0 1
    outer loop
      vertex -36 66 57.6
      vertex -46 67 57.6
      vertex -42 60 57.6
    endloop
  endfacet
  facet normal 0 0 1
    outer loop
      vertex -46 53 57.6
      vertex -36 54 57.6
      vertex -42 60 57.6
    endloop
  endfacet
  facet normal 0 0 1
    outer loop
      vertex -36 54 57.6
      vertex -46 53 57.6
      vertex -36 53 57.6
    endloop
  endfacet
  facet normal 0 0 1
    outer loop
      vertex -46 53 57.6
      vertex -42 60 57.6
      vertex -46 67 57.6
    endloop
  endfacet
  facet normal 0 0 -1
    outer loop
      vertex -36.5 67 14
      vertex -36 66 14
      vertex -36.5 65.5 14
    endloop
  endfacet
  facet normal 0 0 -1
    outer loop
      vertex -36 66 14
      vertex -36.5 67 14
      vertex -36 67 14
    endloop
  endfacet
  facet normal 0 0 -1
    outer loop
      vertex -36.5 53 14
      vertex -36 54 14
      vertex -36 53 14
    endloop
  endfacet
  facet normal -0 0 -1
    outer loop
      vertex -36 54 14
      vertex -36.5 53 14
      vertex -36.5 54.5 14
    endloop
  endfacet
  facet normal 0 0 -1
    outer loop
      vertex -46 53 14
      vertex -45.5 67 14
      vertex -45.5 53 14
    endloop
  endfacet
  facet normal -0 0 -1
    outer loop
      vertex -45.5 67 14
      vertex -46 53 14
      vertex -46 67 14
    endloop
  endfacet
  facet normal -1 0 0
    outer loop
      vertex -46 53 14
      vertex -46 67 57.6
      vertex -46 67 14
    endloop
  endfacet
  facet normal -1 -0 0
    outer loop
      vertex -46 67 57.6
      vertex -46 53 14
      vertex -46 53 57.6
    endloop
  endfacet
  facet normal 0 1 0
    outer loop
      vertex -36 67 57.6
      vertex -36.5 67 16
      vertex -46 67 57.6
    endloop
  endfacet
  facet normal 0 1 -0
    outer loop
      vertex -36 67 14
      vertex -36.5 67 16
      vertex -36 67 57.6
    endloop
  endfacet
  facet normal 0 1 0
    outer loop
      vertex -36.5 67 16
      vertex -36 67 14
      vertex -36.5 67 14
    endloop
  endfacet
  facet normal 0 1 -0
    outer loop
      vertex -45.5 67 16
      vertex -46 67 57.6
      vertex -36.5 67 16
    endloop
  endfacet
  facet normal 0 1 0
    outer loop
      vertex -46 67 14
      vertex -45.5 67 16
      vertex -45.5 67 14
    endloop
  endfacet
  facet normal 0 1 0
    outer loop
      vertex -45.5 67 16
      vertex -46 67 14
      vertex -46 67 57.6
    endloop
  endfacet
  facet normal 0 -1 0
    outer loop
      vertex -46 53 57.6
      vertex -41 53 48.85
      vertex -36 53 57.6
    endloop
  endfacet
  facet normal 0 -1 0
    outer loop
      vertex -46 53 57.6
      vertex -41.2352 53 48.8377
      vertex -41 53 48.85
    endloop
  endfacet
  facet normal 0 -1 0
    outer loop
      vertex -46 53 57.6
      vertex -41.4678 53 48.8008
      vertex -41.2352 53 48.8377
    endloop
  endfacet
  facet normal 0 -1 0
    outer loop
      vertex -46 53 57.6
      vertex -41.6953 53 48.7399
      vertex -41.4678 53 48.8008
    endloop
  endfacet
  facet normal 0 -1 0
    outer loop
      vertex -46 53 57.6
      vertex -41.9152 53 48.6555
      vertex -41.6953 53 48.7399
    endloop
  endfacet
  facet normal 0 -1 0
    outer loop
      vertex -46 53 57.6
      vertex -42.125 53 48.5486
      vertex -41.9152 53 48.6555
    endloop
  endfacet
  facet normal 0 -1 0
    outer loop
      vertex -46 53 57.6
      vertex -42.3225 53 48.4203
      vertex -42.125 53 48.5486
    endloop
  endfacet
  facet normal 0 -1 0
    outer loop
      vertex -46 53 57.6
      vertex -42.5055 53 48.2721
      vertex -42.3225 53 48.4203
    endloop
  endfacet
  facet normal 0 -1 0
    outer loop
      vertex -46 53 57.6
      vertex -42.6721 53 48.1055
      vertex -42.5055 53 48.2721
    endloop
  endfacet
  facet normal 0 -1 0
    outer loop
      vertex -46 53 57.6
      vertex -42.8203 53 47.9225
      vertex -42.6721 53 48.1055
    endloop
  endfacet
  facet normal 0 -1 0
    outer loop
      vertex -46 53 57.6
      vertex -42.9486 53 47.725
      vertex -42.8203 53 47.9225
    endloop
  endfacet
  facet normal 0 -1 0
    outer loop
      vertex -46 53 57.6
      vertex -43.0555 53 47.5152
      vertex -42.9486 53 47.725
    endloop
  endfacet
  facet normal 0 -1 0
    outer loop
      vertex -46 53 57.6
      vertex -43.1399 53 47.2953
      vertex -43.0555 53 47.5152
    endloop
  endfacet
  facet normal 0 -1 0
    outer loop
      vertex -46 53 57.6
      vertex -43.2008 53 47.0678
      vertex -43.1399 53 47.2953
    endloop
  endfacet
  facet normal 0 -1 0
    outer loop
      vertex -46 53 57.6
      vertex -43.2377 53 46.8352
      vertex -43.2008 53 47.0678
    endloop
  endfacet
  facet normal 0 -1 0
    outer loop
      vertex -46 53 57.6
      vertex -43.25 53 46.6
      vertex -43.2377 53 46.8352
    endloop
  endfacet
  facet normal 0 -1 0
    outer loop
      vertex -46 53 57.6
      vertex -43.2377 53 46.3648
      vertex -43.25 53 46.6
    endloop
  endfacet
  facet normal 0 -1 0
    outer loop
      vertex -46 53 57.6
      vertex -43.2008 53 46.1322
      vertex -43.2377 53 46.3648
    endloop
  endfacet
  facet normal 0 -1 -0
    outer loop
      vertex -41.2352 53 44.3623
      vertex -45.5 53 16
      vertex -41 53 44.35
    endloop
  endfacet
  facet normal 0 -1 -0
    outer loop
      vertex -41.4678 53 44.3992
      vertex -45.5 53 16
      vertex -41.2352 53 44.3623
    endloop
  endfacet
  facet normal 0 -1 -0
    outer loop
      vertex -41.6953 53 44.4601
      vertex -45.5 53 16
      vertex -41.4678 53 44.3992
    endloop
  endfacet
  facet normal 0 -1 -0
    outer loop
      vertex -41.9152 53 44.5445
      vertex -45.5 53 16
      vertex -41.6953 53 44.4601
    endloop
  endfacet
  facet normal 0 -1 -0
    outer loop
      vertex -42.125 53 44.6514
      vertex -45.5 53 16
      vertex -41.9152 53 44.5445
    endloop
  endfacet
  facet normal 0 -1 -0
    outer loop
      vertex -42.3225 53 44.7797
      vertex -45.5 53 16
      vertex -42.125 53 44.6514
    endloop
  endfacet
  facet normal 0 -1 -0
    outer loop
      vertex -42.5055 53 44.9279
      vertex -45.5 53 16
      vertex -42.3225 53 44.7797
    endloop
  endfacet
  facet normal 0 -1 -0
    outer loop
      vertex -42.6721 53 45.0945
      vertex -45.5 53 16
      vertex -42.5055 53 44.9279
    endloop
  endfacet
  facet normal 0 -1 -0
    outer loop
      vertex -42.8203 53 45.2775
      vertex -45.5 53 16
      vertex -42.6721 53 45.0945
    endloop
  endfacet
  facet normal 0 -1 -0
    outer loop
      vertex -42.9486 53 45.475
      vertex -45.5 53 16
      vertex -42.8203 53 45.2775
    endloop
  endfacet
  facet normal 0 -1 -0
    outer loop
      vertex -43.0555 53 45.6848
      vertex -45.5 53 16
      vertex -42.9486 53 45.475
    endloop
  endfacet
  facet normal 0 -1 -0
    outer loop
      vertex -43.1399 53 45.9047
      vertex -45.5 53 16
      vertex -43.0555 53 45.6848
    endloop
  endfacet
  facet normal 0 -1 -0
    outer loop
      vertex -43.2008 53 46.1322
      vertex -45.5 53 16
      vertex -43.1399 53 45.9047
    endloop
  endfacet
  facet normal 0 -1 0
    outer loop
      vertex -46 53 57.6
      vertex -45.5 53 16
      vertex -43.2008 53 46.1322
    endloop
  endfacet
  facet normal 0 -1 0
    outer loop
      vertex -46 53 14
      vertex -45.5 53 16
      vertex -46 53 57.6
    endloop
  endfacet
  facet normal 0 -1 -0
    outer loop
      vertex -45.5 53 16
      vertex -46 53 14
      vertex -45.5 53 14
    endloop
  endfacet
  facet normal 0 -1 0
    outer loop
      vertex -40.7648 53 48.8377
      vertex -36 53 57.6
      vertex -41 53 48.85
    endloop
  endfacet
  facet normal 0 -1 0
    outer loop
      vertex -40.5322 53 48.8008
      vertex -36 53 57.6
      vertex -40.7648 53 48.8377
    endloop
  endfacet
  facet normal 0 -1 0
    outer loop
      vertex -40.3047 53 48.7399
      vertex -36 53 57.6
      vertex -40.5322 53 48.8008
    endloop
  endfacet
  facet normal 0 -1 0
    outer loop
      vertex -40.0848 53 48.6555
      vertex -36 53 57.6
      vertex -40.3047 53 48.7399
    endloop
  endfacet
  facet normal 0 -1 0
    outer loop
      vertex -39.875 53 48.5486
      vertex -36 53 57.6
      vertex -40.0848 53 48.6555
    endloop
  endfacet
  facet normal 0 -1 0
    outer loop
      vertex -39.6775 53 48.4203
      vertex -36 53 57.6
      vertex -39.875 53 48.5486
    endloop
  endfacet
  facet normal 0 -1 0
    outer loop
      vertex -39.4945 53 48.2721
      vertex -36 53 57.6
      vertex -39.6775 53 48.4203
    endloop
  endfacet
  facet normal 0 -1 0
    outer loop
      vertex -39.3279 53 48.1055
      vertex -36 53 57.6
      vertex -39.4945 53 48.2721
    endloop
  endfacet
  facet normal 0 -1 0
    outer loop
      vertex -39.1797 53 47.9225
      vertex -36 53 57.6
      vertex -39.3279 53 48.1055
    endloop
  endfacet
  facet normal 0 -1 0
    outer loop
      vertex -39.0514 53 47.725
      vertex -36 53 57.6
      vertex -39.1797 53 47.9225
    endloop
  endfacet
  facet normal 0 -1 0
    outer loop
      vertex -38.9445 53 47.5152
      vertex -36 53 57.6
      vertex -39.0514 53 47.725
    endloop
  endfacet
  facet normal 0 -1 0
    outer loop
      vertex -38.8601 53 47.2953
      vertex -36 53 57.6
      vertex -38.9445 53 47.5152
    endloop
  endfacet
  facet normal 0 -1 0
    outer loop
      vertex -38.7992 53 47.0678
      vertex -36 53 57.6
      vertex -38.8601 53 47.2953
    endloop
  endfacet
  facet normal 0 -1 0
    outer loop
      vertex -38.7623 53 46.8352
      vertex -36 53 57.6
      vertex -38.7992 53 47.0678
    endloop
  endfacet
  facet normal 0 -1 0
    outer loop
      vertex -38.75 53 46.6
      vertex -36 53 57.6
      vertex -38.7623 53 46.8352
    endloop
  endfacet
  facet normal 0 -1 0
    outer loop
      vertex -38.7623 53 46.3648
      vertex -36 53 57.6
      vertex -38.75 53 46.6
    endloop
  endfacet
  facet normal 0 -1 0
    outer loop
      vertex -38.7992 53 46.1322
      vertex -36 53 57.6
      vertex -38.7623 53 46.3648
    endloop
  endfacet
  facet normal 0 -1 0
    outer loop
      vertex -36.5 53 16
      vertex -41 53 44.35
      vertex -45.5 53 16
    endloop
  endfacet
  facet normal 0 -1 0
    outer loop
      vertex -41 53 44.35
      vertex -36.5 53 16
      vertex -40.7648 53 44.3623
    endloop
  endfacet
  facet normal 0 -1 0
    outer loop
      vertex -40.7648 53 44.3623
      vertex -36.5 53 16
      vertex -40.5322 53 44.3992
    endloop
  endfacet
  facet normal 0 -1 0
    outer loop
      vertex -40.5322 53 44.3992
      vertex -36.5 53 16
      vertex -40.3047 53 44.4601
    endloop
  endfacet
  facet normal 0 -1 0
    outer loop
      vertex -40.3047 53 44.4601
      vertex -36.5 53 16
      vertex -40.0848 53 44.5445
    endloop
  endfacet
  facet normal 0 -1 0
    outer loop
      vertex -40.0848 53 44.5445
      vertex -36.5 53 16
      vertex -39.875 53 44.6514
    endloop
  endfacet
  facet normal 0 -1 0
    outer loop
      vertex -39.875 53 44.6514
      vertex -36.5 53 16
      vertex -39.6775 53 44.7797
    endloop
  endfacet
  facet normal 0 -1 0
    outer loop
      vertex -39.6775 53 44.7797
      vertex -36.5 53 16
      vertex -39.4945 53 44.9279
    endloop
  endfacet
  facet normal 0 -1 0
    outer loop
      vertex -39.4945 53 44.9279
      vertex -36.5 53 16
      vertex -39.3279 53 45.0945
    endloop
  endfacet
  facet normal 0 -1 0
    outer loop
      vertex -39.3279 53 45.0945
      vertex -36.5 53 16
      vertex -39.1797 53 45.2775
    endloop
  endfacet
  facet normal 0 -1 0
    outer loop
      vertex -39.1797 53 45.2775
      vertex -36.5 53 16
      vertex -39.0514 53 45.475
    endloop
  endfacet
  facet normal 0 -1 0
    outer loop
      vertex -39.0514 53 45.475
      vertex -36.5 53 16
      vertex -38.9445 53 45.6848
    endloop
  endfacet
  facet normal 0 -1 0
    outer loop
      vertex -38.9445 53 45.6848
      vertex -36.5 53 16
      vertex -38.8601 53 45.9047
    endloop
  endfacet
  facet normal 0 -1 0
    outer loop
      vertex -38.8601 53 45.9047
      vertex -36.5 53 16
      vertex -38.7992 53 46.1322
    endloop
  endfacet
  facet normal 0 -1 0
    outer loop
      vertex -38.7992 53 46.1322
      vertex -36.5 53 16
      vertex -36 53 57.6
    endloop
  endfacet
  facet normal 0 -1 0
    outer loop
      vertex -36 53 14
      vertex -36.5 53 16
      vertex -36.5 53 14
    endloop
  endfacet
  facet normal 0 -1 0
    outer loop
      vertex -36.5 53 16
      vertex -36 53 14
      vertex -36 53 57.6
    endloop
  endfacet
  facet normal 1 0 0
    outer loop
      vertex -36.5 53 16
      vertex -36.5 51.5 16
      vertex -36.5 53 14
    endloop
  endfacet
  facet normal 1 0 0
    outer loop
      vertex -36.5 54.5 14
      vertex -36.5 53 14
      vertex -36.5 54.5 13
    endloop
  endfacet
  facet normal 1 0 0
    outer loop
      vertex -36.5 67 14
      vertex -36.5 68.5 16
      vertex -36.5 67 16
    endloop
  endfacet
  facet normal 1 0 0
    outer loop
      vertex -36.5 68.5 16
      vertex -36.5 67 14
      vertex -36.5 68.5 8
    endloop
  endfacet
  facet normal 1 0 0
    outer loop
      vertex -36.5 65.5 13
      vertex -36.5 67 14
      vertex -36.5 65.5 14
    endloop
  endfacet
  facet normal 1 0 0
    outer loop
      vertex -36.5 67 14
      vertex -36.5 65.5 13
      vertex -36.5 68.5 8
    endloop
  endfacet
  facet normal 1 -0 0
    outer loop
      vertex -36.5 54.5 13
      vertex -36.5 68.5 8
      vertex -36.5 65.5 13
    endloop
  endfacet
  facet normal 1 0 0
    outer loop
      vertex -36.5 54.5 13
      vertex -36.5 51.5 8
      vertex -36.5 68.5 8
    endloop
  endfacet
  facet normal 1 0 0
    outer loop
      vertex -36.5 53 14
      vertex -36.5 51.5 8
      vertex -36.5 54.5 13
    endloop
  endfacet
  facet normal 1 0 0
    outer loop
      vertex -36.5 51.5 8
      vertex -36.5 53 14
      vertex -36.5 51.5 16
    endloop
  endfacet
  facet normal -0 0 1
    outer loop
      vertex -45.5 68.5 16
      vertex -36.5 67 16
      vertex -36.5 68.5 16
    endloop
  endfacet
  facet normal 0 0 1
    outer loop
      vertex -36.5 67 16
      vertex -45.5 68.5 16
      vertex -45.5 67 16
    endloop
  endfacet
  facet normal -0 0 1
    outer loop
      vertex -45.5 53 16
      vertex -36.5 51.5 16
      vertex -36.5 53 16
    endloop
  endfacet
  facet normal 0 0 1
    outer loop
      vertex -36.5 51.5 16
      vertex -45.5 53 16
      vertex -45.5 51.5 16
    endloop
  endfacet
  facet normal 0 0 -1
    outer loop
      vertex -45.5 51.5 8
      vertex -36.5 68.5 8
      vertex -36.5 51.5 8
    endloop
  endfacet
  facet normal -0 0 -1
    outer loop
      vertex -36.5 68.5 8
      vertex -45.5 51.5 8
      vertex -45.5 68.5 8
    endloop
  endfacet
  facet normal -1 0 0
    outer loop
      vertex -45.5 68.5 8
      vertex -45.5 67 14
      vertex -45.5 68.5 16
    endloop
  endfacet
  facet normal -1 0 0
    outer loop
      vertex -45.5 68.5 8
      vertex -45.5 53 14
      vertex -45.5 67 14
    endloop
  endfacet
  facet normal -1 0 0
    outer loop
      vertex -45.5 51.5 8
      vertex -45.5 53 14
      vertex -45.5 68.5 8
    endloop
  endfacet
  facet normal -1 0 0
    outer loop
      vertex -45.5 51.5 16
      vertex -45.5 53 14
      vertex -45.5 51.5 8
    endloop
  endfacet
  facet normal -1 0 0
    outer loop
      vertex -45.5 53 14
      vertex -45.5 51.5 16
      vertex -45.5 53 16
    endloop
  endfacet
  facet normal -1 -0 0
    outer loop
      vertex -45.5 68.5 16
      vertex -45.5 67 14
      vertex -45.5 67 16
    endloop
  endfacet
  facet normal 0 1 -0
    outer loop
      vertex -36.5 68.5 8
      vertex -45.5 68.5 16
      vertex -36.5 68.5 16
    endloop
  endfacet
  facet normal 0 1 0
    outer loop
      vertex -45.5 68.5 16
      vertex -36.5 68.5 8
      vertex -45.5 68.5 8
    endloop
  endfacet
  facet normal 0 -1 0
    outer loop
      vertex -45.5 51.5 8
      vertex -36.5 51.5 16
      vertex -45.5 51.5 16
    endloop
  endfacet
  facet normal 0 -1 -0
    outer loop
      vertex -36.5 51.5 16
      vertex -45.5 51.5 8
      vertex -36.5 51.5 8
    endloop
  endfacet
  facet normal 0 -0 1
    outer loop
      vertex -36.5 54.5 13
      vertex -36.5 65.5 13
      vertex -42 60 13
    endloop
  endfacet
  facet normal 0.707107 0.707107 0
    outer loop
      vertex -42 60 57.6
      vertex -36.5 54.5 14
      vertex -42 60 13
    endloop
  endfacet
  facet normal 0.707107 0.707107 0
    outer loop
      vertex -36 54 57.6
      vertex -36.5 54.5 14
      vertex -42 60 57.6
    endloop
  endfacet
  facet normal 0.707107 0.707107 0
    outer loop
      vertex -36.5 54.5 14
      vertex -36 54 57.6
      vertex -36 54 14
    endloop
  endfacet
  facet normal 0.707107 0.707107 0
    outer loop
      vertex -42 60 13
      vertex -36.5 54.5 14
      vertex -36.5 54.5 13
    endloop
  endfacet
  facet normal 0.707107 -0.707107 0
    outer loop
      vertex -36 66 57.6
      vertex -36.5 65.5 14
      vertex -36 66 14
    endloop
  endfacet
  facet normal 0.707107 -0.707107 0
    outer loop
      vertex -42 60 57.6
      vertex -36.5 65.5 14
      vertex -36 66 57.6
    endloop
  endfacet
  facet normal 0.707107 -0.707107 0
    outer loop
      vertex -42 60 13
      vertex -36.5 65.5 14
      vertex -42 60 57.6
    endloop
  endfacet
  facet normal 0.707107 -0.707107 0
    outer loop
      vertex -36.5 65.5 14
      vertex -42 60 13
      vertex -36.5 65.5 13
    endloop
  endfacet
  facet normal 0.987649 -0 0.156682
    outer loop
      vertex -38.7992 50 47.0678
      vertex -38.7623 53 46.8352
      vertex -38.7992 53 47.0678
    endloop
  endfacet
  facet normal 0.987649 0 0.156682
    outer loop
      vertex -38.7623 53 46.8352
      vertex -38.7992 50 47.0678
      vertex -38.7623 50 46.8352
    endloop
  endfacet
  facet normal 0.998635 -0 0.0522246
    outer loop
      vertex -38.7623 50 46.8352
      vertex -38.75 53 46.6
      vertex -38.7623 53 46.8352
    endloop
  endfacet
  facet normal 0.998635 0 0.0522246
    outer loop
      vertex -38.75 53 46.6
      vertex -38.7623 50 46.8352
      vertex -38.75 50 46.6
    endloop
  endfacet
  facet normal 0.358325 0 -0.933597
    outer loop
      vertex -40.3047 50 44.4601
      vertex -40.0848 53 44.5445
      vertex -40.0848 50 44.5445
    endloop
  endfacet
  facet normal 0.358325 0 -0.933597
    outer loop
      vertex -40.0848 53 44.5445
      vertex -40.3047 50 44.4601
      vertex -40.3047 53 44.4601
    endloop
  endfacet
  facet normal 0.629345 0 -0.777126
    outer loop
      vertex -39.6775 50 44.7797
      vertex -39.4945 53 44.9279
      vertex -39.4945 50 44.9279
    endloop
  endfacet
  facet normal 0.629345 0 -0.777126
    outer loop
      vertex -39.4945 53 44.9279
      vertex -39.6775 50 44.7797
      vertex -39.6775 53 44.7797
    endloop
  endfacet
  facet normal 0.987649 0 -0.156682
    outer loop
      vertex -38.7623 50 46.3648
      vertex -38.7992 53 46.1322
      vertex -38.7623 53 46.3648
    endloop
  endfacet
  facet normal 0.987649 0 -0.156682
    outer loop
      vertex -38.7992 53 46.1322
      vertex -38.7623 50 46.3648
      vertex -38.7992 50 46.1322
    endloop
  endfacet
  facet normal -0.358325 0 0.933597
    outer loop
      vertex -41.9152 53 48.6555
      vertex -41.6953 50 48.7399
      vertex -41.6953 53 48.7399
    endloop
  endfacet
  facet normal -0.358325 0 0.933597
    outer loop
      vertex -41.6953 50 48.7399
      vertex -41.9152 53 48.6555
      vertex -41.9152 50 48.6555
    endloop
  endfacet
  facet normal 0.156682 0 0.987649
    outer loop
      vertex -40.7648 53 48.8377
      vertex -40.5322 50 48.8008
      vertex -40.5322 53 48.8008
    endloop
  endfacet
  facet normal 0.156682 0 0.987649
    outer loop
      vertex -40.5322 50 48.8008
      vertex -40.7648 53 48.8377
      vertex -40.7648 50 48.8377
    endloop
  endfacet
  facet normal 0.258588 0 -0.965988
    outer loop
      vertex -40.5322 50 44.3992
      vertex -40.3047 53 44.4601
      vertex -40.3047 50 44.4601
    endloop
  endfacet
  facet normal 0.258588 0 -0.965988
    outer loop
      vertex -40.3047 53 44.4601
      vertex -40.5322 50 44.3992
      vertex -40.5322 53 44.3992
    endloop
  endfacet
  facet normal 0.998635 0 -0.0522246
    outer loop
      vertex -38.75 50 46.6
      vertex -38.7623 53 46.3648
      vertex -38.75 53 46.6
    endloop
  endfacet
  facet normal 0.998635 0 -0.0522246
    outer loop
      vertex -38.7623 53 46.3648
      vertex -38.75 50 46.6
      vertex -38.7623 50 46.3648
    endloop
  endfacet
  facet normal -0.987649 0 -0.156682
    outer loop
      vertex -43.2008 50 46.1322
      vertex -43.2377 53 46.3648
      vertex -43.2008 53 46.1322
    endloop
  endfacet
  facet normal -0.987649 -0 -0.156682
    outer loop
      vertex -43.2377 53 46.3648
      vertex -43.2008 50 46.1322
      vertex -43.2377 50 46.3648
    endloop
  endfacet
  facet normal -0.156682 0 -0.987649
    outer loop
      vertex -41.4678 50 44.3992
      vertex -41.2352 53 44.3623
      vertex -41.2352 50 44.3623
    endloop
  endfacet
  facet normal -0.156682 0 -0.987649
    outer loop
      vertex -41.2352 53 44.3623
      vertex -41.4678 50 44.3992
      vertex -41.4678 53 44.3992
    endloop
  endfacet
  facet normal 0.258588 0 0.965988
    outer loop
      vertex -40.5322 53 48.8008
      vertex -40.3047 50 48.7399
      vertex -40.3047 53 48.7399
    endloop
  endfacet
  facet normal 0.258588 0 0.965988
    outer loop
      vertex -40.3047 50 48.7399
      vertex -40.5322 53 48.8008
      vertex -40.5322 50 48.8008
    endloop
  endfacet
  facet normal -0.544764 0 0.838589
    outer loop
      vertex -42.3225 53 48.4203
      vertex -42.125 50 48.5486
      vertex -42.125 53 48.5486
    endloop
  endfacet
  facet normal -0.544764 0 0.838589
    outer loop
      vertex -42.125 50 48.5486
      vertex -42.3225 53 48.4203
      vertex -42.3225 50 48.4203
    endloop
  endfacet
  facet normal -0.453996 0 0.891004
    outer loop
      vertex -42.125 53 48.5486
      vertex -41.9152 50 48.6555
      vertex -41.9152 53 48.6555
    endloop
  endfacet
  facet normal -0.453996 0 0.891004
    outer loop
      vertex -41.9152 50 48.6555
      vertex -42.125 53 48.5486
      vertex -42.125 50 48.5486
    endloop
  endfacet
  facet normal -0.933597 0 -0.358325
    outer loop
      vertex -43.0555 50 45.6848
      vertex -43.1399 53 45.9047
      vertex -43.0555 53 45.6848
    endloop
  endfacet
  facet normal -0.933597 -0 -0.358325
    outer loop
      vertex -43.1399 53 45.9047
      vertex -43.0555 50 45.6848
      vertex -43.1399 50 45.9047
    endloop
  endfacet
  facet normal 0.544764 0 -0.838589
    outer loop
      vertex -39.875 50 44.6514
      vertex -39.6775 53 44.7797
      vertex -39.6775 50 44.7797
    endloop
  endfacet
  facet normal 0.544764 0 -0.838589
    outer loop
      vertex -39.6775 53 44.7797
      vertex -39.875 50 44.6514
      vertex -39.875 53 44.6514
    endloop
  endfacet
  facet normal 0.965988 0 -0.258588
    outer loop
      vertex -38.7992 50 46.1322
      vertex -38.8601 53 45.9047
      vertex -38.7992 53 46.1322
    endloop
  endfacet
  facet normal 0.965988 0 -0.258588
    outer loop
      vertex -38.8601 53 45.9047
      vertex -38.7992 50 46.1322
      vertex -38.8601 50 45.9047
    endloop
  endfacet
  facet normal 0.629345 0 0.777126
    outer loop
      vertex -39.6775 53 48.4203
      vertex -39.4945 50 48.2721
      vertex -39.4945 53 48.2721
    endloop
  endfacet
  facet normal 0.629345 0 0.777126
    outer loop
      vertex -39.4945 50 48.2721
      vertex -39.6775 53 48.4203
      vertex -39.6775 50 48.4203
    endloop
  endfacet
  facet normal -0.258588 0 -0.965988
    outer loop
      vertex -41.6953 50 44.4601
      vertex -41.4678 53 44.3992
      vertex -41.4678 50 44.3992
    endloop
  endfacet
  facet normal -0.258588 0 -0.965988
    outer loop
      vertex -41.4678 53 44.3992
      vertex -41.6953 50 44.4601
      vertex -41.6953 53 44.4601
    endloop
  endfacet
  facet normal 0.838589 -0 0.544764
    outer loop
      vertex -39.1797 50 47.9225
      vertex -39.0514 53 47.725
      vertex -39.1797 53 47.9225
    endloop
  endfacet
  facet normal 0.838589 0 0.544764
    outer loop
      vertex -39.0514 53 47.725
      vertex -39.1797 50 47.9225
      vertex -39.0514 50 47.725
    endloop
  endfacet
  facet normal 0.453996 0 0.891004
    outer loop
      vertex -40.0848 53 48.6555
      vertex -39.875 50 48.5486
      vertex -39.875 53 48.5486
    endloop
  endfacet
  facet normal 0.453996 0 0.891004
    outer loop
      vertex -39.875 50 48.5486
      vertex -40.0848 53 48.6555
      vertex -40.0848 50 48.6555
    endloop
  endfacet
  facet normal 0.777126 -0 0.629345
    outer loop
      vertex -39.3279 50 48.1055
      vertex -39.1797 53 47.9225
      vertex -39.3279 53 48.1055
    endloop
  endfacet
  facet normal 0.777126 0 0.629345
    outer loop
      vertex -39.1797 53 47.9225
      vertex -39.3279 50 48.1055
      vertex -39.1797 50 47.9225
    endloop
  endfacet
  facet normal -0.838589 0 -0.544764
    outer loop
      vertex -42.8203 50 45.2775
      vertex -42.9486 53 45.475
      vertex -42.8203 53 45.2775
    endloop
  endfacet
  facet normal -0.838589 -0 -0.544764
    outer loop
      vertex -42.9486 53 45.475
      vertex -42.8203 50 45.2775
      vertex -42.9486 50 45.475
    endloop
  endfacet
  facet normal -0.987649 0 0.156682
    outer loop
      vertex -43.2377 50 46.8352
      vertex -43.2008 53 47.0678
      vertex -43.2377 53 46.8352
    endloop
  endfacet
  facet normal -0.987649 0 0.156682
    outer loop
      vertex -43.2008 53 47.0678
      vertex -43.2377 50 46.8352
      vertex -43.2008 50 47.0678
    endloop
  endfacet
  facet normal 0.707107 0 -0.707107
    outer loop
      vertex -39.3279 50 45.0945
      vertex -39.4945 53 44.9279
      vertex -39.3279 53 45.0945
    endloop
  endfacet
  facet normal 0.707107 0 -0.707107
    outer loop
      vertex -39.4945 53 44.9279
      vertex -39.3279 50 45.0945
      vertex -39.4945 50 44.9279
    endloop
  endfacet
  facet normal -0.838589 0 0.544764
    outer loop
      vertex -42.9486 50 47.725
      vertex -42.8203 53 47.9225
      vertex -42.9486 53 47.725
    endloop
  endfacet
  facet normal -0.838589 0 0.544764
    outer loop
      vertex -42.8203 53 47.9225
      vertex -42.9486 50 47.725
      vertex -42.8203 50 47.9225
    endloop
  endfacet
  facet normal -0.707107 0 -0.707107
    outer loop
      vertex -42.5055 50 44.9279
      vertex -42.6721 53 45.0945
      vertex -42.5055 53 44.9279
    endloop
  endfacet
  facet normal -0.707107 -0 -0.707107
    outer loop
      vertex -42.6721 53 45.0945
      vertex -42.5055 50 44.9279
      vertex -42.6721 50 45.0945
    endloop
  endfacet
  facet normal 0.544764 0 0.838589
    outer loop
      vertex -39.875 53 48.5486
      vertex -39.6775 50 48.4203
      vertex -39.6775 53 48.4203
    endloop
  endfacet
  facet normal 0.544764 0 0.838589
    outer loop
      vertex -39.6775 50 48.4203
      vertex -39.875 53 48.5486
      vertex -39.875 50 48.5486
    endloop
  endfacet
  facet normal 0.0522246 0 -0.998635
    outer loop
      vertex -41 50 44.35
      vertex -40.7648 53 44.3623
      vertex -40.7648 50 44.3623
    endloop
  endfacet
  facet normal 0.0522246 0 -0.998635
    outer loop
      vertex -40.7648 53 44.3623
      vertex -41 50 44.35
      vertex -41 53 44.35
    endloop
  endfacet
  facet normal 0.891004 -0 0.453996
    outer loop
      vertex -39.0514 50 47.725
      vertex -38.9445 53 47.5152
      vertex -39.0514 53 47.725
    endloop
  endfacet
  facet normal 0.891004 0 0.453996
    outer loop
      vertex -38.9445 53 47.5152
      vertex -39.0514 50 47.725
      vertex -38.9445 50 47.5152
    endloop
  endfacet
  facet normal -0.965988 0 -0.258588
    outer loop
      vertex -43.1399 50 45.9047
      vertex -43.2008 53 46.1322
      vertex -43.1399 53 45.9047
    endloop
  endfacet
  facet normal -0.965988 -0 -0.258588
    outer loop
      vertex -43.2008 53 46.1322
      vertex -43.1399 50 45.9047
      vertex -43.2008 50 46.1322
    endloop
  endfacet
  facet normal 0.707107 -0 0.707107
    outer loop
      vertex -39.4945 50 48.2721
      vertex -39.3279 53 48.1055
      vertex -39.4945 53 48.2721
    endloop
  endfacet
  facet normal 0.707107 0 0.707107
    outer loop
      vertex -39.3279 53 48.1055
      vertex -39.4945 50 48.2721
      vertex -39.3279 50 48.1055
    endloop
  endfacet
  facet normal -0.707107 0 0.707107
    outer loop
      vertex -42.6721 50 48.1055
      vertex -42.5055 53 48.2721
      vertex -42.6721 53 48.1055
    endloop
  endfacet
  facet normal -0.707107 0 0.707107
    outer loop
      vertex -42.5055 53 48.2721
      vertex -42.6721 50 48.1055
      vertex -42.5055 50 48.2721
    endloop
  endfacet
  facet normal -0.891004 0 -0.453996
    outer loop
      vertex -42.9486 50 45.475
      vertex -43.0555 53 45.6848
      vertex -42.9486 53 45.475
    endloop
  endfacet
  facet normal -0.891004 -0 -0.453996
    outer loop
      vertex -43.0555 53 45.6848
      vertex -42.9486 50 45.475
      vertex -43.0555 50 45.6848
    endloop
  endfacet
  facet normal 0.777126 0 -0.629345
    outer loop
      vertex -39.1797 50 45.2775
      vertex -39.3279 53 45.0945
      vertex -39.1797 53 45.2775
    endloop
  endfacet
  facet normal 0.777126 0 -0.629345
    outer loop
      vertex -39.3279 53 45.0945
      vertex -39.1797 50 45.2775
      vertex -39.3279 50 45.0945
    endloop
  endfacet
  facet normal 0.453996 0 -0.891004
    outer loop
      vertex -40.0848 50 44.5445
      vertex -39.875 53 44.6514
      vertex -39.875 50 44.6514
    endloop
  endfacet
  facet normal 0.453996 0 -0.891004
    outer loop
      vertex -39.875 53 44.6514
      vertex -40.0848 50 44.5445
      vertex -40.0848 53 44.5445
    endloop
  endfacet
  facet normal 0.358325 0 0.933597
    outer loop
      vertex -40.3047 53 48.7399
      vertex -40.0848 50 48.6555
      vertex -40.0848 53 48.6555
    endloop
  endfacet
  facet normal 0.358325 0 0.933597
    outer loop
      vertex -40.0848 50 48.6555
      vertex -40.3047 53 48.7399
      vertex -40.3047 50 48.7399
    endloop
  endfacet
  facet normal 0.891004 0 -0.453996
    outer loop
      vertex -38.9445 50 45.6848
      vertex -39.0514 53 45.475
      vertex -38.9445 53 45.6848
    endloop
  endfacet
  facet normal 0.891004 0 -0.453996
    outer loop
      vertex -39.0514 53 45.475
      vertex -38.9445 50 45.6848
      vertex -39.0514 50 45.475
    endloop
  endfacet
  facet normal 0.838589 0 -0.544764
    outer loop
      vertex -39.0514 50 45.475
      vertex -39.1797 53 45.2775
      vertex -39.0514 53 45.475
    endloop
  endfacet
  facet normal 0.838589 0 -0.544764
    outer loop
      vertex -39.1797 53 45.2775
      vertex -39.0514 50 45.475
      vertex -39.1797 50 45.2775
    endloop
  endfacet
  facet normal 0.156682 0 -0.987649
    outer loop
      vertex -40.7648 50 44.3623
      vertex -40.5322 53 44.3992
      vertex -40.5322 50 44.3992
    endloop
  endfacet
  facet normal 0.156682 0 -0.987649
    outer loop
      vertex -40.5322 53 44.3992
      vertex -40.7648 50 44.3623
      vertex -40.7648 53 44.3623
    endloop
  endfacet
  facet normal 0.933597 -0 0.358325
    outer loop
      vertex -38.9445 50 47.5152
      vertex -38.8601 53 47.2953
      vertex -38.9445 53 47.5152
    endloop
  endfacet
  facet normal 0.933597 0 0.358325
    outer loop
      vertex -38.8601 53 47.2953
      vertex -38.9445 50 47.5152
      vertex -38.8601 50 47.2953
    endloop
  endfacet
  facet normal -0.258588 0 0.965988
    outer loop
      vertex -41.6953 53 48.7399
      vertex -41.4678 50 48.8008
      vertex -41.4678 53 48.8008
    endloop
  endfacet
  facet normal -0.258588 0 0.965988
    outer loop
      vertex -41.4678 50 48.8008
      vertex -41.6953 53 48.7399
      vertex -41.6953 50 48.7399
    endloop
  endfacet
  facet normal -0.0522246 0 -0.998635
    outer loop
      vertex -41.2352 50 44.3623
      vertex -41 53 44.35
      vertex -41 50 44.35
    endloop
  endfacet
  facet normal -0.0522246 0 -0.998635
    outer loop
      vertex -41 53 44.35
      vertex -41.2352 50 44.3623
      vertex -41.2352 53 44.3623
    endloop
  endfacet
  facet normal -0.777126 0 0.629345
    outer loop
      vertex -42.8203 50 47.9225
      vertex -42.6721 53 48.1055
      vertex -42.8203 53 47.9225
    endloop
  endfacet
  facet normal -0.777126 0 0.629345
    outer loop
      vertex -42.6721 53 48.1055
      vertex -42.8203 50 47.9225
      vertex -42.6721 50 48.1055
    endloop
  endfacet
  facet normal -0.453996 0 -0.891004
    outer loop
      vertex -42.125 50 44.6514
      vertex -41.9152 53 44.5445
      vertex -41.9152 50 44.5445
    endloop
  endfacet
  facet normal -0.453996 0 -0.891004
    outer loop
      vertex -41.9152 53 44.5445
      vertex -42.125 50 44.6514
      vertex -42.125 53 44.6514
    endloop
  endfacet
  facet normal -0.156682 0 0.987649
    outer loop
      vertex -41.4678 53 48.8008
      vertex -41.2352 50 48.8377
      vertex -41.2352 53 48.8377
    endloop
  endfacet
  facet normal -0.156682 0 0.987649
    outer loop
      vertex -41.2352 50 48.8377
      vertex -41.4678 53 48.8008
      vertex -41.4678 50 48.8008
    endloop
  endfacet
  facet normal 0.0522246 0 0.998635
    outer loop
      vertex -41 53 48.85
      vertex -40.7648 50 48.8377
      vertex -40.7648 53 48.8377
    endloop
  endfacet
  facet normal 0.0522246 0 0.998635
    outer loop
      vertex -40.7648 50 48.8377
      vertex -41 53 48.85
      vertex -41 50 48.85
    endloop
  endfacet
  facet normal 0.965988 -0 0.258588
    outer loop
      vertex -38.8601 50 47.2953
      vertex -38.7992 53 47.0678
      vertex -38.8601 53 47.2953
    endloop
  endfacet
  facet normal 0.965988 0 0.258588
    outer loop
      vertex -38.7992 53 47.0678
      vertex -38.8601 50 47.2953
      vertex -38.7992 50 47.0678
    endloop
  endfacet
  facet normal -0.629345 0 0.777126
    outer loop
      vertex -42.5055 53 48.2721
      vertex -42.3225 50 48.4203
      vertex -42.3225 53 48.4203
    endloop
  endfacet
  facet normal -0.629345 0 0.777126
    outer loop
      vertex -42.3225 50 48.4203
      vertex -42.5055 53 48.2721
      vertex -42.5055 50 48.2721
    endloop
  endfacet
  facet normal -0.933597 0 0.358325
    outer loop
      vertex -43.1399 50 47.2953
      vertex -43.0555 53 47.5152
      vertex -43.1399 53 47.2953
    endloop
  endfacet
  facet normal -0.933597 0 0.358325
    outer loop
      vertex -43.0555 53 47.5152
      vertex -43.1399 50 47.2953
      vertex -43.0555 50 47.5152
    endloop
  endfacet
  facet normal -0.0522246 0 0.998635
    outer loop
      vertex -41.2352 53 48.8377
      vertex -41 50 48.85
      vertex -41 53 48.85
    endloop
  endfacet
  facet normal -0.0522246 0 0.998635
    outer loop
      vertex -41 50 48.85
      vertex -41.2352 53 48.8377
      vertex -41.2352 50 48.8377
    endloop
  endfacet
  facet normal -0.998635 0 -0.0522246
    outer loop
      vertex -43.2377 50 46.3648
      vertex -43.25 53 46.6
      vertex -43.2377 53 46.3648
    endloop
  endfacet
  facet normal -0.998635 -0 -0.0522246
    outer loop
      vertex -43.25 53 46.6
      vertex -43.2377 50 46.3648
      vertex -43.25 50 46.6
    endloop
  endfacet
  facet normal -0.777126 0 -0.629345
    outer loop
      vertex -42.6721 50 45.0945
      vertex -42.8203 53 45.2775
      vertex -42.6721 53 45.0945
    endloop
  endfacet
  facet normal -0.777126 -0 -0.629345
    outer loop
      vertex -42.8203 53 45.2775
      vertex -42.6721 50 45.0945
      vertex -42.8203 50 45.2775
    endloop
  endfacet
  facet normal -0.965988 0 0.258588
    outer loop
      vertex -43.2008 50 47.0678
      vertex -43.1399 53 47.2953
      vertex -43.2008 53 47.0678
    endloop
  endfacet
  facet normal -0.965988 0 0.258588
    outer loop
      vertex -43.1399 53 47.2953
      vertex -43.2008 50 47.0678
      vertex -43.1399 50 47.2953
    endloop
  endfacet
  facet normal -0.629345 0 -0.777126
    outer loop
      vertex -42.5055 50 44.9279
      vertex -42.3225 53 44.7797
      vertex -42.3225 50 44.7797
    endloop
  endfacet
  facet normal -0.629345 0 -0.777126
    outer loop
      vertex -42.3225 53 44.7797
      vertex -42.5055 50 44.9279
      vertex -42.5055 53 44.9279
    endloop
  endfacet
  facet normal 0.933597 0 -0.358325
    outer loop
      vertex -38.8601 50 45.9047
      vertex -38.9445 53 45.6848
      vertex -38.8601 53 45.9047
    endloop
  endfacet
  facet normal 0.933597 0 -0.358325
    outer loop
      vertex -38.9445 53 45.6848
      vertex -38.8601 50 45.9047
      vertex -38.9445 50 45.6848
    endloop
  endfacet
  facet normal -0.544764 0 -0.838589
    outer loop
      vertex -42.3225 50 44.7797
      vertex -42.125 53 44.6514
      vertex -42.125 50 44.6514
    endloop
  endfacet
  facet normal -0.544764 0 -0.838589
    outer loop
      vertex -42.125 53 44.6514
      vertex -42.3225 50 44.7797
      vertex -42.3225 53 44.7797
    endloop
  endfacet
  facet normal -0.358325 0 -0.933597
    outer loop
      vertex -41.9152 50 44.5445
      vertex -41.6953 53 44.4601
      vertex -41.6953 50 44.4601
    endloop
  endfacet
  facet normal -0.358325 0 -0.933597
    outer loop
      vertex -41.6953 53 44.4601
      vertex -41.9152 50 44.5445
      vertex -41.9152 53 44.5445
    endloop
  endfacet
  facet normal -0.998635 0 0.0522246
    outer loop
      vertex -43.25 50 46.6
      vertex -43.2377 53 46.8352
      vertex -43.25 53 46.6
    endloop
  endfacet
  facet normal -0.998635 0 0.0522246
    outer loop
      vertex -43.2377 53 46.8352
      vertex -43.25 50 46.6
      vertex -43.2377 50 46.8352
    endloop
  endfacet
  facet normal -0.891004 0 0.453996
    outer loop
      vertex -43.0555 50 47.5152
      vertex -42.9486 53 47.725
      vertex -43.0555 53 47.5152
    endloop
  endfacet
  facet normal -0.891004 0 0.453996
    outer loop
      vertex -42.9486 53 47.725
      vertex -43.0555 50 47.5152
      vertex -42.9486 50 47.725
    endloop
  endfacet
  facet normal 0.987685 0 -0.156453
    outer loop
      vertex -37.0219 48.5 46.1819
      vertex -37.0874 50 45.7684
      vertex -37.0219 50 46.1819
    endloop
  endfacet
  facet normal 0.987685 0 -0.156453
    outer loop
      vertex -37.0874 50 45.7684
      vertex -37.0219 48.5 46.1819
      vertex -37.0874 48.5 45.7684
    endloop
  endfacet
  facet normal 0.987685 -0 0.156453
    outer loop
      vertex -37.0874 48.5 47.4316
      vertex -37.0219 50 47.0181
      vertex -37.0874 50 47.4316
    endloop
  endfacet
  facet normal 0.987685 0 0.156453
    outer loop
      vertex -37.0219 50 47.0181
      vertex -37.0874 48.5 47.4316
      vertex -37.0219 48.5 47.0181
    endloop
  endfacet
  facet normal 0.998631 -0 0.0523081
    outer loop
      vertex -37.0219 48.5 47.0181
      vertex -37 50 46.6
      vertex -37.0219 50 47.0181
    endloop
  endfacet
  facet normal 0.998631 0 0.0523081
    outer loop
      vertex -37 50 46.6
      vertex -37.0219 48.5 47.0181
      vertex -37 48.5 46.6
    endloop
  endfacet
  facet normal 0.965917 -0 0.258851
    outer loop
      vertex -37.1958 48.5 47.8361
      vertex -37.0874 50 47.4316
      vertex -37.1958 50 47.8361
    endloop
  endfacet
  facet normal 0.965917 0 0.258851
    outer loop
      vertex -37.0874 50 47.4316
      vertex -37.1958 48.5 47.8361
      vertex -37.0874 48.5 47.4316
    endloop
  endfacet
  facet normal -0.544627 0 0.838678
    outer loop
      vertex -43.3511 50 49.8361
      vertex -43 48.5 50.0641
      vertex -43 50 50.0641
    endloop
  endfacet
  facet normal -0.544627 0 0.838678
    outer loop
      vertex -43 48.5 50.0641
      vertex -43.3511 50 49.8361
      vertex -43.3511 48.5 49.8361
    endloop
  endfacet
  facet normal -0.707107 0 0.707107
    outer loop
      vertex -43.9726 50 49.2765
      vertex -43.6765 48.5 49.5726
      vertex -43.6765 50 49.5726
    endloop
  endfacet
  facet normal -0.707107 0 0.707107
    outer loop
      vertex -43.6765 48.5 49.5726
      vertex -43.9726 50 49.2765
      vertex -43.9726 48.5 49.2765
    endloop
  endfacet
  facet normal -0.965917 0 -0.258851
    outer loop
      vertex -44.8042 48.5 45.3639
      vertex -44.9126 50 45.7684
      vertex -44.8042 50 45.3639
    endloop
  endfacet
  facet normal -0.965917 -0 -0.258851
    outer loop
      vertex -44.9126 50 45.7684
      vertex -44.8042 48.5 45.3639
      vertex -44.9126 48.5 45.7684
    endloop
  endfacet
  facet normal -0.453983 0 -0.89101
    outer loop
      vertex -43 48.5 43.1359
      vertex -42.6269 50 42.9458
      vertex -42.6269 48.5 42.9458
    endloop
  endfacet
  facet normal -0.453983 0 -0.89101
    outer loop
      vertex -42.6269 50 42.9458
      vertex -43 48.5 43.1359
      vertex -43 50 43.1359
    endloop
  endfacet
  facet normal 0.933592 -0 0.358339
    outer loop
      vertex -37.3458 48.5 48.2269
      vertex -37.1958 50 47.8361
      vertex -37.3458 50 48.2269
    endloop
  endfacet
  facet normal 0.933592 0 0.358339
    outer loop
      vertex -37.1958 50 47.8361
      vertex -37.3458 48.5 48.2269
      vertex -37.1958 48.5 47.8361
    endloop
  endfacet
  facet normal 0.258851 0 -0.965917
    outer loop
      vertex -40.1684 48.5 42.6874
      vertex -39.7639 50 42.7958
      vertex -39.7639 48.5 42.7958
    endloop
  endfacet
  facet normal 0.258851 0 -0.965917
    outer loop
      vertex -39.7639 50 42.7958
      vertex -40.1684 48.5 42.6874
      vertex -40.1684 50 42.6874
    endloop
  endfacet
  facet normal -0.629315 0 -0.77715
    outer loop
      vertex -43.6765 48.5 43.6274
      vertex -43.3511 50 43.3639
      vertex -43.3511 48.5 43.3639
    endloop
  endfacet
  facet normal -0.629315 0 -0.77715
    outer loop
      vertex -43.3511 50 43.3639
      vertex -43.6765 48.5 43.6274
      vertex -43.6765 50 43.6274
    endloop
  endfacet
  facet normal -0.707107 0 -0.707107
    outer loop
      vertex -43.9726 48.5 43.9235
      vertex -43.6765 50 43.6274
      vertex -43.6765 48.5 43.6274
    endloop
  endfacet
  facet normal -0.707107 0 -0.707107
    outer loop
      vertex -43.6765 50 43.6274
      vertex -43.9726 48.5 43.9235
      vertex -43.9726 50 43.9235
    endloop
  endfacet
  facet normal 0.77715 0 -0.629315
    outer loop
      vertex -37.7639 48.5 44.2489
      vertex -38.0274 50 43.9235
      vertex -37.7639 50 44.2489
    endloop
  endfacet
  facet normal 0.77715 0 -0.629315
    outer loop
      vertex -38.0274 50 43.9235
      vertex -37.7639 48.5 44.2489
      vertex -38.0274 48.5 43.9235
    endloop
  endfacet
  facet normal 0.998631 0 -0.0523081
    outer loop
      vertex -37 48.5 46.6
      vertex -37.0219 50 46.1819
      vertex -37 50 46.6
    endloop
  endfacet
  facet normal 0.998631 0 -0.0523081
    outer loop
      vertex -37.0219 50 46.1819
      vertex -37 48.5 46.6
      vertex -37.0219 48.5 46.1819
    endloop
  endfacet
  facet normal 0.453983 0 0.89101
    outer loop
      vertex -39.3731 50 50.2542
      vertex -39 48.5 50.0641
      vertex -39 50 50.0641
    endloop
  endfacet
  facet normal 0.453983 0 0.89101
    outer loop
      vertex -39 48.5 50.0641
      vertex -39.3731 50 50.2542
      vertex -39.3731 48.5 50.2542
    endloop
  endfacet
  facet normal -0.544627 0 -0.838678
    outer loop
      vertex -43.3511 48.5 43.3639
      vertex -43 50 43.1359
      vertex -43 48.5 43.1359
    endloop
  endfacet
  facet normal -0.544627 0 -0.838678
    outer loop
      vertex -43 50 43.1359
      vertex -43.3511 48.5 43.3639
      vertex -43.3511 50 43.3639
    endloop
  endfacet
  facet normal 0.156453 0 0.987685
    outer loop
      vertex -40.5819 50 50.5781
      vertex -40.1684 48.5 50.5126
      vertex -40.1684 50 50.5126
    endloop
  endfacet
  facet normal 0.156453 0 0.987685
    outer loop
      vertex -40.1684 48.5 50.5126
      vertex -40.5819 50 50.5781
      vertex -40.5819 48.5 50.5781
    endloop
  endfacet
  facet normal 0 1 0
    outer loop
      vertex -41 50 48.85
      vertex -41 50 50.6
      vertex -40.5819 50 50.5781
    endloop
  endfacet
  facet normal 0 1 0
    outer loop
      vertex -40.7648 50 48.8377
      vertex -40.5819 50 50.5781
      vertex -40.1684 50 50.5126
    endloop
  endfacet
  facet normal 0 1 0
    outer loop
      vertex -41 50 50.6
      vertex -41 50 48.85
      vertex -41.4181 50 50.5781
    endloop
  endfacet
  facet normal 0 1 0
    outer loop
      vertex -40.5322 50 48.8008
      vertex -40.1684 50 50.5126
      vertex -39.7639 50 50.4042
    endloop
  endfacet
  facet normal 0 1 -0
    outer loop
      vertex -41.2352 50 48.8377
      vertex -41.4181 50 50.5781
      vertex -41 50 48.85
    endloop
  endfacet
  facet normal 0 1 0
    outer loop
      vertex -40.3047 50 48.7399
      vertex -39.7639 50 50.4042
      vertex -39.3731 50 50.2542
    endloop
  endfacet
  facet normal 0 1 0
    outer loop
      vertex -41.4181 50 50.5781
      vertex -41.2352 50 48.8377
      vertex -41.8316 50 50.5126
    endloop
  endfacet
  facet normal 0 1 0
    outer loop
      vertex -40.0848 50 48.6555
      vertex -39.3731 50 50.2542
      vertex -39 50 50.0641
    endloop
  endfacet
  facet normal 0 1 -0
    outer loop
      vertex -41.4678 50 48.8008
      vertex -41.8316 50 50.5126
      vertex -41.2352 50 48.8377
    endloop
  endfacet
  facet normal 0 1 0
    outer loop
      vertex -39.875 50 48.5486
      vertex -39 50 50.0641
      vertex -38.6489 50 49.8361
    endloop
  endfacet
  facet normal 0 1 0
    outer loop
      vertex -41.8316 50 50.5126
      vertex -41.4678 50 48.8008
      vertex -42.2361 50 50.4042
    endloop
  endfacet
  facet normal 0 1 0
    outer loop
      vertex -39.6775 50 48.4203
      vertex -38.6489 50 49.8361
      vertex -38.3235 50 49.5726
    endloop
  endfacet
  facet normal 0 1 -0
    outer loop
      vertex -41.6953 50 48.7399
      vertex -42.2361 50 50.4042
      vertex -41.4678 50 48.8008
    endloop
  endfacet
  facet normal 0 1 0
    outer loop
      vertex -39.4945 50 48.2721
      vertex -38.3235 50 49.5726
      vertex -38.0274 50 49.2765
    endloop
  endfacet
  facet normal 0 1 0
    outer loop
      vertex -42.2361 50 50.4042
      vertex -41.6953 50 48.7399
      vertex -42.6269 50 50.2542
    endloop
  endfacet
  facet normal 0 1 0
    outer loop
      vertex -39.3279 50 48.1055
      vertex -38.0274 50 49.2765
      vertex -37.7639 50 48.9511
    endloop
  endfacet
  facet normal 0 1 -0
    outer loop
      vertex -41.9152 50 48.6555
      vertex -42.6269 50 50.2542
      vertex -41.6953 50 48.7399
    endloop
  endfacet
  facet normal 0 1 0
    outer loop
      vertex -42.6269 50 50.2542
      vertex -41.9152 50 48.6555
      vertex -43 50 50.0641
    endloop
  endfacet
  facet normal 0 1 0
    outer loop
      vertex -40.5819 50 50.5781
      vertex -40.7648 50 48.8377
      vertex -41 50 48.85
    endloop
  endfacet
  facet normal 0 1 0
    outer loop
      vertex -40.1684 50 50.5126
      vertex -40.5322 50 48.8008
      vertex -40.7648 50 48.8377
    endloop
  endfacet
  facet normal 0 1 0
    outer loop
      vertex -39.7639 50 50.4042
      vertex -40.3047 50 48.7399
      vertex -40.5322 50 48.8008
    endloop
  endfacet
  facet normal 0 1 0
    outer loop
      vertex -39.3731 50 50.2542
      vertex -40.0848 50 48.6555
      vertex -40.3047 50 48.7399
    endloop
  endfacet
  facet normal 0 1 0
    outer loop
      vertex -39.1797 50 47.9225
      vertex -37.7639 50 48.9511
      vertex -37.5359 50 48.6
    endloop
  endfacet
  facet normal 0 1 0
    outer loop
      vertex -39 50 50.0641
      vertex -39.875 50 48.5486
      vertex -40.0848 50 48.6555
    endloop
  endfacet
  facet normal 0 1 0
    outer loop
      vertex -38.6489 50 49.8361
      vertex -39.6775 50 48.4203
      vertex -39.875 50 48.5486
    endloop
  endfacet
  facet normal 0 1 0
    outer loop
      vertex -38.3235 50 49.5726
      vertex -39.4945 50 48.2721
      vertex -39.6775 50 48.4203
    endloop
  endfacet
  facet normal 0 1 0
    outer loop
      vertex -39.0514 50 47.725
      vertex -37.5359 50 48.6
      vertex -37.3458 50 48.2269
    endloop
  endfacet
  facet normal 0 1 0
    outer loop
      vertex -38.0274 50 49.2765
      vertex -39.3279 50 48.1055
      vertex -39.4945 50 48.2721
    endloop
  endfacet
  facet normal 0 1 0
    outer loop
      vertex -37.7639 50 48.9511
      vertex -39.1797 50 47.9225
      vertex -39.3279 50 48.1055
    endloop
  endfacet
  facet normal 0 1 0
    outer loop
      vertex -38.9445 50 47.5152
      vertex -37.3458 50 48.2269
      vertex -37.1958 50 47.8361
    endloop
  endfacet
  facet normal 0 1 0
    outer loop
      vertex -37.5359 50 48.6
      vertex -39.0514 50 47.725
      vertex -39.1797 50 47.9225
    endloop
  endfacet
  facet normal 0 1 0
    outer loop
      vertex -37.3458 50 48.2269
      vertex -38.9445 50 47.5152
      vertex -39.0514 50 47.725
    endloop
  endfacet
  facet normal 0 1 0
    outer loop
      vertex -38.8601 50 47.2953
      vertex -37.1958 50 47.8361
      vertex -37.0874 50 47.4316
    endloop
  endfacet
  facet normal 0 1 0
    outer loop
      vertex -37.1958 50 47.8361
      vertex -38.8601 50 47.2953
      vertex -38.9445 50 47.5152
    endloop
  endfacet
  facet normal 0 1 0
    outer loop
      vertex -37.0874 50 47.4316
      vertex -38.7992 50 47.0678
      vertex -38.8601 50 47.2953
    endloop
  endfacet
  facet normal 0 1 0
    outer loop
      vertex -37.0219 50 47.0181
      vertex -38.7992 50 47.0678
      vertex -37.0874 50 47.4316
    endloop
  endfacet
  facet normal 0 1 0
    outer loop
      vertex -37.0219 50 47.0181
      vertex -38.7623 50 46.8352
      vertex -38.7992 50 47.0678
    endloop
  endfacet
  facet normal 0 1 0
    outer loop
      vertex -37 50 46.6
      vertex -38.7623 50 46.8352
      vertex -37.0219 50 47.0181
    endloop
  endfacet
  facet normal 0 1 0
    outer loop
      vertex -37 50 46.6
      vertex -38.75 50 46.6
      vertex -38.7623 50 46.8352
    endloop
  endfacet
  facet normal 0 1 0
    outer loop
      vertex -37 50 46.6
      vertex -38.7623 50 46.3648
      vertex -38.75 50 46.6
    endloop
  endfacet
  facet normal 0 1 -0
    outer loop
      vertex -37.0219 50 46.1819
      vertex -38.7623 50 46.3648
      vertex -37 50 46.6
    endloop
  endfacet
  facet normal 0 1 0
    outer loop
      vertex -37.0219 50 46.1819
      vertex -38.7992 50 46.1322
      vertex -38.7623 50 46.3648
    endloop
  endfacet
  facet normal 0 1 -0
    outer loop
      vertex -37.0874 50 45.7684
      vertex -38.7992 50 46.1322
      vertex -37.0219 50 46.1819
    endloop
  endfacet
  facet normal 0 1 0
    outer loop
      vertex -38.7992 50 46.1322
      vertex -37.0874 50 45.7684
      vertex -38.8601 50 45.9047
    endloop
  endfacet
  facet normal 0 1 -0
    outer loop
      vertex -37.1958 50 45.3639
      vertex -38.8601 50 45.9047
      vertex -37.0874 50 45.7684
    endloop
  endfacet
  facet normal 0 1 0
    outer loop
      vertex -38.8601 50 45.9047
      vertex -37.1958 50 45.3639
      vertex -38.9445 50 45.6848
    endloop
  endfacet
  facet normal 0 1 -0
    outer loop
      vertex -37.3458 50 44.9731
      vertex -38.9445 50 45.6848
      vertex -37.1958 50 45.3639
    endloop
  endfacet
  facet normal 0 1 0
    outer loop
      vertex -38.9445 50 45.6848
      vertex -37.3458 50 44.9731
      vertex -39.0514 50 45.475
    endloop
  endfacet
  facet normal 0 1 -0
    outer loop
      vertex -37.5359 50 44.6
      vertex -39.0514 50 45.475
      vertex -37.3458 50 44.9731
    endloop
  endfacet
  facet normal 0 1 0
    outer loop
      vertex -39.0514 50 45.475
      vertex -37.5359 50 44.6
      vertex -39.1797 50 45.2775
    endloop
  endfacet
  facet normal 0 1 -0
    outer loop
      vertex -37.7639 50 44.2489
      vertex -39.1797 50 45.2775
      vertex -37.5359 50 44.6
    endloop
  endfacet
  facet normal 0 1 0
    outer loop
      vertex -39.1797 50 45.2775
      vertex -37.7639 50 44.2489
      vertex -39.3279 50 45.0945
    endloop
  endfacet
  facet normal 0 1 -0
    outer loop
      vertex -38.0274 50 43.9235
      vertex -39.3279 50 45.0945
      vertex -37.7639 50 44.2489
    endloop
  endfacet
  facet normal 0 1 0
    outer loop
      vertex -39.3279 50 45.0945
      vertex -38.0274 50 43.9235
      vertex -39.4945 50 44.9279
    endloop
  endfacet
  facet normal 0 1 -0
    outer loop
      vertex -38.3235 50 43.6274
      vertex -39.4945 50 44.9279
      vertex -38.0274 50 43.9235
    endloop
  endfacet
  facet normal 0 1 0
    outer loop
      vertex -39.4945 50 44.9279
      vertex -38.3235 50 43.6274
      vertex -39.6775 50 44.7797
    endloop
  endfacet
  facet normal 0 1 -0
    outer loop
      vertex -38.6489 50 43.3639
      vertex -39.6775 50 44.7797
      vertex -38.3235 50 43.6274
    endloop
  endfacet
  facet normal 0 1 0
    outer loop
      vertex -39.6775 50 44.7797
      vertex -38.6489 50 43.3639
      vertex -39.875 50 44.6514
    endloop
  endfacet
  facet normal 0 1 0
    outer loop
      vertex -39.875 50 44.6514
      vertex -39 50 43.1359
      vertex -40.0848 50 44.5445
    endloop
  endfacet
  facet normal 0 1 -0
    outer loop
      vertex -39 50 43.1359
      vertex -39.875 50 44.6514
      vertex -38.6489 50 43.3639
    endloop
  endfacet
  facet normal 0 1 -0
    outer loop
      vertex -42.125 50 48.5486
      vertex -43 50 50.0641
      vertex -41.9152 50 48.6555
    endloop
  endfacet
  facet normal 0 1 0
    outer loop
      vertex -43 50 50.0641
      vertex -42.125 50 48.5486
      vertex -43.3511 50 49.8361
    endloop
  endfacet
  facet normal 0 1 -0
    outer loop
      vertex -42.3225 50 48.4203
      vertex -43.3511 50 49.8361
      vertex -42.125 50 48.5486
    endloop
  endfacet
  facet normal 0 1 0
    outer loop
      vertex -43.3511 50 49.8361
      vertex -42.3225 50 48.4203
      vertex -43.6765 50 49.5726
    endloop
  endfacet
  facet normal 0 1 -0
    outer loop
      vertex -42.5055 50 48.2721
      vertex -43.6765 50 49.5726
      vertex -42.3225 50 48.4203
    endloop
  endfacet
  facet normal 0 1 0
    outer loop
      vertex -43.6765 50 49.5726
      vertex -42.5055 50 48.2721
      vertex -43.9726 50 49.2765
    endloop
  endfacet
  facet normal 0 1 -0
    outer loop
      vertex -42.6721 50 48.1055
      vertex -43.9726 50 49.2765
      vertex -42.5055 50 48.2721
    endloop
  endfacet
  facet normal 0 1 0
    outer loop
      vertex -43.9726 50 49.2765
      vertex -42.6721 50 48.1055
      vertex -44.2361 50 48.9511
    endloop
  endfacet
  facet normal 0 1 -0
    outer loop
      vertex -42.8203 50 47.9225
      vertex -44.2361 50 48.9511
      vertex -42.6721 50 48.1055
    endloop
  endfacet
  facet normal 0 1 0
    outer loop
      vertex -44.2361 50 48.9511
      vertex -42.8203 50 47.9225
      vertex -44.4641 50 48.6
    endloop
  endfacet
  facet normal 0 1 -0
    outer loop
      vertex -42.9486 50 47.725
      vertex -44.4641 50 48.6
      vertex -42.8203 50 47.9225
    endloop
  endfacet
  facet normal 0 1 0
    outer loop
      vertex -44.4641 50 48.6
      vertex -42.9486 50 47.725
      vertex -44.6542 50 48.2269
    endloop
  endfacet
  facet normal 0 1 -0
    outer loop
      vertex -43.0555 50 47.5152
      vertex -44.6542 50 48.2269
      vertex -42.9486 50 47.725
    endloop
  endfacet
  facet normal 0 1 0
    outer loop
      vertex -44.6542 50 48.2269
      vertex -43.0555 50 47.5152
      vertex -44.8042 50 47.8361
    endloop
  endfacet
  facet normal 0 1 -0
    outer loop
      vertex -43.1399 50 47.2953
      vertex -44.8042 50 47.8361
      vertex -43.0555 50 47.5152
    endloop
  endfacet
  facet normal 0 1 0
    outer loop
      vertex -44.8042 50 47.8361
      vertex -43.1399 50 47.2953
      vertex -44.9126 50 47.4316
    endloop
  endfacet
  facet normal 0 1 -0
    outer loop
      vertex -43.2008 50 47.0678
      vertex -44.9126 50 47.4316
      vertex -43.1399 50 47.2953
    endloop
  endfacet
  facet normal 0 1 0
    outer loop
      vertex -43.2008 50 47.0678
      vertex -44.9781 50 47.0181
      vertex -44.9126 50 47.4316
    endloop
  endfacet
  facet normal 0 1 -0
    outer loop
      vertex -43.2377 50 46.8352
      vertex -44.9781 50 47.0181
      vertex -43.2008 50 47.0678
    endloop
  endfacet
  facet normal 0 1 -0
    outer loop
      vertex -43.25 50 46.6
      vertex -44.9781 50 47.0181
      vertex -43.2377 50 46.8352
    endloop
  endfacet
  facet normal 0 1 0
    outer loop
      vertex -43.25 50 46.6
      vertex -45 50 46.6
      vertex -44.9781 50 47.0181
    endloop
  endfacet
  facet normal 0 1 0
    outer loop
      vertex -43.2377 50 46.3648
      vertex -45 50 46.6
      vertex -43.25 50 46.6
    endloop
  endfacet
  facet normal 0 1 0
    outer loop
      vertex -43.2377 50 46.3648
      vertex -44.9781 50 46.1819
      vertex -45 50 46.6
    endloop
  endfacet
  facet normal 0 1 0
    outer loop
      vertex -43.2008 50 46.1322
      vertex -44.9781 50 46.1819
      vertex -43.2377 50 46.3648
    endloop
  endfacet
  facet normal 0 1 0
    outer loop
      vertex -44.9126 50 45.7684
      vertex -43.2008 50 46.1322
      vertex -43.1399 50 45.9047
    endloop
  endfacet
  facet normal 0 1 0
    outer loop
      vertex -43.2008 50 46.1322
      vertex -44.9126 50 45.7684
      vertex -44.9781 50 46.1819
    endloop
  endfacet
  facet normal 0 1 0
    outer loop
      vertex -44.8042 50 45.3639
      vertex -43.1399 50 45.9047
      vertex -43.0555 50 45.6848
    endloop
  endfacet
  facet normal 0 1 0
    outer loop
      vertex -44.6542 50 44.9731
      vertex -43.0555 50 45.6848
      vertex -42.9486 50 45.475
    endloop
  endfacet
  facet normal 0 1 0
    outer loop
      vertex -43.1399 50 45.9047
      vertex -44.8042 50 45.3639
      vertex -44.9126 50 45.7684
    endloop
  endfacet
  facet normal 0 1 0
    outer loop
      vertex -44.4641 50 44.6
      vertex -42.9486 50 45.475
      vertex -42.8203 50 45.2775
    endloop
  endfacet
  facet normal 0 1 0
    outer loop
      vertex -44.2361 50 44.2489
      vertex -42.8203 50 45.2775
      vertex -42.6721 50 45.0945
    endloop
  endfacet
  facet normal 0 1 0
    outer loop
      vertex -43.0555 50 45.6848
      vertex -44.6542 50 44.9731
      vertex -44.8042 50 45.3639
    endloop
  endfacet
  facet normal 0 1 0
    outer loop
      vertex -43.9726 50 43.9235
      vertex -42.6721 50 45.0945
      vertex -42.5055 50 44.9279
    endloop
  endfacet
  facet normal 0 1 0
    outer loop
      vertex -43.6765 50 43.6274
      vertex -42.5055 50 44.9279
      vertex -42.3225 50 44.7797
    endloop
  endfacet
  facet normal 0 1 0
    outer loop
      vertex -43.3511 50 43.3639
      vertex -42.3225 50 44.7797
      vertex -42.125 50 44.6514
    endloop
  endfacet
  facet normal 0 1 0
    outer loop
      vertex -42.9486 50 45.475
      vertex -44.4641 50 44.6
      vertex -44.6542 50 44.9731
    endloop
  endfacet
  facet normal 0 1 0
    outer loop
      vertex -43 50 43.1359
      vertex -42.125 50 44.6514
      vertex -41.9152 50 44.5445
    endloop
  endfacet
  facet normal 0 1 0
    outer loop
      vertex -42.6269 50 42.9458
      vertex -41.9152 50 44.5445
      vertex -41.6953 50 44.4601
    endloop
  endfacet
  facet normal 0 1 0
    outer loop
      vertex -42.2361 50 42.7958
      vertex -41.6953 50 44.4601
      vertex -41.4678 50 44.3992
    endloop
  endfacet
  facet normal 0 1 0
    outer loop
      vertex -41.8316 50 42.6874
      vertex -41.4678 50 44.3992
      vertex -41.2352 50 44.3623
    endloop
  endfacet
  facet normal 0 1 0
    outer loop
      vertex -42.8203 50 45.2775
      vertex -44.2361 50 44.2489
      vertex -44.4641 50 44.6
    endloop
  endfacet
  facet normal 0 1 0
    outer loop
      vertex -41.4181 50 42.6219
      vertex -41.2352 50 44.3623
      vertex -41 50 44.35
    endloop
  endfacet
  facet normal 0 1 -0
    outer loop
      vertex -39.3731 50 42.9458
      vertex -40.0848 50 44.5445
      vertex -39 50 43.1359
    endloop
  endfacet
  facet normal 0 1 0
    outer loop
      vertex -40.0848 50 44.5445
      vertex -39.3731 50 42.9458
      vertex -40.3047 50 44.4601
    endloop
  endfacet
  facet normal 0 1 0
    outer loop
      vertex -42.6721 50 45.0945
      vertex -43.9726 50 43.9235
      vertex -44.2361 50 44.2489
    endloop
  endfacet
  facet normal 0 1 -0
    outer loop
      vertex -39.7639 50 42.7958
      vertex -40.3047 50 44.4601
      vertex -39.3731 50 42.9458
    endloop
  endfacet
  facet normal 0 1 0
    outer loop
      vertex -42.5055 50 44.9279
      vertex -43.6765 50 43.6274
      vertex -43.9726 50 43.9235
    endloop
  endfacet
  facet normal 0 1 0
    outer loop
      vertex -40.3047 50 44.4601
      vertex -39.7639 50 42.7958
      vertex -40.5322 50 44.3992
    endloop
  endfacet
  facet normal 0 1 0
    outer loop
      vertex -42.3225 50 44.7797
      vertex -43.3511 50 43.3639
      vertex -43.6765 50 43.6274
    endloop
  endfacet
  facet normal 0 1 -0
    outer loop
      vertex -40.1684 50 42.6874
      vertex -40.5322 50 44.3992
      vertex -39.7639 50 42.7958
    endloop
  endfacet
  facet normal 0 1 0
    outer loop
      vertex -42.125 50 44.6514
      vertex -43 50 43.1359
      vertex -43.3511 50 43.3639
    endloop
  endfacet
  facet normal 0 1 0
    outer loop
      vertex -40.5322 50 44.3992
      vertex -40.1684 50 42.6874
      vertex -40.7648 50 44.3623
    endloop
  endfacet
  facet normal 0 1 0
    outer loop
      vertex -41.9152 50 44.5445
      vertex -42.6269 50 42.9458
      vertex -43 50 43.1359
    endloop
  endfacet
  facet normal 0 1 -0
    outer loop
      vertex -40.5819 50 42.6219
      vertex -40.7648 50 44.3623
      vertex -40.1684 50 42.6874
    endloop
  endfacet
  facet normal 0 1 0
    outer loop
      vertex -41.6953 50 44.4601
      vertex -42.2361 50 42.7958
      vertex -42.6269 50 42.9458
    endloop
  endfacet
  facet normal 0 1 0
    outer loop
      vertex -40.7648 50 44.3623
      vertex -40.5819 50 42.6219
      vertex -41 50 44.35
    endloop
  endfacet
  facet normal 0 1 0
    outer loop
      vertex -41.4678 50 44.3992
      vertex -41.8316 50 42.6874
      vertex -42.2361 50 42.7958
    endloop
  endfacet
  facet normal 0 1 0
    outer loop
      vertex -41 50 42.6
      vertex -41 50 44.35
      vertex -40.5819 50 42.6219
    endloop
  endfacet
  facet normal 0 1 0
    outer loop
      vertex -41.2352 50 44.3623
      vertex -41.4181 50 42.6219
      vertex -41.8316 50 42.6874
    endloop
  endfacet
  facet normal 0 1 0
    outer loop
      vertex -41 50 44.35
      vertex -41 50 42.6
      vertex -41.4181 50 42.6219
    endloop
  endfacet
  facet normal 0.838678 -0 0.544627
    outer loop
      vertex -37.7639 48.5 48.9511
      vertex -37.5359 50 48.6
      vertex -37.7639 50 48.9511
    endloop
  endfacet
  facet normal 0.838678 0 0.544627
    outer loop
      vertex -37.5359 50 48.6
      vertex -37.7639 48.5 48.9511
      vertex -37.5359 48.5 48.6
    endloop
  endfacet
  facet normal 0.0523081 0 0.998631
    outer loop
      vertex -41 50 50.6
      vertex -40.5819 48.5 50.5781
      vertex -40.5819 50 50.5781
    endloop
  endfacet
  facet normal 0.0523081 0 0.998631
    outer loop
      vertex -40.5819 48.5 50.5781
      vertex -41 50 50.6
      vertex -41 48.5 50.6
    endloop
  endfacet
  facet normal 0.156453 0 -0.987685
    outer loop
      vertex -40.5819 48.5 42.6219
      vertex -40.1684 50 42.6874
      vertex -40.1684 48.5 42.6874
    endloop
  endfacet
  facet normal 0.156453 0 -0.987685
    outer loop
      vertex -40.1684 50 42.6874
      vertex -40.5819 48.5 42.6219
      vertex -40.5819 50 42.6219
    endloop
  endfacet
  facet normal 0.89101 -0 0.453983
    outer loop
      vertex -37.5359 48.5 48.6
      vertex -37.3458 50 48.2269
      vertex -37.5359 50 48.6
    endloop
  endfacet
  facet normal 0.89101 0 0.453983
    outer loop
      vertex -37.3458 50 48.2269
      vertex -37.5359 48.5 48.6
      vertex -37.3458 48.5 48.2269
    endloop
  endfacet
  facet normal 0.965917 0 -0.258851
    outer loop
      vertex -37.0874 48.5 45.7684
      vertex -37.1958 50 45.3639
      vertex -37.0874 50 45.7684
    endloop
  endfacet
  facet normal 0.965917 0 -0.258851
    outer loop
      vertex -37.1958 50 45.3639
      vertex -37.0874 48.5 45.7684
      vertex -37.1958 48.5 45.3639
    endloop
  endfacet
  facet normal 0.544627 0 0.838678
    outer loop
      vertex -39 50 50.0641
      vertex -38.6489 48.5 49.8361
      vertex -38.6489 50 49.8361
    endloop
  endfacet
  facet normal 0.544627 0 0.838678
    outer loop
      vertex -38.6489 48.5 49.8361
      vertex -39 50 50.0641
      vertex -39 48.5 50.0641
    endloop
  endfacet
  facet normal 0.258851 0 0.965917
    outer loop
      vertex -40.1684 50 50.5126
      vertex -39.7639 48.5 50.4042
      vertex -39.7639 50 50.4042
    endloop
  endfacet
  facet normal 0.258851 0 0.965917
    outer loop
      vertex -39.7639 48.5 50.4042
      vertex -40.1684 50 50.5126
      vertex -40.1684 48.5 50.5126
    endloop
  endfacet
  facet normal 0.358339 0 -0.933592
    outer loop
      vertex -39.7639 48.5 42.7958
      vertex -39.3731 50 42.9458
      vertex -39.3731 48.5 42.9458
    endloop
  endfacet
  facet normal 0.358339 0 -0.933592
    outer loop
      vertex -39.3731 50 42.9458
      vertex -39.7639 48.5 42.7958
      vertex -39.7639 50 42.7958
    endloop
  endfacet
  facet normal -0.965917 0 0.258851
    outer loop
      vertex -44.9126 48.5 47.4316
      vertex -44.8042 50 47.8361
      vertex -44.9126 50 47.4316
    endloop
  endfacet
  facet normal -0.965917 0 0.258851
    outer loop
      vertex -44.8042 50 47.8361
      vertex -44.9126 48.5 47.4316
      vertex -44.8042 48.5 47.8361
    endloop
  endfacet
  facet normal -0.258851 0 -0.965917
    outer loop
      vertex -42.2361 48.5 42.7958
      vertex -41.8316 50 42.6874
      vertex -41.8316 48.5 42.6874
    endloop
  endfacet
  facet normal -0.258851 0 -0.965917
    outer loop
      vertex -41.8316 50 42.6874
      vertex -42.2361 48.5 42.7958
      vertex -42.2361 50 42.7958
    endloop
  endfacet
  facet normal 0.89101 0 -0.453983
    outer loop
      vertex -37.3458 48.5 44.9731
      vertex -37.5359 50 44.6
      vertex -37.3458 50 44.9731
    endloop
  endfacet
  facet normal 0.89101 0 -0.453983
    outer loop
      vertex -37.5359 50 44.6
      vertex -37.3458 48.5 44.9731
      vertex -37.5359 48.5 44.6
    endloop
  endfacet
  facet normal -0.258851 0 0.965917
    outer loop
      vertex -42.2361 50 50.4042
      vertex -41.8316 48.5 50.5126
      vertex -41.8316 50 50.5126
    endloop
  endfacet
  facet normal -0.258851 0 0.965917
    outer loop
      vertex -41.8316 48.5 50.5126
      vertex -42.2361 50 50.4042
      vertex -42.2361 48.5 50.4042
    endloop
  endfacet
  facet normal 0.0523081 0 -0.998631
    outer loop
      vertex -41 48.5 42.6
      vertex -40.5819 50 42.6219
      vertex -40.5819 48.5 42.6219
    endloop
  endfacet
  facet normal 0.0523081 0 -0.998631
    outer loop
      vertex -40.5819 50 42.6219
      vertex -41 48.5 42.6
      vertex -41 50 42.6
    endloop
  endfacet
  facet normal -0.358339 0 0.933592
    outer loop
      vertex -42.6269 50 50.2542
      vertex -42.2361 48.5 50.4042
      vertex -42.2361 50 50.4042
    endloop
  endfacet
  facet normal -0.358339 0 0.933592
    outer loop
      vertex -42.2361 48.5 50.4042
      vertex -42.6269 50 50.2542
      vertex -42.6269 48.5 50.2542
    endloop
  endfacet
  facet normal -0.0523081 0 0.998631
    outer loop
      vertex -41.4181 50 50.5781
      vertex -41 48.5 50.6
      vertex -41 50 50.6
    endloop
  endfacet
  facet normal -0.0523081 0 0.998631
    outer loop
      vertex -41 48.5 50.6
      vertex -41.4181 50 50.5781
      vertex -41.4181 48.5 50.5781
    endloop
  endfacet
  facet normal 0.453983 0 -0.89101
    outer loop
      vertex -39.3731 48.5 42.9458
      vertex -39 50 43.1359
      vertex -39 48.5 43.1359
    endloop
  endfacet
  facet normal 0.453983 0 -0.89101
    outer loop
      vertex -39 50 43.1359
      vertex -39.3731 48.5 42.9458
      vertex -39.3731 50 42.9458
    endloop
  endfacet
  facet normal -0.933592 0 0.358339
    outer loop
      vertex -44.8042 48.5 47.8361
      vertex -44.6542 50 48.2269
      vertex -44.8042 50 47.8361
    endloop
  endfacet
  facet normal -0.933592 0 0.358339
    outer loop
      vertex -44.6542 50 48.2269
      vertex -44.8042 48.5 47.8361
      vertex -44.6542 48.5 48.2269
    endloop
  endfacet
  facet normal 0.629315 0 0.77715
    outer loop
      vertex -38.6489 50 49.8361
      vertex -38.3235 48.5 49.5726
      vertex -38.3235 50 49.5726
    endloop
  endfacet
  facet normal 0.629315 0 0.77715
    outer loop
      vertex -38.3235 48.5 49.5726
      vertex -38.6489 50 49.8361
      vertex -38.6489 48.5 49.8361
    endloop
  endfacet
  facet normal -0.89101 0 0.453983
    outer loop
      vertex -44.6542 48.5 48.2269
      vertex -44.4641 50 48.6
      vertex -44.6542 50 48.2269
    endloop
  endfacet
  facet normal -0.89101 0 0.453983
    outer loop
      vertex -44.4641 50 48.6
      vertex -44.6542 48.5 48.2269
      vertex -44.4641 48.5 48.6
    endloop
  endfacet
  facet normal 0.77715 -0 0.629315
    outer loop
      vertex -38.0274 48.5 49.2765
      vertex -37.7639 50 48.9511
      vertex -38.0274 50 49.2765
    endloop
  endfacet
  facet normal 0.77715 0 0.629315
    outer loop
      vertex -37.7639 50 48.9511
      vertex -38.0274 48.5 49.2765
      vertex -37.7639 48.5 48.9511
    endloop
  endfacet
  facet normal 0.838678 0 -0.544627
    outer loop
      vertex -37.5359 48.5 44.6
      vertex -37.7639 50 44.2489
      vertex -37.5359 50 44.6
    endloop
  endfacet
  facet normal 0.838678 0 -0.544627
    outer loop
      vertex -37.7639 50 44.2489
      vertex -37.5359 48.5 44.6
      vertex -37.7639 48.5 44.2489
    endloop
  endfacet
  facet normal -0.998631 0 -0.0523081
    outer loop
      vertex -44.9781 48.5 46.1819
      vertex -45 50 46.6
      vertex -44.9781 50 46.1819
    endloop
  endfacet
  facet normal -0.998631 -0 -0.0523081
    outer loop
      vertex -45 50 46.6
      vertex -44.9781 48.5 46.1819
      vertex -45 48.5 46.6
    endloop
  endfacet
  facet normal 0 -1 0
    outer loop
      vertex -41.4181 48.5 50.5781
      vertex -40.5819 48.5 50.5781
      vertex -41 48.5 50.6
    endloop
  endfacet
  facet normal 0 -1 0
    outer loop
      vertex -41.8316 48.5 50.5126
      vertex -40.5819 48.5 50.5781
      vertex -41.4181 48.5 50.5781
    endloop
  endfacet
  facet normal 0 -1 0
    outer loop
      vertex -41.8316 48.5 50.5126
      vertex -40.1684 48.5 50.5126
      vertex -40.5819 48.5 50.5781
    endloop
  endfacet
  facet normal 0 -1 0
    outer loop
      vertex -42.2361 48.5 50.4042
      vertex -40.1684 48.5 50.5126
      vertex -41.8316 48.5 50.5126
    endloop
  endfacet
  facet normal 0 -1 0
    outer loop
      vertex -42.2361 48.5 50.4042
      vertex -39.7639 48.5 50.4042
      vertex -40.1684 48.5 50.5126
    endloop
  endfacet
  facet normal 0 -1 0
    outer loop
      vertex -42.6269 48.5 50.2542
      vertex -39.7639 48.5 50.4042
      vertex -42.2361 48.5 50.4042
    endloop
  endfacet
  facet normal 0 -1 0
    outer loop
      vertex -42.6269 48.5 50.2542
      vertex -39.3731 48.5 50.2542
      vertex -39.7639 48.5 50.4042
    endloop
  endfacet
  facet normal 0 -1 0
    outer loop
      vertex -43 48.5 50.0641
      vertex -39.3731 48.5 50.2542
      vertex -42.6269 48.5 50.2542
    endloop
  endfacet
  facet normal 0 -1 0
    outer loop
      vertex -43 48.5 50.0641
      vertex -39 48.5 50.0641
      vertex -39.3731 48.5 50.2542
    endloop
  endfacet
  facet normal 0 -1 0
    outer loop
      vertex -43.3511 48.5 49.8361
      vertex -39 48.5 50.0641
      vertex -43 48.5 50.0641
    endloop
  endfacet
  facet normal 0 -1 0
    outer loop
      vertex -43.3511 48.5 49.8361
      vertex -38.6489 48.5 49.8361
      vertex -39 48.5 50.0641
    endloop
  endfacet
  facet normal 0 -1 0
    outer loop
      vertex -43.6765 48.5 49.5726
      vertex -38.6489 48.5 49.8361
      vertex -43.3511 48.5 49.8361
    endloop
  endfacet
  facet normal 0 -1 0
    outer loop
      vertex -43.6765 48.5 49.5726
      vertex -38.3235 48.5 49.5726
      vertex -38.6489 48.5 49.8361
    endloop
  endfacet
  facet normal 0 -1 0
    outer loop
      vertex -43.9726 48.5 49.2765
      vertex -38.3235 48.5 49.5726
      vertex -43.6765 48.5 49.5726
    endloop
  endfacet
  facet normal 0 -1 0
    outer loop
      vertex -43.9726 48.5 49.2765
      vertex -38.0274 48.5 49.2765
      vertex -38.3235 48.5 49.5726
    endloop
  endfacet
  facet normal 0 -1 0
    outer loop
      vertex -44.2361 48.5 48.9511
      vertex -38.0274 48.5 49.2765
      vertex -43.9726 48.5 49.2765
    endloop
  endfacet
  facet normal 0 -1 0
    outer loop
      vertex -44.2361 48.5 48.9511
      vertex -37.7639 48.5 48.9511
      vertex -38.0274 48.5 49.2765
    endloop
  endfacet
  facet normal 0 -1 0
    outer loop
      vertex -44.4641 48.5 48.6
      vertex -37.7639 48.5 48.9511
      vertex -44.2361 48.5 48.9511
    endloop
  endfacet
  facet normal 0 -1 0
    outer loop
      vertex -44.4641 48.5 48.6
      vertex -37.5359 48.5 48.6
      vertex -37.7639 48.5 48.9511
    endloop
  endfacet
  facet normal 0 -1 0
    outer loop
      vertex -44.6542 48.5 48.2269
      vertex -37.5359 48.5 48.6
      vertex -44.4641 48.5 48.6
    endloop
  endfacet
  facet normal 0 -1 0
    outer loop
      vertex -44.6542 48.5 48.2269
      vertex -37.3458 48.5 48.2269
      vertex -37.5359 48.5 48.6
    endloop
  endfacet
  facet normal 0 -1 0
    outer loop
      vertex -44.8042 48.5 47.8361
      vertex -37.3458 48.5 48.2269
      vertex -44.6542 48.5 48.2269
    endloop
  endfacet
  facet normal 0 -1 0
    outer loop
      vertex -44.8042 48.5 47.8361
      vertex -37.1958 48.5 47.8361
      vertex -37.3458 48.5 48.2269
    endloop
  endfacet
  facet normal 0 -1 0
    outer loop
      vertex -44.9126 48.5 47.4316
      vertex -37.1958 48.5 47.8361
      vertex -44.8042 48.5 47.8361
    endloop
  endfacet
  facet normal 0 -1 0
    outer loop
      vertex -44.9126 48.5 47.4316
      vertex -37.0874 48.5 47.4316
      vertex -37.1958 48.5 47.8361
    endloop
  endfacet
  facet normal 0 -1 0
    outer loop
      vertex -44.9781 48.5 47.0181
      vertex -37.0874 48.5 47.4316
      vertex -44.9126 48.5 47.4316
    endloop
  endfacet
  facet normal 0 -1 0
    outer loop
      vertex -44.9781 48.5 47.0181
      vertex -37.0219 48.5 47.0181
      vertex -37.0874 48.5 47.4316
    endloop
  endfacet
  facet normal 0 -1 0
    outer loop
      vertex -45 48.5 46.6
      vertex -37.0219 48.5 47.0181
      vertex -44.9781 48.5 47.0181
    endloop
  endfacet
  facet normal 0 -1 0
    outer loop
      vertex -45 48.5 46.6
      vertex -37 48.5 46.6
      vertex -37.0219 48.5 47.0181
    endloop
  endfacet
  facet normal 0 -1 0
    outer loop
      vertex -44.9781 48.5 46.1819
      vertex -37 48.5 46.6
      vertex -45 48.5 46.6
    endloop
  endfacet
  facet normal 0 -1 0
    outer loop
      vertex -44.9781 48.5 46.1819
      vertex -37.0219 48.5 46.1819
      vertex -37 48.5 46.6
    endloop
  endfacet
  facet normal 0 -1 0
    outer loop
      vertex -44.9126 48.5 45.7684
      vertex -37.0219 48.5 46.1819
      vertex -44.9781 48.5 46.1819
    endloop
  endfacet
  facet normal 0 -1 0
    outer loop
      vertex -44.9126 48.5 45.7684
      vertex -37.0874 48.5 45.7684
      vertex -37.0219 48.5 46.1819
    endloop
  endfacet
  facet normal 0 -1 0
    outer loop
      vertex -44.8042 48.5 45.3639
      vertex -37.0874 48.5 45.7684
      vertex -44.9126 48.5 45.7684
    endloop
  endfacet
  facet normal 0 -1 0
    outer loop
      vertex -44.8042 48.5 45.3639
      vertex -37.1958 48.5 45.3639
      vertex -37.0874 48.5 45.7684
    endloop
  endfacet
  facet normal 0 -1 0
    outer loop
      vertex -44.6542 48.5 44.9731
      vertex -37.1958 48.5 45.3639
      vertex -44.8042 48.5 45.3639
    endloop
  endfacet
  facet normal 0 -1 0
    outer loop
      vertex -44.6542 48.5 44.9731
      vertex -37.3458 48.5 44.9731
      vertex -37.1958 48.5 45.3639
    endloop
  endfacet
  facet normal 0 -1 0
    outer loop
      vertex -44.4641 48.5 44.6
      vertex -37.3458 48.5 44.9731
      vertex -44.6542 48.5 44.9731
    endloop
  endfacet
  facet normal 0 -1 0
    outer loop
      vertex -44.4641 48.5 44.6
      vertex -37.5359 48.5 44.6
      vertex -37.3458 48.5 44.9731
    endloop
  endfacet
  facet normal 0 -1 0
    outer loop
      vertex -44.2361 48.5 44.2489
      vertex -37.5359 48.5 44.6
      vertex -44.4641 48.5 44.6
    endloop
  endfacet
  facet normal 0 -1 0
    outer loop
      vertex -44.2361 48.5 44.2489
      vertex -37.7639 48.5 44.2489
      vertex -37.5359 48.5 44.6
    endloop
  endfacet
  facet normal 0 -1 0
    outer loop
      vertex -43.9726 48.5 43.9235
      vertex -37.7639 48.5 44.2489
      vertex -44.2361 48.5 44.2489
    endloop
  endfacet
  facet normal 0 -1 0
    outer loop
      vertex -43.9726 48.5 43.9235
      vertex -38.0274 48.5 43.9235
      vertex -37.7639 48.5 44.2489
    endloop
  endfacet
  facet normal 0 -1 0
    outer loop
      vertex -43.6765 48.5 43.6274
      vertex -38.0274 48.5 43.9235
      vertex -43.9726 48.5 43.9235
    endloop
  endfacet
  facet normal 0 -1 0
    outer loop
      vertex -43.6765 48.5 43.6274
      vertex -38.3235 48.5 43.6274
      vertex -38.0274 48.5 43.9235
    endloop
  endfacet
  facet normal 0 -1 0
    outer loop
      vertex -43.3511 48.5 43.3639
      vertex -38.3235 48.5 43.6274
      vertex -43.6765 48.5 43.6274
    endloop
  endfacet
  facet normal 0 -1 0
    outer loop
      vertex -43.3511 48.5 43.3639
      vertex -38.6489 48.5 43.3639
      vertex -38.3235 48.5 43.6274
    endloop
  endfacet
  facet normal 0 -1 0
    outer loop
      vertex -43 48.5 43.1359
      vertex -38.6489 48.5 43.3639
      vertex -43.3511 48.5 43.3639
    endloop
  endfacet
  facet normal 0 -1 0
    outer loop
      vertex -43 48.5 43.1359
      vertex -39 48.5 43.1359
      vertex -38.6489 48.5 43.3639
    endloop
  endfacet
  facet normal 0 -1 0
    outer loop
      vertex -42.6269 48.5 42.9458
      vertex -39 48.5 43.1359
      vertex -43 48.5 43.1359
    endloop
  endfacet
  facet normal 0 -1 0
    outer loop
      vertex -42.6269 48.5 42.9458
      vertex -39.3731 48.5 42.9458
      vertex -39 48.5 43.1359
    endloop
  endfacet
  facet normal 0 -1 0
    outer loop
      vertex -42.2361 48.5 42.7958
      vertex -39.3731 48.5 42.9458
      vertex -42.6269 48.5 42.9458
    endloop
  endfacet
  facet normal 0 -1 0
    outer loop
      vertex -42.2361 48.5 42.7958
      vertex -39.7639 48.5 42.7958
      vertex -39.3731 48.5 42.9458
    endloop
  endfacet
  facet normal 0 -1 0
    outer loop
      vertex -41.8316 48.5 42.6874
      vertex -39.7639 48.5 42.7958
      vertex -42.2361 48.5 42.7958
    endloop
  endfacet
  facet normal 0 -1 0
    outer loop
      vertex -41.8316 48.5 42.6874
      vertex -40.1684 48.5 42.6874
      vertex -39.7639 48.5 42.7958
    endloop
  endfacet
  facet normal 0 -1 0
    outer loop
      vertex -41.4181 48.5 42.6219
      vertex -40.1684 48.5 42.6874
      vertex -41.8316 48.5 42.6874
    endloop
  endfacet
  facet normal 0 -1 0
    outer loop
      vertex -41.4181 48.5 42.6219
      vertex -40.5819 48.5 42.6219
      vertex -40.1684 48.5 42.6874
    endloop
  endfacet
  facet normal -0 -1 0
    outer loop
      vertex -40.5819 48.5 42.6219
      vertex -41.4181 48.5 42.6219
      vertex -41 48.5 42.6
    endloop
  endfacet
  facet normal 0.707107 0 0.707107
    outer loop
      vertex -38.3235 50 49.5726
      vertex -38.0274 48.5 49.2765
      vertex -38.0274 50 49.2765
    endloop
  endfacet
  facet normal 0.707107 0 0.707107
    outer loop
      vertex -38.0274 48.5 49.2765
      vertex -38.3235 50 49.5726
      vertex -38.3235 48.5 49.5726
    endloop
  endfacet
  facet normal -0.838678 0 0.544627
    outer loop
      vertex -44.4641 48.5 48.6
      vertex -44.2361 50 48.9511
      vertex -44.4641 50 48.6
    endloop
  endfacet
  facet normal -0.838678 0 0.544627
    outer loop
      vertex -44.2361 50 48.9511
      vertex -44.4641 48.5 48.6
      vertex -44.2361 48.5 48.9511
    endloop
  endfacet
  facet normal -0.987685 0 0.156453
    outer loop
      vertex -44.9781 48.5 47.0181
      vertex -44.9126 50 47.4316
      vertex -44.9781 50 47.0181
    endloop
  endfacet
  facet normal -0.987685 0 0.156453
    outer loop
      vertex -44.9126 50 47.4316
      vertex -44.9781 48.5 47.0181
      vertex -44.9126 48.5 47.4316
    endloop
  endfacet
  facet normal -0.156453 0 -0.987685
    outer loop
      vertex -41.8316 48.5 42.6874
      vertex -41.4181 50 42.6219
      vertex -41.4181 48.5 42.6219
    endloop
  endfacet
  facet normal -0.156453 0 -0.987685
    outer loop
      vertex -41.4181 50 42.6219
      vertex -41.8316 48.5 42.6874
      vertex -41.8316 50 42.6874
    endloop
  endfacet
  facet normal -0.77715 0 0.629315
    outer loop
      vertex -44.2361 48.5 48.9511
      vertex -43.9726 50 49.2765
      vertex -44.2361 50 48.9511
    endloop
  endfacet
  facet normal -0.77715 0 0.629315
    outer loop
      vertex -43.9726 50 49.2765
      vertex -44.2361 48.5 48.9511
      vertex -43.9726 48.5 49.2765
    endloop
  endfacet
  facet normal 0.358339 0 0.933592
    outer loop
      vertex -39.7639 50 50.4042
      vertex -39.3731 48.5 50.2542
      vertex -39.3731 50 50.2542
    endloop
  endfacet
  facet normal 0.358339 0 0.933592
    outer loop
      vertex -39.3731 48.5 50.2542
      vertex -39.7639 50 50.4042
      vertex -39.7639 48.5 50.4042
    endloop
  endfacet
  facet normal -0.629315 0 0.77715
    outer loop
      vertex -43.6765 50 49.5726
      vertex -43.3511 48.5 49.8361
      vertex -43.3511 50 49.8361
    endloop
  endfacet
  facet normal -0.629315 0 0.77715
    outer loop
      vertex -43.3511 48.5 49.8361
      vertex -43.6765 50 49.5726
      vertex -43.6765 48.5 49.5726
    endloop
  endfacet
  facet normal -0.89101 0 -0.453983
    outer loop
      vertex -44.4641 48.5 44.6
      vertex -44.6542 50 44.9731
      vertex -44.4641 50 44.6
    endloop
  endfacet
  facet normal -0.89101 -0 -0.453983
    outer loop
      vertex -44.6542 50 44.9731
      vertex -44.4641 48.5 44.6
      vertex -44.6542 48.5 44.9731
    endloop
  endfacet
  facet normal -0.156453 0 0.987685
    outer loop
      vertex -41.8316 50 50.5126
      vertex -41.4181 48.5 50.5781
      vertex -41.4181 50 50.5781
    endloop
  endfacet
  facet normal -0.156453 0 0.987685
    outer loop
      vertex -41.4181 48.5 50.5781
      vertex -41.8316 50 50.5126
      vertex -41.8316 48.5 50.5126
    endloop
  endfacet
  facet normal 0.629315 0 -0.77715
    outer loop
      vertex -38.6489 48.5 43.3639
      vertex -38.3235 50 43.6274
      vertex -38.3235 48.5 43.6274
    endloop
  endfacet
  facet normal 0.629315 0 -0.77715
    outer loop
      vertex -38.3235 50 43.6274
      vertex -38.6489 48.5 43.3639
      vertex -38.6489 50 43.3639
    endloop
  endfacet
  facet normal -0.358339 0 -0.933592
    outer loop
      vertex -42.6269 48.5 42.9458
      vertex -42.2361 50 42.7958
      vertex -42.2361 48.5 42.7958
    endloop
  endfacet
  facet normal -0.358339 0 -0.933592
    outer loop
      vertex -42.2361 50 42.7958
      vertex -42.6269 48.5 42.9458
      vertex -42.6269 50 42.9458
    endloop
  endfacet
  facet normal -0.838678 0 -0.544627
    outer loop
      vertex -44.2361 48.5 44.2489
      vertex -44.4641 50 44.6
      vertex -44.2361 50 44.2489
    endloop
  endfacet
  facet normal -0.838678 -0 -0.544627
    outer loop
      vertex -44.4641 50 44.6
      vertex -44.2361 48.5 44.2489
      vertex -44.4641 48.5 44.6
    endloop
  endfacet
  facet normal -0.987685 0 -0.156453
    outer loop
      vertex -44.9126 48.5 45.7684
      vertex -44.9781 50 46.1819
      vertex -44.9126 50 45.7684
    endloop
  endfacet
  facet normal -0.987685 -0 -0.156453
    outer loop
      vertex -44.9781 50 46.1819
      vertex -44.9126 48.5 45.7684
      vertex -44.9781 48.5 46.1819
    endloop
  endfacet
  facet normal -0.933592 0 -0.358339
    outer loop
      vertex -44.6542 48.5 44.9731
      vertex -44.8042 50 45.3639
      vertex -44.6542 50 44.9731
    endloop
  endfacet
  facet normal -0.933592 -0 -0.358339
    outer loop
      vertex -44.8042 50 45.3639
      vertex -44.6542 48.5 44.9731
      vertex -44.8042 48.5 45.3639
    endloop
  endfacet
  facet normal -0.77715 0 -0.629315
    outer loop
      vertex -43.9726 48.5 43.9235
      vertex -44.2361 50 44.2489
      vertex -43.9726 50 43.9235
    endloop
  endfacet
  facet normal -0.77715 -0 -0.629315
    outer loop
      vertex -44.2361 50 44.2489
      vertex -43.9726 48.5 43.9235
      vertex -44.2361 48.5 44.2489
    endloop
  endfacet
  facet normal -0.453983 0 0.89101
    outer loop
      vertex -43 50 50.0641
      vertex -42.6269 48.5 50.2542
      vertex -42.6269 50 50.2542
    endloop
  endfacet
  facet normal -0.453983 0 0.89101
    outer loop
      vertex -42.6269 48.5 50.2542
      vertex -43 50 50.0641
      vertex -43 48.5 50.0641
    endloop
  endfacet
  facet normal 0.544627 0 -0.838678
    outer loop
      vertex -39 48.5 43.1359
      vertex -38.6489 50 43.3639
      vertex -38.6489 48.5 43.3639
    endloop
  endfacet
  facet normal 0.544627 0 -0.838678
    outer loop
      vertex -38.6489 50 43.3639
      vertex -39 48.5 43.1359
      vertex -39 50 43.1359
    endloop
  endfacet
  facet normal 0.933592 0 -0.358339
    outer loop
      vertex -37.1958 48.5 45.3639
      vertex -37.3458 50 44.9731
      vertex -37.1958 50 45.3639
    endloop
  endfacet
  facet normal 0.933592 0 -0.358339
    outer loop
      vertex -37.3458 50 44.9731
      vertex -37.1958 48.5 45.3639
      vertex -37.3458 48.5 44.9731
    endloop
  endfacet
  facet normal -0.0523081 0 -0.998631
    outer loop
      vertex -41.4181 48.5 42.6219
      vertex -41 50 42.6
      vertex -41 48.5 42.6
    endloop
  endfacet
  facet normal -0.0523081 0 -0.998631
    outer loop
      vertex -41 50 42.6
      vertex -41.4181 48.5 42.6219
      vertex -41.4181 50 42.6219
    endloop
  endfacet
  facet normal -0.998631 0 0.0523081
    outer loop
      vertex -45 48.5 46.6
      vertex -44.9781 50 47.0181
      vertex -45 50 46.6
    endloop
  endfacet
  facet normal -0.998631 0 0.0523081
    outer loop
      vertex -44.9781 50 47.0181
      vertex -45 48.5 46.6
      vertex -44.9781 48.5 47.0181
    endloop
  endfacet
  facet normal 0.707107 0 -0.707107
    outer loop
      vertex -38.3235 48.5 43.6274
      vertex -38.0274 50 43.9235
      vertex -38.0274 48.5 43.9235
    endloop
  endfacet
  facet normal 0.707107 0 -0.707107
    outer loop
      vertex -38.0274 50 43.9235
      vertex -38.3235 48.5 43.6274
      vertex -38.3235 50 43.6274
    endloop
  endfacet
endsolid OpenSCAD_Model
