solid OpenSCAD_Model
  facet normal 0.987716 -0 0.156257
    outer loop
      vertex 41.9563 69.3 14.4158
      vertex 41.989 71.8 14.2091
      vertex 41.9563 71.8 14.4158
    endloop
  endfacet
  facet normal 0.987716 0 0.156257
    outer loop
      vertex 41.989 71.8 14.2091
      vertex 41.9563 69.3 14.4158
      vertex 41.989 69.3 14.2091
    endloop
  endfacet
  facet normal 0.987716 0 -0.156257
    outer loop
      vertex 41.989 69.3 13.7909
      vertex 41.9563 71.8 13.5842
      vertex 41.989 71.8 13.7909
    endloop
  endfacet
  facet normal 0.987716 0 -0.156257
    outer loop
      vertex 41.9563 71.8 13.5842
      vertex 41.989 69.3 13.7909
      vertex 41.9563 69.3 13.5842
    endloop
  endfacet
  facet normal 0.998619 0 -0.0525338
    outer loop
      vertex 42 69.3 14
      vertex 41.989 71.8 13.7909
      vertex 42 71.8 14
    endloop
  endfacet
  facet normal 0.998619 0 -0.0525338
    outer loop
      vertex 41.989 71.8 13.7909
      vertex 42 69.3 14
      vertex 41.989 69.3 13.7909
    endloop
  endfacet
  facet normal 0.965901 0 -0.258911
    outer loop
      vertex 41.9563 69.3 13.5842
      vertex 41.9021 71.8 13.382
      vertex 41.9563 71.8 13.5842
    endloop
  endfacet
  facet normal 0.965901 0 -0.258911
    outer loop
      vertex 41.9021 71.8 13.382
      vertex 41.9563 69.3 13.5842
      vertex 41.9021 69.3 13.382
    endloop
  endfacet
  facet normal 0.838749 0 -0.544518
    outer loop
      vertex 41.732 69.3 13
      vertex 41.618 71.8 12.8244
      vertex 41.732 71.8 13
    endloop
  endfacet
  facet normal 0.838749 0 -0.544518
    outer loop
      vertex 41.618 71.8 12.8244
      vertex 41.732 69.3 13
      vertex 41.618 69.3 12.8244
    endloop
  endfacet
  facet normal -0.0525338 0 -0.998619
    outer loop
      vertex 39.7909 69.3 12.011
      vertex 40 71.8 12
      vertex 40 69.3 12
    endloop
  endfacet
  facet normal -0.0525338 0 -0.998619
    outer loop
      vertex 40 71.8 12
      vertex 39.7909 69.3 12.011
      vertex 39.7909 71.8 12.011
    endloop
  endfacet
  facet normal 0.998619 -0 0.0525338
    outer loop
      vertex 41.989 69.3 14.2091
      vertex 42 71.8 14
      vertex 41.989 71.8 14.2091
    endloop
  endfacet
  facet normal 0.998619 0 0.0525338
    outer loop
      vertex 42 71.8 14
      vertex 41.989 69.3 14.2091
      vertex 42 69.3 14
    endloop
  endfacet
  facet normal 0.777267 0 -0.629171
    outer loop
      vertex 41.618 69.3 12.8244
      vertex 41.4863 71.8 12.6617
      vertex 41.618 71.8 12.8244
    endloop
  endfacet
  facet normal 0.777267 0 -0.629171
    outer loop
      vertex 41.4863 71.8 12.6617
      vertex 41.618 69.3 12.8244
      vertex 41.4863 69.3 12.6617
    endloop
  endfacet
  facet normal -0.987716 0 0.156257
    outer loop
      vertex 38.011 69.3 14.2091
      vertex 38.0437 71.8 14.4158
      vertex 38.011 71.8 14.2091
    endloop
  endfacet
  facet normal -0.987716 0 0.156257
    outer loop
      vertex 38.0437 71.8 14.4158
      vertex 38.011 69.3 14.2091
      vertex 38.0437 69.3 14.4158
    endloop
  endfacet
  facet normal -0.890864 0 -0.454269
    outer loop
      vertex 38.268 69.3 13
      vertex 38.1729 71.8 13.1865
      vertex 38.268 71.8 13
    endloop
  endfacet
  facet normal -0.890864 -0 -0.454269
    outer loop
      vertex 38.1729 71.8 13.1865
      vertex 38.268 69.3 13
      vertex 38.1729 69.3 13.1865
    endloop
  endfacet
  facet normal 0.258911 0 -0.965901
    outer loop
      vertex 40.4158 69.3 12.0437
      vertex 40.618 71.8 12.0979
      vertex 40.618 69.3 12.0979
    endloop
  endfacet
  facet normal 0.258911 0 -0.965901
    outer loop
      vertex 40.618 71.8 12.0979
      vertex 40.4158 69.3 12.0437
      vertex 40.4158 71.8 12.0437
    endloop
  endfacet
  facet normal 0.358179 0 -0.933653
    outer loop
      vertex 40.618 69.3 12.0979
      vertex 40.8135 71.8 12.1729
      vertex 40.8135 69.3 12.1729
    endloop
  endfacet
  facet normal 0.358179 0 -0.933653
    outer loop
      vertex 40.8135 71.8 12.1729
      vertex 40.618 69.3 12.0979
      vertex 40.618 71.8 12.0979
    endloop
  endfacet
  facet normal -0.965901 0 0.258911
    outer loop
      vertex 38.0437 69.3 14.4158
      vertex 38.0979 71.8 14.618
      vertex 38.0437 71.8 14.4158
    endloop
  endfacet
  facet normal -0.965901 0 0.258911
    outer loop
      vertex 38.0979 71.8 14.618
      vertex 38.0437 69.3 14.4158
      vertex 38.0979 69.3 14.618
    endloop
  endfacet
  facet normal 0.629171 0 -0.777267
    outer loop
      vertex 41.1756 69.3 12.382
      vertex 41.3383 71.8 12.5137
      vertex 41.3383 69.3 12.5137
    endloop
  endfacet
  facet normal 0.629171 0 -0.777267
    outer loop
      vertex 41.3383 71.8 12.5137
      vertex 41.1756 69.3 12.382
      vertex 41.1756 71.8 12.382
    endloop
  endfacet
  facet normal 0.358179 0 0.933653
    outer loop
      vertex 40.618 71.8 15.9021
      vertex 40.8135 69.3 15.8271
      vertex 40.8135 71.8 15.8271
    endloop
  endfacet
  facet normal 0.358179 0 0.933653
    outer loop
      vertex 40.8135 69.3 15.8271
      vertex 40.618 71.8 15.9021
      vertex 40.618 69.3 15.9021
    endloop
  endfacet
  facet normal -0.777267 0 -0.629171
    outer loop
      vertex 38.5137 69.3 12.6617
      vertex 38.382 71.8 12.8244
      vertex 38.5137 71.8 12.6617
    endloop
  endfacet
  facet normal -0.777267 -0 -0.629171
    outer loop
      vertex 38.382 71.8 12.8244
      vertex 38.5137 69.3 12.6617
      vertex 38.382 69.3 12.8244
    endloop
  endfacet
  facet normal -0.258911 0 -0.965901
    outer loop
      vertex 39.382 69.3 12.0979
      vertex 39.5842 71.8 12.0437
      vertex 39.5842 69.3 12.0437
    endloop
  endfacet
  facet normal -0.258911 0 -0.965901
    outer loop
      vertex 39.5842 71.8 12.0437
      vertex 39.382 69.3 12.0979
      vertex 39.382 71.8 12.0979
    endloop
  endfacet
  facet normal -0.707107 0 -0.707107
    outer loop
      vertex 38.5137 69.3 12.6617
      vertex 38.6617 71.8 12.5137
      vertex 38.6617 69.3 12.5137
    endloop
  endfacet
  facet normal -0.707107 0 -0.707107
    outer loop
      vertex 38.6617 71.8 12.5137
      vertex 38.5137 69.3 12.6617
      vertex 38.5137 71.8 12.6617
    endloop
  endfacet
  facet normal -0.544518 0 -0.838749
    outer loop
      vertex 38.8244 69.3 12.382
      vertex 39 71.8 12.268
      vertex 39 69.3 12.268
    endloop
  endfacet
  facet normal -0.544518 0 -0.838749
    outer loop
      vertex 39 71.8 12.268
      vertex 38.8244 69.3 12.382
      vertex 38.8244 71.8 12.382
    endloop
  endfacet
  facet normal 0.965901 -0 0.258911
    outer loop
      vertex 41.9021 69.3 14.618
      vertex 41.9563 71.8 14.4158
      vertex 41.9021 71.8 14.618
    endloop
  endfacet
  facet normal 0.965901 0 0.258911
    outer loop
      vertex 41.9563 71.8 14.4158
      vertex 41.9021 69.3 14.618
      vertex 41.9563 69.3 14.4158
    endloop
  endfacet
  facet normal 0.0525338 0 0.998619
    outer loop
      vertex 40 71.8 16
      vertex 40.2091 69.3 15.989
      vertex 40.2091 71.8 15.989
    endloop
  endfacet
  facet normal 0.0525338 0 0.998619
    outer loop
      vertex 40.2091 69.3 15.989
      vertex 40 71.8 16
      vertex 40 69.3 16
    endloop
  endfacet
  facet normal 0.544518 0 -0.838749
    outer loop
      vertex 41 69.3 12.268
      vertex 41.1756 71.8 12.382
      vertex 41.1756 69.3 12.382
    endloop
  endfacet
  facet normal 0.544518 0 -0.838749
    outer loop
      vertex 41.1756 71.8 12.382
      vertex 41 69.3 12.268
      vertex 41 71.8 12.268
    endloop
  endfacet
  facet normal -0.838749 0 0.544518
    outer loop
      vertex 38.268 69.3 15
      vertex 38.382 71.8 15.1756
      vertex 38.268 71.8 15
    endloop
  endfacet
  facet normal -0.838749 0 0.544518
    outer loop
      vertex 38.382 71.8 15.1756
      vertex 38.268 69.3 15
      vertex 38.382 69.3 15.1756
    endloop
  endfacet
  facet normal 0.156257 0 0.987716
    outer loop
      vertex 40.2091 71.8 15.989
      vertex 40.4158 69.3 15.9563
      vertex 40.4158 71.8 15.9563
    endloop
  endfacet
  facet normal 0.156257 0 0.987716
    outer loop
      vertex 40.4158 69.3 15.9563
      vertex 40.2091 71.8 15.989
      vertex 40.2091 69.3 15.989
    endloop
  endfacet
  facet normal -0.156257 0 0.987716
    outer loop
      vertex 39.5842 71.8 15.9563
      vertex 39.7909 69.3 15.989
      vertex 39.7909 71.8 15.989
    endloop
  endfacet
  facet normal -0.156257 0 0.987716
    outer loop
      vertex 39.7909 69.3 15.989
      vertex 39.5842 71.8 15.9563
      vertex 39.5842 69.3 15.9563
    endloop
  endfacet
  facet normal -0.454269 0 0.890864
    outer loop
      vertex 39 71.8 15.732
      vertex 39.1865 69.3 15.8271
      vertex 39.1865 71.8 15.8271
    endloop
  endfacet
  facet normal -0.454269 0 0.890864
    outer loop
      vertex 39.1865 69.3 15.8271
      vertex 39 71.8 15.732
      vertex 39 69.3 15.732
    endloop
  endfacet
  facet normal 0 1 0
    outer loop
      vertex 40.3658 73.3 17.4808
      vertex 39.6342 73.3 17.4808
      vertex 40 73.3 17.5
    endloop
  endfacet
  facet normal 0 1 0
    outer loop
      vertex 40.7277 73.3 17.4235
      vertex 39.6342 73.3 17.4808
      vertex 40.3658 73.3 17.4808
    endloop
  endfacet
  facet normal 0 1 0
    outer loop
      vertex 40.7277 73.3 17.4235
      vertex 39.2723 73.3 17.4235
      vertex 39.6342 73.3 17.4808
    endloop
  endfacet
  facet normal 0 1 0
    outer loop
      vertex 41.0816 73.3 17.3287
      vertex 39.2723 73.3 17.4235
      vertex 40.7277 73.3 17.4235
    endloop
  endfacet
  facet normal 0 1 0
    outer loop
      vertex 41.0816 73.3 17.3287
      vertex 38.9184 73.3 17.3287
      vertex 39.2723 73.3 17.4235
    endloop
  endfacet
  facet normal 0 1 0
    outer loop
      vertex 41.4236 73.3 17.1974
      vertex 38.9184 73.3 17.3287
      vertex 41.0816 73.3 17.3287
    endloop
  endfacet
  facet normal 0 1 0
    outer loop
      vertex 41.4236 73.3 17.1974
      vertex 38.5764 73.3 17.1974
      vertex 38.9184 73.3 17.3287
    endloop
  endfacet
  facet normal 0 1 0
    outer loop
      vertex 41.75 73.3 17.0311
      vertex 38.5764 73.3 17.1974
      vertex 41.4236 73.3 17.1974
    endloop
  endfacet
  facet normal 0 1 0
    outer loop
      vertex 41.75 73.3 17.0311
      vertex 38.25 73.3 17.0311
      vertex 38.5764 73.3 17.1974
    endloop
  endfacet
  facet normal 0 1 0
    outer loop
      vertex 42.0572 73.3 16.8316
      vertex 38.25 73.3 17.0311
      vertex 41.75 73.3 17.0311
    endloop
  endfacet
  facet normal 0 1 0
    outer loop
      vertex 42.0572 73.3 16.8316
      vertex 37.9428 73.3 16.8316
      vertex 38.25 73.3 17.0311
    endloop
  endfacet
  facet normal 0 1 0
    outer loop
      vertex 42.342 73.3 16.601
      vertex 37.9428 73.3 16.8316
      vertex 42.0572 73.3 16.8316
    endloop
  endfacet
  facet normal 0 1 0
    outer loop
      vertex 42.342 73.3 16.601
      vertex 37.658 73.3 16.601
      vertex 37.9428 73.3 16.8316
    endloop
  endfacet
  facet normal 0 1 0
    outer loop
      vertex 42.601 73.3 16.342
      vertex 37.658 73.3 16.601
      vertex 42.342 73.3 16.601
    endloop
  endfacet
  facet normal 0 1 0
    outer loop
      vertex 42.601 73.3 16.342
      vertex 37.399 73.3 16.342
      vertex 37.658 73.3 16.601
    endloop
  endfacet
  facet normal 0 1 0
    outer loop
      vertex 42.8316 73.3 16.0572
      vertex 37.399 73.3 16.342
      vertex 42.601 73.3 16.342
    endloop
  endfacet
  facet normal 0 1 0
    outer loop
      vertex 42.8316 73.3 16.0572
      vertex 37.1684 73.3 16.0572
      vertex 37.399 73.3 16.342
    endloop
  endfacet
  facet normal 0 1 0
    outer loop
      vertex 43.0311 73.3 15.75
      vertex 37.1684 73.3 16.0572
      vertex 42.8316 73.3 16.0572
    endloop
  endfacet
  facet normal 0 1 0
    outer loop
      vertex 43.0311 73.3 15.75
      vertex 36.9689 73.3 15.75
      vertex 37.1684 73.3 16.0572
    endloop
  endfacet
  facet normal 0 1 0
    outer loop
      vertex 43.1974 73.3 15.4236
      vertex 36.9689 73.3 15.75
      vertex 43.0311 73.3 15.75
    endloop
  endfacet
  facet normal 0 1 0
    outer loop
      vertex 43.1974 73.3 15.4236
      vertex 36.8026 73.3 15.4236
      vertex 36.9689 73.3 15.75
    endloop
  endfacet
  facet normal 0 1 0
    outer loop
      vertex 43.3287 73.3 15.0816
      vertex 36.8026 73.3 15.4236
      vertex 43.1974 73.3 15.4236
    endloop
  endfacet
  facet normal 0 1 0
    outer loop
      vertex 43.3287 73.3 15.0816
      vertex 36.6713 73.3 15.0816
      vertex 36.8026 73.3 15.4236
    endloop
  endfacet
  facet normal 0 1 0
    outer loop
      vertex 43.4235 73.3 14.7277
      vertex 36.6713 73.3 15.0816
      vertex 43.3287 73.3 15.0816
    endloop
  endfacet
  facet normal 0 1 0
    outer loop
      vertex 43.4235 73.3 14.7277
      vertex 36.5765 73.3 14.7277
      vertex 36.6713 73.3 15.0816
    endloop
  endfacet
  facet normal 0 1 0
    outer loop
      vertex 43.4808 73.3 14.3658
      vertex 36.5765 73.3 14.7277
      vertex 43.4235 73.3 14.7277
    endloop
  endfacet
  facet normal 0 1 0
    outer loop
      vertex 43.4808 73.3 14.3658
      vertex 36.5192 73.3 14.3658
      vertex 36.5765 73.3 14.7277
    endloop
  endfacet
  facet normal 0 1 0
    outer loop
      vertex 43.5 73.3 14
      vertex 36.5192 73.3 14.3658
      vertex 43.4808 73.3 14.3658
    endloop
  endfacet
  facet normal 0 1 0
    outer loop
      vertex 43.5 73.3 14
      vertex 36.5 73.3 14
      vertex 36.5192 73.3 14.3658
    endloop
  endfacet
  facet normal 0 1 -0
    outer loop
      vertex 43.4808 73.3 13.6342
      vertex 36.5 73.3 14
      vertex 43.5 73.3 14
    endloop
  endfacet
  facet normal 0 1 0
    outer loop
      vertex 43.4808 73.3 13.6342
      vertex 36.5192 73.3 13.6342
      vertex 36.5 73.3 14
    endloop
  endfacet
  facet normal 0 1 -0
    outer loop
      vertex 43.4235 73.3 13.2723
      vertex 36.5192 73.3 13.6342
      vertex 43.4808 73.3 13.6342
    endloop
  endfacet
  facet normal 0 1 0
    outer loop
      vertex 43.4235 73.3 13.2723
      vertex 36.5765 73.3 13.2723
      vertex 36.5192 73.3 13.6342
    endloop
  endfacet
  facet normal 0 1 -0
    outer loop
      vertex 43.3287 73.3 12.9184
      vertex 36.5765 73.3 13.2723
      vertex 43.4235 73.3 13.2723
    endloop
  endfacet
  facet normal 0 1 0
    outer loop
      vertex 43.3287 73.3 12.9184
      vertex 36.6713 73.3 12.9184
      vertex 36.5765 73.3 13.2723
    endloop
  endfacet
  facet normal 0 1 -0
    outer loop
      vertex 43.1974 73.3 12.5764
      vertex 36.6713 73.3 12.9184
      vertex 43.3287 73.3 12.9184
    endloop
  endfacet
  facet normal 0 1 0
    outer loop
      vertex 43.1974 73.3 12.5764
      vertex 36.8026 73.3 12.5764
      vertex 36.6713 73.3 12.9184
    endloop
  endfacet
  facet normal 0 1 -0
    outer loop
      vertex 43.0311 73.3 12.25
      vertex 36.8026 73.3 12.5764
      vertex 43.1974 73.3 12.5764
    endloop
  endfacet
  facet normal 0 1 0
    outer loop
      vertex 43.0311 73.3 12.25
      vertex 36.9689 73.3 12.25
      vertex 36.8026 73.3 12.5764
    endloop
  endfacet
  facet normal 0 1 -0
    outer loop
      vertex 42.8316 73.3 11.9428
      vertex 36.9689 73.3 12.25
      vertex 43.0311 73.3 12.25
    endloop
  endfacet
  facet normal 0 1 0
    outer loop
      vertex 42.8316 73.3 11.9428
      vertex 37.1684 73.3 11.9428
      vertex 36.9689 73.3 12.25
    endloop
  endfacet
  facet normal 0 1 -0
    outer loop
      vertex 42.601 73.3 11.658
      vertex 37.1684 73.3 11.9428
      vertex 42.8316 73.3 11.9428
    endloop
  endfacet
  facet normal 0 1 0
    outer loop
      vertex 42.601 73.3 11.658
      vertex 37.399 73.3 11.658
      vertex 37.1684 73.3 11.9428
    endloop
  endfacet
  facet normal 0 1 -0
    outer loop
      vertex 42.342 73.3 11.399
      vertex 37.399 73.3 11.658
      vertex 42.601 73.3 11.658
    endloop
  endfacet
  facet normal 0 1 0
    outer loop
      vertex 42.342 73.3 11.399
      vertex 37.658 73.3 11.399
      vertex 37.399 73.3 11.658
    endloop
  endfacet
  facet normal 0 1 -0
    outer loop
      vertex 42.0572 73.3 11.1684
      vertex 37.658 73.3 11.399
      vertex 42.342 73.3 11.399
    endloop
  endfacet
  facet normal 0 1 0
    outer loop
      vertex 42.0572 73.3 11.1684
      vertex 37.9428 73.3 11.1684
      vertex 37.658 73.3 11.399
    endloop
  endfacet
  facet normal 0 1 -0
    outer loop
      vertex 41.75 73.3 10.9689
      vertex 37.9428 73.3 11.1684
      vertex 42.0572 73.3 11.1684
    endloop
  endfacet
  facet normal 0 1 0
    outer loop
      vertex 41.75 73.3 10.9689
      vertex 38.25 73.3 10.9689
      vertex 37.9428 73.3 11.1684
    endloop
  endfacet
  facet normal 0 1 -0
    outer loop
      vertex 41.4236 73.3 10.8026
      vertex 38.25 73.3 10.9689
      vertex 41.75 73.3 10.9689
    endloop
  endfacet
  facet normal 0 1 0
    outer loop
      vertex 41.4236 73.3 10.8026
      vertex 38.5764 73.3 10.8026
      vertex 38.25 73.3 10.9689
    endloop
  endfacet
  facet normal 0 1 -0
    outer loop
      vertex 41.0816 73.3 10.6713
      vertex 38.5764 73.3 10.8026
      vertex 41.4236 73.3 10.8026
    endloop
  endfacet
  facet normal 0 1 0
    outer loop
      vertex 41.0816 73.3 10.6713
      vertex 38.9184 73.3 10.6713
      vertex 38.5764 73.3 10.8026
    endloop
  endfacet
  facet normal 0 1 -0
    outer loop
      vertex 40.7277 73.3 10.5765
      vertex 38.9184 73.3 10.6713
      vertex 41.0816 73.3 10.6713
    endloop
  endfacet
  facet normal 0 1 0
    outer loop
      vertex 40.7277 73.3 10.5765
      vertex 39.2723 73.3 10.5765
      vertex 38.9184 73.3 10.6713
    endloop
  endfacet
  facet normal 0 1 -0
    outer loop
      vertex 40.3658 73.3 10.5192
      vertex 39.2723 73.3 10.5765
      vertex 40.7277 73.3 10.5765
    endloop
  endfacet
  facet normal 0 1 0
    outer loop
      vertex 40.3658 73.3 10.5192
      vertex 39.6342 73.3 10.5192
      vertex 39.2723 73.3 10.5765
    endloop
  endfacet
  facet normal -0 1 0
    outer loop
      vertex 39.6342 73.3 10.5192
      vertex 40.3658 73.3 10.5192
      vertex 40 73.3 10.5
    endloop
  endfacet
  facet normal -0.358179 0 -0.933653
    outer loop
      vertex 39.1865 69.3 12.1729
      vertex 39.382 71.8 12.0979
      vertex 39.382 69.3 12.0979
    endloop
  endfacet
  facet normal -0.358179 0 -0.933653
    outer loop
      vertex 39.382 71.8 12.0979
      vertex 39.1865 69.3 12.1729
      vertex 39.1865 71.8 12.1729
    endloop
  endfacet
  facet normal 0.454269 0 -0.890864
    outer loop
      vertex 40.8135 69.3 12.1729
      vertex 41 71.8 12.268
      vertex 41 69.3 12.268
    endloop
  endfacet
  facet normal 0.454269 0 -0.890864
    outer loop
      vertex 41 71.8 12.268
      vertex 40.8135 69.3 12.1729
      vertex 40.8135 71.8 12.1729
    endloop
  endfacet
  facet normal 0.890864 -0 0.454269
    outer loop
      vertex 41.732 69.3 15
      vertex 41.8271 71.8 14.8135
      vertex 41.732 71.8 15
    endloop
  endfacet
  facet normal 0.890864 0 0.454269
    outer loop
      vertex 41.8271 71.8 14.8135
      vertex 41.732 69.3 15
      vertex 41.8271 69.3 14.8135
    endloop
  endfacet
  facet normal 0.707107 0 -0.707107
    outer loop
      vertex 41.3383 69.3 12.5137
      vertex 41.4863 71.8 12.6617
      vertex 41.4863 69.3 12.6617
    endloop
  endfacet
  facet normal 0.707107 0 -0.707107
    outer loop
      vertex 41.4863 71.8 12.6617
      vertex 41.3383 69.3 12.5137
      vertex 41.3383 71.8 12.5137
    endloop
  endfacet
  facet normal -0.629171 0 0.777267
    outer loop
      vertex 38.6617 71.8 15.4863
      vertex 38.8244 69.3 15.618
      vertex 38.8244 71.8 15.618
    endloop
  endfacet
  facet normal -0.629171 0 0.777267
    outer loop
      vertex 38.8244 69.3 15.618
      vertex 38.6617 71.8 15.4863
      vertex 38.6617 69.3 15.4863
    endloop
  endfacet
  facet normal 0.838749 -0 0.544518
    outer loop
      vertex 41.618 69.3 15.1756
      vertex 41.732 71.8 15
      vertex 41.618 71.8 15.1756
    endloop
  endfacet
  facet normal 0.838749 0 0.544518
    outer loop
      vertex 41.732 71.8 15
      vertex 41.618 69.3 15.1756
      vertex 41.732 69.3 15
    endloop
  endfacet
  facet normal 0.454269 0 0.890864
    outer loop
      vertex 40.8135 71.8 15.8271
      vertex 41 69.3 15.732
      vertex 41 71.8 15.732
    endloop
  endfacet
  facet normal 0.454269 0 0.890864
    outer loop
      vertex 41 69.3 15.732
      vertex 40.8135 71.8 15.8271
      vertex 40.8135 69.3 15.8271
    endloop
  endfacet
  facet normal -0.156257 0 -0.987716
    outer loop
      vertex 39.5842 69.3 12.0437
      vertex 39.7909 71.8 12.011
      vertex 39.7909 69.3 12.011
    endloop
  endfacet
  facet normal -0.156257 0 -0.987716
    outer loop
      vertex 39.7909 71.8 12.011
      vertex 39.5842 69.3 12.0437
      vertex 39.5842 71.8 12.0437
    endloop
  endfacet
  facet normal 0.933653 0 -0.358179
    outer loop
      vertex 41.9021 69.3 13.382
      vertex 41.8271 71.8 13.1865
      vertex 41.9021 71.8 13.382
    endloop
  endfacet
  facet normal 0.933653 0 -0.358179
    outer loop
      vertex 41.8271 71.8 13.1865
      vertex 41.9021 69.3 13.382
      vertex 41.8271 69.3 13.1865
    endloop
  endfacet
  facet normal 0.777267 -0 0.629171
    outer loop
      vertex 41.4863 69.3 15.3383
      vertex 41.618 71.8 15.1756
      vertex 41.4863 71.8 15.3383
    endloop
  endfacet
  facet normal 0.777267 0 0.629171
    outer loop
      vertex 41.618 71.8 15.1756
      vertex 41.4863 69.3 15.3383
      vertex 41.618 69.3 15.1756
    endloop
  endfacet
  facet normal -0.933653 0 0.358179
    outer loop
      vertex 38.0979 69.3 14.618
      vertex 38.1729 71.8 14.8135
      vertex 38.0979 71.8 14.618
    endloop
  endfacet
  facet normal -0.933653 0 0.358179
    outer loop
      vertex 38.1729 71.8 14.8135
      vertex 38.0979 69.3 14.618
      vertex 38.1729 69.3 14.8135
    endloop
  endfacet
  facet normal -0.987716 0 -0.156257
    outer loop
      vertex 38.0437 69.3 13.5842
      vertex 38.011 71.8 13.7909
      vertex 38.0437 71.8 13.5842
    endloop
  endfacet
  facet normal -0.987716 -0 -0.156257
    outer loop
      vertex 38.011 71.8 13.7909
      vertex 38.0437 69.3 13.5842
      vertex 38.011 69.3 13.7909
    endloop
  endfacet
  facet normal 0.0525338 0 -0.998619
    outer loop
      vertex 40 69.3 12
      vertex 40.2091 71.8 12.011
      vertex 40.2091 69.3 12.011
    endloop
  endfacet
  facet normal 0.0525338 0 -0.998619
    outer loop
      vertex 40.2091 71.8 12.011
      vertex 40 69.3 12
      vertex 40 71.8 12
    endloop
  endfacet
  facet normal 0.890864 0 -0.454269
    outer loop
      vertex 41.8271 69.3 13.1865
      vertex 41.732 71.8 13
      vertex 41.8271 71.8 13.1865
    endloop
  endfacet
  facet normal 0.890864 0 -0.454269
    outer loop
      vertex 41.732 71.8 13
      vertex 41.8271 69.3 13.1865
      vertex 41.732 69.3 13
    endloop
  endfacet
  facet normal -0.838749 0 -0.544518
    outer loop
      vertex 38.382 69.3 12.8244
      vertex 38.268 71.8 13
      vertex 38.382 71.8 12.8244
    endloop
  endfacet
  facet normal -0.838749 -0 -0.544518
    outer loop
      vertex 38.268 71.8 13
      vertex 38.382 69.3 12.8244
      vertex 38.268 69.3 13
    endloop
  endfacet
  facet normal -0.629171 0 -0.777267
    outer loop
      vertex 38.6617 69.3 12.5137
      vertex 38.8244 71.8 12.382
      vertex 38.8244 69.3 12.382
    endloop
  endfacet
  facet normal -0.629171 0 -0.777267
    outer loop
      vertex 38.8244 71.8 12.382
      vertex 38.6617 69.3 12.5137
      vertex 38.6617 71.8 12.5137
    endloop
  endfacet
  facet normal -0.933653 0 -0.358179
    outer loop
      vertex 38.1729 69.3 13.1865
      vertex 38.0979 71.8 13.382
      vertex 38.1729 71.8 13.1865
    endloop
  endfacet
  facet normal -0.933653 -0 -0.358179
    outer loop
      vertex 38.0979 71.8 13.382
      vertex 38.1729 69.3 13.1865
      vertex 38.0979 69.3 13.382
    endloop
  endfacet
  facet normal -0.890864 0 0.454269
    outer loop
      vertex 38.1729 69.3 14.8135
      vertex 38.268 71.8 15
      vertex 38.1729 71.8 14.8135
    endloop
  endfacet
  facet normal -0.890864 0 0.454269
    outer loop
      vertex 38.268 71.8 15
      vertex 38.1729 69.3 14.8135
      vertex 38.268 69.3 15
    endloop
  endfacet
  facet normal 0.258911 0 0.965901
    outer loop
      vertex 40.4158 71.8 15.9563
      vertex 40.618 69.3 15.9021
      vertex 40.618 71.8 15.9021
    endloop
  endfacet
  facet normal 0.258911 0 0.965901
    outer loop
      vertex 40.618 69.3 15.9021
      vertex 40.4158 71.8 15.9563
      vertex 40.4158 69.3 15.9563
    endloop
  endfacet
  facet normal 0.629171 0 0.777267
    outer loop
      vertex 41.1756 71.8 15.618
      vertex 41.3383 69.3 15.4863
      vertex 41.3383 71.8 15.4863
    endloop
  endfacet
  facet normal 0.629171 0 0.777267
    outer loop
      vertex 41.3383 69.3 15.4863
      vertex 41.1756 71.8 15.618
      vertex 41.1756 69.3 15.618
    endloop
  endfacet
  facet normal -0.258911 0 0.965901
    outer loop
      vertex 39.382 71.8 15.9021
      vertex 39.5842 69.3 15.9563
      vertex 39.5842 71.8 15.9563
    endloop
  endfacet
  facet normal -0.258911 0 0.965901
    outer loop
      vertex 39.5842 69.3 15.9563
      vertex 39.382 71.8 15.9021
      vertex 39.382 69.3 15.9021
    endloop
  endfacet
  facet normal -0.998619 0 0.0525338
    outer loop
      vertex 38 69.3 14
      vertex 38.011 71.8 14.2091
      vertex 38 71.8 14
    endloop
  endfacet
  facet normal -0.998619 0 0.0525338
    outer loop
      vertex 38.011 71.8 14.2091
      vertex 38 69.3 14
      vertex 38.011 69.3 14.2091
    endloop
  endfacet
  facet normal 0.156257 0 -0.987716
    outer loop
      vertex 40.2091 69.3 12.011
      vertex 40.4158 71.8 12.0437
      vertex 40.4158 69.3 12.0437
    endloop
  endfacet
  facet normal 0.156257 0 -0.987716
    outer loop
      vertex 40.4158 71.8 12.0437
      vertex 40.2091 69.3 12.011
      vertex 40.2091 71.8 12.011
    endloop
  endfacet
  facet normal -0.777267 0 0.629171
    outer loop
      vertex 38.382 69.3 15.1756
      vertex 38.5137 71.8 15.3383
      vertex 38.382 71.8 15.1756
    endloop
  endfacet
  facet normal -0.777267 0 0.629171
    outer loop
      vertex 38.5137 71.8 15.3383
      vertex 38.382 69.3 15.1756
      vertex 38.5137 69.3 15.3383
    endloop
  endfacet
  facet normal -0.454269 0 -0.890864
    outer loop
      vertex 39 69.3 12.268
      vertex 39.1865 71.8 12.1729
      vertex 39.1865 69.3 12.1729
    endloop
  endfacet
  facet normal -0.454269 0 -0.890864
    outer loop
      vertex 39.1865 71.8 12.1729
      vertex 39 69.3 12.268
      vertex 39 71.8 12.268
    endloop
  endfacet
  facet normal -0.965901 0 -0.258911
    outer loop
      vertex 38.0979 69.3 13.382
      vertex 38.0437 71.8 13.5842
      vertex 38.0979 71.8 13.382
    endloop
  endfacet
  facet normal -0.965901 -0 -0.258911
    outer loop
      vertex 38.0437 71.8 13.5842
      vertex 38.0979 69.3 13.382
      vertex 38.0437 69.3 13.5842
    endloop
  endfacet
  facet normal -0.707107 0 0.707107
    outer loop
      vertex 38.5137 71.8 15.3383
      vertex 38.6617 69.3 15.4863
      vertex 38.6617 71.8 15.4863
    endloop
  endfacet
  facet normal -0.707107 0 0.707107
    outer loop
      vertex 38.6617 69.3 15.4863
      vertex 38.5137 71.8 15.3383
      vertex 38.5137 69.3 15.3383
    endloop
  endfacet
  facet normal 0.544518 0 0.838749
    outer loop
      vertex 41 71.8 15.732
      vertex 41.1756 69.3 15.618
      vertex 41.1756 71.8 15.618
    endloop
  endfacet
  facet normal 0.544518 0 0.838749
    outer loop
      vertex 41.1756 69.3 15.618
      vertex 41 71.8 15.732
      vertex 41 69.3 15.732
    endloop
  endfacet
  facet normal 0.933653 -0 0.358179
    outer loop
      vertex 41.8271 69.3 14.8135
      vertex 41.9021 71.8 14.618
      vertex 41.8271 71.8 14.8135
    endloop
  endfacet
  facet normal 0.933653 0 0.358179
    outer loop
      vertex 41.9021 71.8 14.618
      vertex 41.8271 69.3 14.8135
      vertex 41.9021 69.3 14.618
    endloop
  endfacet
  facet normal -0.0525338 0 0.998619
    outer loop
      vertex 39.7909 71.8 15.989
      vertex 40 69.3 16
      vertex 40 71.8 16
    endloop
  endfacet
  facet normal -0.0525338 0 0.998619
    outer loop
      vertex 40 69.3 16
      vertex 39.7909 71.8 15.989
      vertex 39.7909 69.3 15.989
    endloop
  endfacet
  facet normal -0.998619 0 -0.0525338
    outer loop
      vertex 38.011 69.3 13.7909
      vertex 38 71.8 14
      vertex 38.011 71.8 13.7909
    endloop
  endfacet
  facet normal -0.998619 -0 -0.0525338
    outer loop
      vertex 38 71.8 14
      vertex 38.011 69.3 13.7909
      vertex 38 69.3 14
    endloop
  endfacet
  facet normal -0.358179 0 0.933653
    outer loop
      vertex 39.1865 71.8 15.8271
      vertex 39.382 69.3 15.9021
      vertex 39.382 71.8 15.9021
    endloop
  endfacet
  facet normal -0.358179 0 0.933653
    outer loop
      vertex 39.382 69.3 15.9021
      vertex 39.1865 71.8 15.8271
      vertex 39.1865 69.3 15.8271
    endloop
  endfacet
  facet normal -0.544518 0 0.838749
    outer loop
      vertex 38.8244 71.8 15.618
      vertex 39 69.3 15.732
      vertex 39 71.8 15.732
    endloop
  endfacet
  facet normal -0.544518 0 0.838749
    outer loop
      vertex 39 69.3 15.732
      vertex 38.8244 71.8 15.618
      vertex 38.8244 69.3 15.618
    endloop
  endfacet
  facet normal 0.707107 0 0.707107
    outer loop
      vertex 41.3383 71.8 15.4863
      vertex 41.4863 69.3 15.3383
      vertex 41.4863 71.8 15.3383
    endloop
  endfacet
  facet normal 0.707107 0 0.707107
    outer loop
      vertex 41.4863 69.3 15.3383
      vertex 41.3383 71.8 15.4863
      vertex 41.3383 69.3 15.4863
    endloop
  endfacet
  facet normal 0.156383 0 -0.987696
    outer loop
      vertex 40.3658 71.8 10.5192
      vertex 40.7277 73.3 10.5765
      vertex 40.7277 71.8 10.5765
    endloop
  endfacet
  facet normal 0.156383 0 -0.987696
    outer loop
      vertex 40.7277 73.3 10.5765
      vertex 40.3658 71.8 10.5192
      vertex 40.3658 73.3 10.5192
    endloop
  endfacet
  facet normal 0.987696 0 -0.156383
    outer loop
      vertex 43.4808 71.8 13.6342
      vertex 43.4235 73.3 13.2723
      vertex 43.4808 73.3 13.6342
    endloop
  endfacet
  facet normal 0.987696 0 -0.156383
    outer loop
      vertex 43.4235 73.3 13.2723
      vertex 43.4808 71.8 13.6342
      vertex 43.4235 71.8 13.2723
    endloop
  endfacet
  facet normal 0.998625 0 -0.0524155
    outer loop
      vertex 43.5 71.8 14
      vertex 43.4808 73.3 13.6342
      vertex 43.5 73.3 14
    endloop
  endfacet
  facet normal 0.998625 0 -0.0524155
    outer loop
      vertex 43.4808 73.3 13.6342
      vertex 43.5 71.8 14
      vertex 43.4808 71.8 13.6342
    endloop
  endfacet
  facet normal 0.965944 0 -0.25875
    outer loop
      vertex 43.4235 71.8 13.2723
      vertex 43.3287 73.3 12.9184
      vertex 43.4235 73.3 13.2723
    endloop
  endfacet
  facet normal 0.965944 0 -0.25875
    outer loop
      vertex 43.3287 73.3 12.9184
      vertex 43.4235 71.8 13.2723
      vertex 43.3287 71.8 12.9184
    endloop
  endfacet
  facet normal -0.0524155 0 -0.998625
    outer loop
      vertex 39.6342 71.8 10.5192
      vertex 40 73.3 10.5
      vertex 40 71.8 10.5
    endloop
  endfacet
  facet normal -0.0524155 0 -0.998625
    outer loop
      vertex 40 73.3 10.5
      vertex 39.6342 71.8 10.5192
      vertex 39.6342 73.3 10.5192
    endloop
  endfacet
  facet normal 0.0524155 0 0.998625
    outer loop
      vertex 40 73.3 17.5
      vertex 40.3658 71.8 17.4808
      vertex 40.3658 73.3 17.4808
    endloop
  endfacet
  facet normal 0.0524155 0 0.998625
    outer loop
      vertex 40.3658 71.8 17.4808
      vertex 40 73.3 17.5
      vertex 40 71.8 17.5
    endloop
  endfacet
  facet normal -0.987696 0 0.156383
    outer loop
      vertex 36.5192 71.8 14.3658
      vertex 36.5765 73.3 14.7277
      vertex 36.5192 73.3 14.3658
    endloop
  endfacet
  facet normal -0.987696 0 0.156383
    outer loop
      vertex 36.5765 73.3 14.7277
      vertex 36.5192 71.8 14.3658
      vertex 36.5765 71.8 14.7277
    endloop
  endfacet
  facet normal -0.891017 0 -0.453971
    outer loop
      vertex 36.9689 71.8 12.25
      vertex 36.8026 73.3 12.5764
      vertex 36.9689 73.3 12.25
    endloop
  endfacet
  facet normal -0.891017 -0 -0.453971
    outer loop
      vertex 36.8026 73.3 12.5764
      vertex 36.9689 71.8 12.25
      vertex 36.8026 71.8 12.5764
    endloop
  endfacet
  facet normal -0.707107 0 -0.707107
    outer loop
      vertex 37.658 71.8 11.399
      vertex 37.399 73.3 11.658
      vertex 37.658 73.3 11.399
    endloop
  endfacet
  facet normal -0.707107 -0 -0.707107
    outer loop
      vertex 37.399 73.3 11.658
      vertex 37.658 71.8 11.399
      vertex 37.399 71.8 11.658
    endloop
  endfacet
  facet normal 0.707107 0 -0.707107
    outer loop
      vertex 42.601 71.8 11.658
      vertex 42.342 73.3 11.399
      vertex 42.601 73.3 11.658
    endloop
  endfacet
  facet normal 0.707107 0 -0.707107
    outer loop
      vertex 42.342 73.3 11.399
      vertex 42.601 71.8 11.658
      vertex 42.342 71.8 11.399
    endloop
  endfacet
  facet normal 0.156383 0 0.987696
    outer loop
      vertex 40.3658 73.3 17.4808
      vertex 40.7277 71.8 17.4235
      vertex 40.7277 73.3 17.4235
    endloop
  endfacet
  facet normal 0.156383 0 0.987696
    outer loop
      vertex 40.7277 71.8 17.4235
      vertex 40.3658 73.3 17.4808
      vertex 40.3658 71.8 17.4808
    endloop
  endfacet
  facet normal 0.358412 0 -0.933564
    outer loop
      vertex 41.0816 71.8 10.6713
      vertex 41.4236 73.3 10.8026
      vertex 41.4236 71.8 10.8026
    endloop
  endfacet
  facet normal 0.358412 0 -0.933564
    outer loop
      vertex 41.4236 73.3 10.8026
      vertex 41.0816 71.8 10.6713
      vertex 41.0816 73.3 10.6713
    endloop
  endfacet
  facet normal -0.965944 0 0.25875
    outer loop
      vertex 36.5765 71.8 14.7277
      vertex 36.6713 73.3 15.0816
      vertex 36.5765 73.3 14.7277
    endloop
  endfacet
  facet normal -0.965944 0 0.25875
    outer loop
      vertex 36.6713 73.3 15.0816
      vertex 36.5765 71.8 14.7277
      vertex 36.6713 71.8 15.0816
    endloop
  endfacet
  facet normal 0.987696 -0 0.156383
    outer loop
      vertex 43.4235 71.8 14.7277
      vertex 43.4808 73.3 14.3658
      vertex 43.4235 73.3 14.7277
    endloop
  endfacet
  facet normal 0.987696 0 0.156383
    outer loop
      vertex 43.4808 73.3 14.3658
      vertex 43.4235 71.8 14.7277
      vertex 43.4808 71.8 14.3658
    endloop
  endfacet
  facet normal 0.629277 0 -0.777181
    outer loop
      vertex 42.0572 71.8 11.1684
      vertex 42.342 73.3 11.399
      vertex 42.342 71.8 11.399
    endloop
  endfacet
  facet normal 0.629277 0 -0.777181
    outer loop
      vertex 42.342 73.3 11.399
      vertex 42.0572 71.8 11.1684
      vertex 42.0572 73.3 11.1684
    endloop
  endfacet
  facet normal 0.358412 0 0.933564
    outer loop
      vertex 41.0816 73.3 17.3287
      vertex 41.4236 71.8 17.1974
      vertex 41.4236 73.3 17.1974
    endloop
  endfacet
  facet normal 0.358412 0 0.933564
    outer loop
      vertex 41.4236 71.8 17.1974
      vertex 41.0816 73.3 17.3287
      vertex 41.0816 71.8 17.3287
    endloop
  endfacet
  facet normal 0.838668 0 -0.544643
    outer loop
      vertex 43.0311 71.8 12.25
      vertex 42.8316 73.3 11.9428
      vertex 43.0311 73.3 12.25
    endloop
  endfacet
  facet normal 0.838668 0 -0.544643
    outer loop
      vertex 42.8316 73.3 11.9428
      vertex 43.0311 71.8 12.25
      vertex 42.8316 71.8 11.9428
    endloop
  endfacet
  facet normal -0.25875 0 -0.965944
    outer loop
      vertex 38.9184 71.8 10.6713
      vertex 39.2723 73.3 10.5765
      vertex 39.2723 71.8 10.5765
    endloop
  endfacet
  facet normal -0.25875 0 -0.965944
    outer loop
      vertex 39.2723 73.3 10.5765
      vertex 38.9184 71.8 10.6713
      vertex 38.9184 73.3 10.6713
    endloop
  endfacet
  facet normal 0.998625 -0 0.0524155
    outer loop
      vertex 43.4808 71.8 14.3658
      vertex 43.5 73.3 14
      vertex 43.4808 73.3 14.3658
    endloop
  endfacet
  facet normal 0.998625 0 0.0524155
    outer loop
      vertex 43.5 73.3 14
      vertex 43.4808 71.8 14.3658
      vertex 43.5 71.8 14
    endloop
  endfacet
  facet normal 0.838668 -0 0.544643
    outer loop
      vertex 42.8316 71.8 16.0572
      vertex 43.0311 73.3 15.75
      vertex 42.8316 73.3 16.0572
    endloop
  endfacet
  facet normal 0.838668 0 0.544643
    outer loop
      vertex 43.0311 73.3 15.75
      vertex 42.8316 71.8 16.0572
      vertex 43.0311 71.8 15.75
    endloop
  endfacet
  facet normal -0.544643 0 -0.838668
    outer loop
      vertex 37.9428 71.8 11.1684
      vertex 38.25 73.3 10.9689
      vertex 38.25 71.8 10.9689
    endloop
  endfacet
  facet normal -0.544643 0 -0.838668
    outer loop
      vertex 38.25 73.3 10.9689
      vertex 37.9428 71.8 11.1684
      vertex 37.9428 73.3 11.1684
    endloop
  endfacet
  facet normal 0.965944 -0 0.25875
    outer loop
      vertex 43.3287 71.8 15.0816
      vertex 43.4235 73.3 14.7277
      vertex 43.3287 73.3 15.0816
    endloop
  endfacet
  facet normal 0.965944 0 0.25875
    outer loop
      vertex 43.4235 73.3 14.7277
      vertex 43.3287 71.8 15.0816
      vertex 43.4235 71.8 14.7277
    endloop
  endfacet
  facet normal -0.933564 0 -0.358412
    outer loop
      vertex 36.8026 71.8 12.5764
      vertex 36.6713 73.3 12.9184
      vertex 36.8026 73.3 12.5764
    endloop
  endfacet
  facet normal -0.933564 -0 -0.358412
    outer loop
      vertex 36.6713 73.3 12.9184
      vertex 36.8026 71.8 12.5764
      vertex 36.6713 71.8 12.9184
    endloop
  endfacet
  facet normal -0.629277 0 -0.777181
    outer loop
      vertex 37.658 71.8 11.399
      vertex 37.9428 73.3 11.1684
      vertex 37.9428 71.8 11.1684
    endloop
  endfacet
  facet normal -0.629277 0 -0.777181
    outer loop
      vertex 37.9428 73.3 11.1684
      vertex 37.658 71.8 11.399
      vertex 37.658 73.3 11.399
    endloop
  endfacet
  facet normal -0.838668 0 0.544643
    outer loop
      vertex 36.9689 71.8 15.75
      vertex 37.1684 73.3 16.0572
      vertex 36.9689 73.3 15.75
    endloop
  endfacet
  facet normal -0.838668 0 0.544643
    outer loop
      vertex 37.1684 73.3 16.0572
      vertex 36.9689 71.8 15.75
      vertex 37.1684 71.8 16.0572
    endloop
  endfacet
  facet normal -0.838668 0 -0.544643
    outer loop
      vertex 37.1684 71.8 11.9428
      vertex 36.9689 73.3 12.25
      vertex 37.1684 73.3 11.9428
    endloop
  endfacet
  facet normal -0.838668 -0 -0.544643
    outer loop
      vertex 36.9689 73.3 12.25
      vertex 37.1684 71.8 11.9428
      vertex 36.9689 71.8 12.25
    endloop
  endfacet
  facet normal 0.453971 0 -0.891017
    outer loop
      vertex 41.4236 71.8 10.8026
      vertex 41.75 73.3 10.9689
      vertex 41.75 71.8 10.9689
    endloop
  endfacet
  facet normal 0.453971 0 -0.891017
    outer loop
      vertex 41.75 73.3 10.9689
      vertex 41.4236 71.8 10.8026
      vertex 41.4236 73.3 10.8026
    endloop
  endfacet
  facet normal 0.891017 -0 0.453971
    outer loop
      vertex 43.0311 71.8 15.75
      vertex 43.1974 73.3 15.4236
      vertex 43.0311 73.3 15.75
    endloop
  endfacet
  facet normal 0.891017 0 0.453971
    outer loop
      vertex 43.1974 73.3 15.4236
      vertex 43.0311 71.8 15.75
      vertex 43.1974 71.8 15.4236
    endloop
  endfacet
  facet normal -0.629277 0 0.777181
    outer loop
      vertex 37.658 73.3 16.601
      vertex 37.9428 71.8 16.8316
      vertex 37.9428 73.3 16.8316
    endloop
  endfacet
  facet normal -0.629277 0 0.777181
    outer loop
      vertex 37.9428 71.8 16.8316
      vertex 37.658 73.3 16.601
      vertex 37.658 71.8 16.601
    endloop
  endfacet
  facet normal 0.453971 0 0.891017
    outer loop
      vertex 41.4236 73.3 17.1974
      vertex 41.75 71.8 17.0311
      vertex 41.75 73.3 17.0311
    endloop
  endfacet
  facet normal 0.453971 0 0.891017
    outer loop
      vertex 41.75 71.8 17.0311
      vertex 41.4236 73.3 17.1974
      vertex 41.4236 71.8 17.1974
    endloop
  endfacet
  facet normal 0.25875 0 -0.965944
    outer loop
      vertex 40.7277 71.8 10.5765
      vertex 41.0816 73.3 10.6713
      vertex 41.0816 71.8 10.6713
    endloop
  endfacet
  facet normal 0.25875 0 -0.965944
    outer loop
      vertex 41.0816 73.3 10.6713
      vertex 40.7277 71.8 10.5765
      vertex 40.7277 73.3 10.5765
    endloop
  endfacet
  facet normal 0.777181 -0 0.629277
    outer loop
      vertex 42.601 71.8 16.342
      vertex 42.8316 73.3 16.0572
      vertex 42.601 73.3 16.342
    endloop
  endfacet
  facet normal 0.777181 0 0.629277
    outer loop
      vertex 42.8316 73.3 16.0572
      vertex 42.601 71.8 16.342
      vertex 42.8316 71.8 16.0572
    endloop
  endfacet
  facet normal 0.777181 0 -0.629277
    outer loop
      vertex 42.8316 71.8 11.9428
      vertex 42.601 73.3 11.658
      vertex 42.8316 73.3 11.9428
    endloop
  endfacet
  facet normal 0.777181 0 -0.629277
    outer loop
      vertex 42.601 73.3 11.658
      vertex 42.8316 71.8 11.9428
      vertex 42.601 71.8 11.658
    endloop
  endfacet
  facet normal 0.544643 0 -0.838668
    outer loop
      vertex 41.75 71.8 10.9689
      vertex 42.0572 73.3 11.1684
      vertex 42.0572 71.8 11.1684
    endloop
  endfacet
  facet normal 0.544643 0 -0.838668
    outer loop
      vertex 42.0572 73.3 11.1684
      vertex 41.75 71.8 10.9689
      vertex 41.75 73.3 10.9689
    endloop
  endfacet
  facet normal -0.156383 0 -0.987696
    outer loop
      vertex 39.2723 71.8 10.5765
      vertex 39.6342 73.3 10.5192
      vertex 39.6342 71.8 10.5192
    endloop
  endfacet
  facet normal -0.156383 0 -0.987696
    outer loop
      vertex 39.6342 73.3 10.5192
      vertex 39.2723 71.8 10.5765
      vertex 39.2723 73.3 10.5765
    endloop
  endfacet
  facet normal 0.933564 0 -0.358412
    outer loop
      vertex 43.3287 71.8 12.9184
      vertex 43.1974 73.3 12.5764
      vertex 43.3287 73.3 12.9184
    endloop
  endfacet
  facet normal 0.933564 0 -0.358412
    outer loop
      vertex 43.1974 73.3 12.5764
      vertex 43.3287 71.8 12.9184
      vertex 43.1974 71.8 12.5764
    endloop
  endfacet
  facet normal 0.0524155 0 -0.998625
    outer loop
      vertex 40 71.8 10.5
      vertex 40.3658 73.3 10.5192
      vertex 40.3658 71.8 10.5192
    endloop
  endfacet
  facet normal 0.0524155 0 -0.998625
    outer loop
      vertex 40.3658 73.3 10.5192
      vertex 40 71.8 10.5
      vertex 40 73.3 10.5
    endloop
  endfacet
  facet normal -0.358412 0 0.933564
    outer loop
      vertex 38.5764 73.3 17.1974
      vertex 38.9184 71.8 17.3287
      vertex 38.9184 73.3 17.3287
    endloop
  endfacet
  facet normal -0.358412 0 0.933564
    outer loop
      vertex 38.9184 71.8 17.3287
      vertex 38.5764 73.3 17.1974
      vertex 38.5764 71.8 17.1974
    endloop
  endfacet
  facet normal -0.987696 0 -0.156383
    outer loop
      vertex 36.5765 71.8 13.2723
      vertex 36.5192 73.3 13.6342
      vertex 36.5765 73.3 13.2723
    endloop
  endfacet
  facet normal -0.987696 -0 -0.156383
    outer loop
      vertex 36.5192 73.3 13.6342
      vertex 36.5765 71.8 13.2723
      vertex 36.5192 71.8 13.6342
    endloop
  endfacet
  facet normal 0.891017 0 -0.453971
    outer loop
      vertex 43.1974 71.8 12.5764
      vertex 43.0311 73.3 12.25
      vertex 43.1974 73.3 12.5764
    endloop
  endfacet
  facet normal 0.891017 0 -0.453971
    outer loop
      vertex 43.0311 73.3 12.25
      vertex 43.1974 71.8 12.5764
      vertex 43.0311 71.8 12.25
    endloop
  endfacet
  facet normal -0.453971 0 -0.891017
    outer loop
      vertex 38.25 71.8 10.9689
      vertex 38.5764 73.3 10.8026
      vertex 38.5764 71.8 10.8026
    endloop
  endfacet
  facet normal -0.453971 0 -0.891017
    outer loop
      vertex 38.5764 73.3 10.8026
      vertex 38.25 71.8 10.9689
      vertex 38.25 73.3 10.9689
    endloop
  endfacet
  facet normal 0.629277 0 0.777181
    outer loop
      vertex 42.0572 73.3 16.8316
      vertex 42.342 71.8 16.601
      vertex 42.342 73.3 16.601
    endloop
  endfacet
  facet normal 0.629277 0 0.777181
    outer loop
      vertex 42.342 71.8 16.601
      vertex 42.0572 73.3 16.8316
      vertex 42.0572 71.8 16.8316
    endloop
  endfacet
  facet normal -0.777181 0 -0.629277
    outer loop
      vertex 37.399 71.8 11.658
      vertex 37.1684 73.3 11.9428
      vertex 37.399 73.3 11.658
    endloop
  endfacet
  facet normal -0.777181 -0 -0.629277
    outer loop
      vertex 37.1684 73.3 11.9428
      vertex 37.399 71.8 11.658
      vertex 37.1684 71.8 11.9428
    endloop
  endfacet
  facet normal -0.933564 0 0.358412
    outer loop
      vertex 36.6713 71.8 15.0816
      vertex 36.8026 73.3 15.4236
      vertex 36.6713 73.3 15.0816
    endloop
  endfacet
  facet normal -0.933564 0 0.358412
    outer loop
      vertex 36.8026 73.3 15.4236
      vertex 36.6713 71.8 15.0816
      vertex 36.8026 71.8 15.4236
    endloop
  endfacet
  facet normal -0.965944 0 -0.25875
    outer loop
      vertex 36.6713 71.8 12.9184
      vertex 36.5765 73.3 13.2723
      vertex 36.6713 73.3 12.9184
    endloop
  endfacet
  facet normal -0.965944 -0 -0.25875
    outer loop
      vertex 36.5765 73.3 13.2723
      vertex 36.6713 71.8 12.9184
      vertex 36.5765 71.8 13.2723
    endloop
  endfacet
  facet normal -0.891017 0 0.453971
    outer loop
      vertex 36.8026 71.8 15.4236
      vertex 36.9689 73.3 15.75
      vertex 36.8026 73.3 15.4236
    endloop
  endfacet
  facet normal -0.891017 0 0.453971
    outer loop
      vertex 36.9689 73.3 15.75
      vertex 36.8026 71.8 15.4236
      vertex 36.9689 71.8 15.75
    endloop
  endfacet
  facet normal 0.25875 0 0.965944
    outer loop
      vertex 40.7277 73.3 17.4235
      vertex 41.0816 71.8 17.3287
      vertex 41.0816 73.3 17.3287
    endloop
  endfacet
  facet normal 0.25875 0 0.965944
    outer loop
      vertex 41.0816 71.8 17.3287
      vertex 40.7277 73.3 17.4235
      vertex 40.7277 71.8 17.4235
    endloop
  endfacet
  facet normal -0.25875 0 0.965944
    outer loop
      vertex 38.9184 73.3 17.3287
      vertex 39.2723 71.8 17.4235
      vertex 39.2723 73.3 17.4235
    endloop
  endfacet
  facet normal -0.25875 0 0.965944
    outer loop
      vertex 39.2723 71.8 17.4235
      vertex 38.9184 73.3 17.3287
      vertex 38.9184 71.8 17.3287
    endloop
  endfacet
  facet normal -0.453971 0 0.891017
    outer loop
      vertex 38.25 73.3 17.0311
      vertex 38.5764 71.8 17.1974
      vertex 38.5764 73.3 17.1974
    endloop
  endfacet
  facet normal -0.453971 0 0.891017
    outer loop
      vertex 38.5764 71.8 17.1974
      vertex 38.25 73.3 17.0311
      vertex 38.25 71.8 17.0311
    endloop
  endfacet
  facet normal -0.998625 0 0.0524155
    outer loop
      vertex 36.5 71.8 14
      vertex 36.5192 73.3 14.3658
      vertex 36.5 73.3 14
    endloop
  endfacet
  facet normal -0.998625 0 0.0524155
    outer loop
      vertex 36.5192 73.3 14.3658
      vertex 36.5 71.8 14
      vertex 36.5192 71.8 14.3658
    endloop
  endfacet
  facet normal -0.358412 0 -0.933564
    outer loop
      vertex 38.5764 71.8 10.8026
      vertex 38.9184 73.3 10.6713
      vertex 38.9184 71.8 10.6713
    endloop
  endfacet
  facet normal -0.358412 0 -0.933564
    outer loop
      vertex 38.9184 73.3 10.6713
      vertex 38.5764 71.8 10.8026
      vertex 38.5764 73.3 10.8026
    endloop
  endfacet
  facet normal -0.777181 0 0.629277
    outer loop
      vertex 37.1684 71.8 16.0572
      vertex 37.399 73.3 16.342
      vertex 37.1684 73.3 16.0572
    endloop
  endfacet
  facet normal -0.777181 0 0.629277
    outer loop
      vertex 37.399 73.3 16.342
      vertex 37.1684 71.8 16.0572
      vertex 37.399 71.8 16.342
    endloop
  endfacet
  facet normal -0.707107 0 0.707107
    outer loop
      vertex 37.399 71.8 16.342
      vertex 37.658 73.3 16.601
      vertex 37.399 73.3 16.342
    endloop
  endfacet
  facet normal -0.707107 0 0.707107
    outer loop
      vertex 37.658 73.3 16.601
      vertex 37.399 71.8 16.342
      vertex 37.658 71.8 16.601
    endloop
  endfacet
  facet normal 0.544643 0 0.838668
    outer loop
      vertex 41.75 73.3 17.0311
      vertex 42.0572 71.8 16.8316
      vertex 42.0572 73.3 16.8316
    endloop
  endfacet
  facet normal 0.544643 0 0.838668
    outer loop
      vertex 42.0572 71.8 16.8316
      vertex 41.75 73.3 17.0311
      vertex 41.75 71.8 17.0311
    endloop
  endfacet
  facet normal 0.933564 -0 0.358412
    outer loop
      vertex 43.1974 71.8 15.4236
      vertex 43.3287 73.3 15.0816
      vertex 43.1974 73.3 15.4236
    endloop
  endfacet
  facet normal 0.933564 0 0.358412
    outer loop
      vertex 43.3287 73.3 15.0816
      vertex 43.1974 71.8 15.4236
      vertex 43.3287 71.8 15.0816
    endloop
  endfacet
  facet normal 0 -1 0
    outer loop
      vertex 40 71.8 16
      vertex 40 71.8 17.5
      vertex 39.6342 71.8 17.4808
    endloop
  endfacet
  facet normal 0 -1 0
    outer loop
      vertex 39.7909 71.8 15.989
      vertex 39.6342 71.8 17.4808
      vertex 39.2723 71.8 17.4235
    endloop
  endfacet
  facet normal 0 -1 0
    outer loop
      vertex 40 71.8 17.5
      vertex 40 71.8 16
      vertex 40.3658 71.8 17.4808
    endloop
  endfacet
  facet normal 0 -1 0
    outer loop
      vertex 39.5842 71.8 15.9563
      vertex 39.2723 71.8 17.4235
      vertex 38.9184 71.8 17.3287
    endloop
  endfacet
  facet normal 0 -1 0
    outer loop
      vertex 40.2091 71.8 15.989
      vertex 40.3658 71.8 17.4808
      vertex 40 71.8 16
    endloop
  endfacet
  facet normal 0 -1 0
    outer loop
      vertex 39.382 71.8 15.9021
      vertex 38.9184 71.8 17.3287
      vertex 38.5764 71.8 17.1974
    endloop
  endfacet
  facet normal 0 -1 -0
    outer loop
      vertex 40.3658 71.8 17.4808
      vertex 40.2091 71.8 15.989
      vertex 40.7277 71.8 17.4235
    endloop
  endfacet
  facet normal 0 -1 0
    outer loop
      vertex 39.1865 71.8 15.8271
      vertex 38.5764 71.8 17.1974
      vertex 38.25 71.8 17.0311
    endloop
  endfacet
  facet normal 0 -1 0
    outer loop
      vertex 40.4158 71.8 15.9563
      vertex 40.7277 71.8 17.4235
      vertex 40.2091 71.8 15.989
    endloop
  endfacet
  facet normal 0 -1 0
    outer loop
      vertex 39 71.8 15.732
      vertex 38.25 71.8 17.0311
      vertex 37.9428 71.8 16.8316
    endloop
  endfacet
  facet normal 0 -1 -0
    outer loop
      vertex 40.7277 71.8 17.4235
      vertex 40.4158 71.8 15.9563
      vertex 41.0816 71.8 17.3287
    endloop
  endfacet
  facet normal 0 -1 0
    outer loop
      vertex 38.8244 71.8 15.618
      vertex 37.9428 71.8 16.8316
      vertex 37.658 71.8 16.601
    endloop
  endfacet
  facet normal 0 -1 0
    outer loop
      vertex 40.618 71.8 15.9021
      vertex 41.0816 71.8 17.3287
      vertex 40.4158 71.8 15.9563
    endloop
  endfacet
  facet normal 0 -1 0
    outer loop
      vertex 38.6617 71.8 15.4863
      vertex 37.658 71.8 16.601
      vertex 37.399 71.8 16.342
    endloop
  endfacet
  facet normal 0 -1 -0
    outer loop
      vertex 41.0816 71.8 17.3287
      vertex 40.618 71.8 15.9021
      vertex 41.4236 71.8 17.1974
    endloop
  endfacet
  facet normal 0 -1 0
    outer loop
      vertex 38.5137 71.8 15.3383
      vertex 37.399 71.8 16.342
      vertex 37.1684 71.8 16.0572
    endloop
  endfacet
  facet normal 0 -1 0
    outer loop
      vertex 40.8135 71.8 15.8271
      vertex 41.4236 71.8 17.1974
      vertex 40.618 71.8 15.9021
    endloop
  endfacet
  facet normal 0 -1 -0
    outer loop
      vertex 41.4236 71.8 17.1974
      vertex 40.8135 71.8 15.8271
      vertex 41.75 71.8 17.0311
    endloop
  endfacet
  facet normal 0 -1 0
    outer loop
      vertex 39.6342 71.8 17.4808
      vertex 39.7909 71.8 15.989
      vertex 40 71.8 16
    endloop
  endfacet
  facet normal 0 -1 0
    outer loop
      vertex 39.2723 71.8 17.4235
      vertex 39.5842 71.8 15.9563
      vertex 39.7909 71.8 15.989
    endloop
  endfacet
  facet normal 0 -1 0
    outer loop
      vertex 38.9184 71.8 17.3287
      vertex 39.382 71.8 15.9021
      vertex 39.5842 71.8 15.9563
    endloop
  endfacet
  facet normal 0 -1 0
    outer loop
      vertex 38.5764 71.8 17.1974
      vertex 39.1865 71.8 15.8271
      vertex 39.382 71.8 15.9021
    endloop
  endfacet
  facet normal 0 -1 0
    outer loop
      vertex 38.382 71.8 15.1756
      vertex 37.1684 71.8 16.0572
      vertex 36.9689 71.8 15.75
    endloop
  endfacet
  facet normal 0 -1 0
    outer loop
      vertex 38.25 71.8 17.0311
      vertex 39 71.8 15.732
      vertex 39.1865 71.8 15.8271
    endloop
  endfacet
  facet normal 0 -1 0
    outer loop
      vertex 37.9428 71.8 16.8316
      vertex 38.8244 71.8 15.618
      vertex 39 71.8 15.732
    endloop
  endfacet
  facet normal 0 -1 0
    outer loop
      vertex 37.658 71.8 16.601
      vertex 38.6617 71.8 15.4863
      vertex 38.8244 71.8 15.618
    endloop
  endfacet
  facet normal 0 -1 0
    outer loop
      vertex 38.268 71.8 15
      vertex 36.9689 71.8 15.75
      vertex 36.8026 71.8 15.4236
    endloop
  endfacet
  facet normal 0 -1 0
    outer loop
      vertex 37.399 71.8 16.342
      vertex 38.5137 71.8 15.3383
      vertex 38.6617 71.8 15.4863
    endloop
  endfacet
  facet normal 0 -1 0
    outer loop
      vertex 37.1684 71.8 16.0572
      vertex 38.382 71.8 15.1756
      vertex 38.5137 71.8 15.3383
    endloop
  endfacet
  facet normal 0 -1 0
    outer loop
      vertex 38.1729 71.8 14.8135
      vertex 36.8026 71.8 15.4236
      vertex 36.6713 71.8 15.0816
    endloop
  endfacet
  facet normal 0 -1 0
    outer loop
      vertex 36.9689 71.8 15.75
      vertex 38.268 71.8 15
      vertex 38.382 71.8 15.1756
    endloop
  endfacet
  facet normal 0 -1 0
    outer loop
      vertex 36.8026 71.8 15.4236
      vertex 38.1729 71.8 14.8135
      vertex 38.268 71.8 15
    endloop
  endfacet
  facet normal 0 -1 0
    outer loop
      vertex 38.0979 71.8 14.618
      vertex 36.6713 71.8 15.0816
      vertex 36.5765 71.8 14.7277
    endloop
  endfacet
  facet normal 0 -1 0
    outer loop
      vertex 36.6713 71.8 15.0816
      vertex 38.0979 71.8 14.618
      vertex 38.1729 71.8 14.8135
    endloop
  endfacet
  facet normal 0 -1 0
    outer loop
      vertex 36.5765 71.8 14.7277
      vertex 38.0437 71.8 14.4158
      vertex 38.0979 71.8 14.618
    endloop
  endfacet
  facet normal 0 -1 0
    outer loop
      vertex 36.5192 71.8 14.3658
      vertex 38.0437 71.8 14.4158
      vertex 36.5765 71.8 14.7277
    endloop
  endfacet
  facet normal 0 -1 0
    outer loop
      vertex 36.5192 71.8 14.3658
      vertex 38.011 71.8 14.2091
      vertex 38.0437 71.8 14.4158
    endloop
  endfacet
  facet normal 0 -1 0
    outer loop
      vertex 36.5 71.8 14
      vertex 38.011 71.8 14.2091
      vertex 36.5192 71.8 14.3658
    endloop
  endfacet
  facet normal 0 -1 0
    outer loop
      vertex 36.5 71.8 14
      vertex 38 71.8 14
      vertex 38.011 71.8 14.2091
    endloop
  endfacet
  facet normal 0 -1 0
    outer loop
      vertex 36.5 71.8 14
      vertex 38.011 71.8 13.7909
      vertex 38 71.8 14
    endloop
  endfacet
  facet normal 0 -1 0
    outer loop
      vertex 36.5192 71.8 13.6342
      vertex 38.011 71.8 13.7909
      vertex 36.5 71.8 14
    endloop
  endfacet
  facet normal 0 -1 0
    outer loop
      vertex 36.5192 71.8 13.6342
      vertex 38.0437 71.8 13.5842
      vertex 38.011 71.8 13.7909
    endloop
  endfacet
  facet normal 0 -1 0
    outer loop
      vertex 36.5765 71.8 13.2723
      vertex 38.0437 71.8 13.5842
      vertex 36.5192 71.8 13.6342
    endloop
  endfacet
  facet normal 0 -1 -0
    outer loop
      vertex 38.0437 71.8 13.5842
      vertex 36.5765 71.8 13.2723
      vertex 38.0979 71.8 13.382
    endloop
  endfacet
  facet normal 0 -1 0
    outer loop
      vertex 36.6713 71.8 12.9184
      vertex 38.0979 71.8 13.382
      vertex 36.5765 71.8 13.2723
    endloop
  endfacet
  facet normal 0 -1 -0
    outer loop
      vertex 38.0979 71.8 13.382
      vertex 36.6713 71.8 12.9184
      vertex 38.1729 71.8 13.1865
    endloop
  endfacet
  facet normal 0 -1 0
    outer loop
      vertex 36.8026 71.8 12.5764
      vertex 38.1729 71.8 13.1865
      vertex 36.6713 71.8 12.9184
    endloop
  endfacet
  facet normal 0 -1 -0
    outer loop
      vertex 38.1729 71.8 13.1865
      vertex 36.8026 71.8 12.5764
      vertex 38.268 71.8 13
    endloop
  endfacet
  facet normal 0 -1 0
    outer loop
      vertex 36.9689 71.8 12.25
      vertex 38.268 71.8 13
      vertex 36.8026 71.8 12.5764
    endloop
  endfacet
  facet normal 0 -1 -0
    outer loop
      vertex 38.268 71.8 13
      vertex 36.9689 71.8 12.25
      vertex 38.382 71.8 12.8244
    endloop
  endfacet
  facet normal 0 -1 0
    outer loop
      vertex 37.1684 71.8 11.9428
      vertex 38.382 71.8 12.8244
      vertex 36.9689 71.8 12.25
    endloop
  endfacet
  facet normal 0 -1 -0
    outer loop
      vertex 38.382 71.8 12.8244
      vertex 37.1684 71.8 11.9428
      vertex 38.5137 71.8 12.6617
    endloop
  endfacet
  facet normal 0 -1 0
    outer loop
      vertex 37.399 71.8 11.658
      vertex 38.5137 71.8 12.6617
      vertex 37.1684 71.8 11.9428
    endloop
  endfacet
  facet normal 0 -1 -0
    outer loop
      vertex 38.5137 71.8 12.6617
      vertex 37.399 71.8 11.658
      vertex 38.6617 71.8 12.5137
    endloop
  endfacet
  facet normal 0 -1 0
    outer loop
      vertex 37.658 71.8 11.399
      vertex 38.6617 71.8 12.5137
      vertex 37.399 71.8 11.658
    endloop
  endfacet
  facet normal 0 -1 -0
    outer loop
      vertex 38.6617 71.8 12.5137
      vertex 37.658 71.8 11.399
      vertex 38.8244 71.8 12.382
    endloop
  endfacet
  facet normal 0 -1 0
    outer loop
      vertex 37.9428 71.8 11.1684
      vertex 38.8244 71.8 12.382
      vertex 37.658 71.8 11.399
    endloop
  endfacet
  facet normal 0 -1 -0
    outer loop
      vertex 38.8244 71.8 12.382
      vertex 37.9428 71.8 11.1684
      vertex 39 71.8 12.268
    endloop
  endfacet
  facet normal 0 -1 -0
    outer loop
      vertex 39 71.8 12.268
      vertex 38.25 71.8 10.9689
      vertex 39.1865 71.8 12.1729
    endloop
  endfacet
  facet normal 0 -1 0
    outer loop
      vertex 38.25 71.8 10.9689
      vertex 39 71.8 12.268
      vertex 37.9428 71.8 11.1684
    endloop
  endfacet
  facet normal 0 -1 0
    outer loop
      vertex 41 71.8 15.732
      vertex 41.75 71.8 17.0311
      vertex 40.8135 71.8 15.8271
    endloop
  endfacet
  facet normal 0 -1 -0
    outer loop
      vertex 41.75 71.8 17.0311
      vertex 41 71.8 15.732
      vertex 42.0572 71.8 16.8316
    endloop
  endfacet
  facet normal 0 -1 0
    outer loop
      vertex 41.1756 71.8 15.618
      vertex 42.0572 71.8 16.8316
      vertex 41 71.8 15.732
    endloop
  endfacet
  facet normal 0 -1 -0
    outer loop
      vertex 42.0572 71.8 16.8316
      vertex 41.1756 71.8 15.618
      vertex 42.342 71.8 16.601
    endloop
  endfacet
  facet normal 0 -1 0
    outer loop
      vertex 41.3383 71.8 15.4863
      vertex 42.342 71.8 16.601
      vertex 41.1756 71.8 15.618
    endloop
  endfacet
  facet normal 0 -1 -0
    outer loop
      vertex 42.342 71.8 16.601
      vertex 41.3383 71.8 15.4863
      vertex 42.601 71.8 16.342
    endloop
  endfacet
  facet normal 0 -1 0
    outer loop
      vertex 41.4863 71.8 15.3383
      vertex 42.601 71.8 16.342
      vertex 41.3383 71.8 15.4863
    endloop
  endfacet
  facet normal 0 -1 -0
    outer loop
      vertex 42.601 71.8 16.342
      vertex 41.4863 71.8 15.3383
      vertex 42.8316 71.8 16.0572
    endloop
  endfacet
  facet normal 0 -1 0
    outer loop
      vertex 41.618 71.8 15.1756
      vertex 42.8316 71.8 16.0572
      vertex 41.4863 71.8 15.3383
    endloop
  endfacet
  facet normal 0 -1 -0
    outer loop
      vertex 42.8316 71.8 16.0572
      vertex 41.618 71.8 15.1756
      vertex 43.0311 71.8 15.75
    endloop
  endfacet
  facet normal 0 -1 0
    outer loop
      vertex 41.732 71.8 15
      vertex 43.0311 71.8 15.75
      vertex 41.618 71.8 15.1756
    endloop
  endfacet
  facet normal 0 -1 -0
    outer loop
      vertex 43.0311 71.8 15.75
      vertex 41.732 71.8 15
      vertex 43.1974 71.8 15.4236
    endloop
  endfacet
  facet normal 0 -1 0
    outer loop
      vertex 41.8271 71.8 14.8135
      vertex 43.1974 71.8 15.4236
      vertex 41.732 71.8 15
    endloop
  endfacet
  facet normal 0 -1 -0
    outer loop
      vertex 43.1974 71.8 15.4236
      vertex 41.8271 71.8 14.8135
      vertex 43.3287 71.8 15.0816
    endloop
  endfacet
  facet normal 0 -1 0
    outer loop
      vertex 41.9021 71.8 14.618
      vertex 43.3287 71.8 15.0816
      vertex 41.8271 71.8 14.8135
    endloop
  endfacet
  facet normal 0 -1 -0
    outer loop
      vertex 43.3287 71.8 15.0816
      vertex 41.9021 71.8 14.618
      vertex 43.4235 71.8 14.7277
    endloop
  endfacet
  facet normal 0 -1 0
    outer loop
      vertex 41.9563 71.8 14.4158
      vertex 43.4235 71.8 14.7277
      vertex 41.9021 71.8 14.618
    endloop
  endfacet
  facet normal 0 -1 0
    outer loop
      vertex 41.9563 71.8 14.4158
      vertex 43.4808 71.8 14.3658
      vertex 43.4235 71.8 14.7277
    endloop
  endfacet
  facet normal 0 -1 0
    outer loop
      vertex 41.989 71.8 14.2091
      vertex 43.4808 71.8 14.3658
      vertex 41.9563 71.8 14.4158
    endloop
  endfacet
  facet normal 0 -1 0
    outer loop
      vertex 42 71.8 14
      vertex 43.4808 71.8 14.3658
      vertex 41.989 71.8 14.2091
    endloop
  endfacet
  facet normal 0 -1 0
    outer loop
      vertex 42 71.8 14
      vertex 43.5 71.8 14
      vertex 43.4808 71.8 14.3658
    endloop
  endfacet
  facet normal 0 -1 0
    outer loop
      vertex 41.989 71.8 13.7909
      vertex 43.5 71.8 14
      vertex 42 71.8 14
    endloop
  endfacet
  facet normal 0 -1 0
    outer loop
      vertex 41.989 71.8 13.7909
      vertex 43.4808 71.8 13.6342
      vertex 43.5 71.8 14
    endloop
  endfacet
  facet normal 0 -1 0
    outer loop
      vertex 41.9563 71.8 13.5842
      vertex 43.4808 71.8 13.6342
      vertex 41.989 71.8 13.7909
    endloop
  endfacet
  facet normal 0 -1 0
    outer loop
      vertex 43.4235 71.8 13.2723
      vertex 41.9563 71.8 13.5842
      vertex 41.9021 71.8 13.382
    endloop
  endfacet
  facet normal 0 -1 0
    outer loop
      vertex 41.9563 71.8 13.5842
      vertex 43.4235 71.8 13.2723
      vertex 43.4808 71.8 13.6342
    endloop
  endfacet
  facet normal 0 -1 0
    outer loop
      vertex 43.3287 71.8 12.9184
      vertex 41.9021 71.8 13.382
      vertex 41.8271 71.8 13.1865
    endloop
  endfacet
  facet normal 0 -1 0
    outer loop
      vertex 43.1974 71.8 12.5764
      vertex 41.8271 71.8 13.1865
      vertex 41.732 71.8 13
    endloop
  endfacet
  facet normal 0 -1 0
    outer loop
      vertex 41.9021 71.8 13.382
      vertex 43.3287 71.8 12.9184
      vertex 43.4235 71.8 13.2723
    endloop
  endfacet
  facet normal 0 -1 0
    outer loop
      vertex 43.0311 71.8 12.25
      vertex 41.732 71.8 13
      vertex 41.618 71.8 12.8244
    endloop
  endfacet
  facet normal 0 -1 0
    outer loop
      vertex 42.8316 71.8 11.9428
      vertex 41.618 71.8 12.8244
      vertex 41.4863 71.8 12.6617
    endloop
  endfacet
  facet normal 0 -1 0
    outer loop
      vertex 41.8271 71.8 13.1865
      vertex 43.1974 71.8 12.5764
      vertex 43.3287 71.8 12.9184
    endloop
  endfacet
  facet normal 0 -1 0
    outer loop
      vertex 42.601 71.8 11.658
      vertex 41.4863 71.8 12.6617
      vertex 41.3383 71.8 12.5137
    endloop
  endfacet
  facet normal 0 -1 0
    outer loop
      vertex 42.342 71.8 11.399
      vertex 41.3383 71.8 12.5137
      vertex 41.1756 71.8 12.382
    endloop
  endfacet
  facet normal 0 -1 0
    outer loop
      vertex 42.0572 71.8 11.1684
      vertex 41.1756 71.8 12.382
      vertex 41 71.8 12.268
    endloop
  endfacet
  facet normal 0 -1 0
    outer loop
      vertex 41.732 71.8 13
      vertex 43.0311 71.8 12.25
      vertex 43.1974 71.8 12.5764
    endloop
  endfacet
  facet normal 0 -1 0
    outer loop
      vertex 41.75 71.8 10.9689
      vertex 41 71.8 12.268
      vertex 40.8135 71.8 12.1729
    endloop
  endfacet
  facet normal 0 -1 0
    outer loop
      vertex 41.4236 71.8 10.8026
      vertex 40.8135 71.8 12.1729
      vertex 40.618 71.8 12.0979
    endloop
  endfacet
  facet normal 0 -1 0
    outer loop
      vertex 41.0816 71.8 10.6713
      vertex 40.618 71.8 12.0979
      vertex 40.4158 71.8 12.0437
    endloop
  endfacet
  facet normal 0 -1 0
    outer loop
      vertex 40.7277 71.8 10.5765
      vertex 40.4158 71.8 12.0437
      vertex 40.2091 71.8 12.011
    endloop
  endfacet
  facet normal 0 -1 0
    outer loop
      vertex 41.618 71.8 12.8244
      vertex 42.8316 71.8 11.9428
      vertex 43.0311 71.8 12.25
    endloop
  endfacet
  facet normal 0 -1 0
    outer loop
      vertex 40.3658 71.8 10.5192
      vertex 40.2091 71.8 12.011
      vertex 40 71.8 12
    endloop
  endfacet
  facet normal 0 -1 0
    outer loop
      vertex 38.5764 71.8 10.8026
      vertex 39.1865 71.8 12.1729
      vertex 38.25 71.8 10.9689
    endloop
  endfacet
  facet normal 0 -1 -0
    outer loop
      vertex 39.1865 71.8 12.1729
      vertex 38.5764 71.8 10.8026
      vertex 39.382 71.8 12.0979
    endloop
  endfacet
  facet normal 0 -1 0
    outer loop
      vertex 41.4863 71.8 12.6617
      vertex 42.601 71.8 11.658
      vertex 42.8316 71.8 11.9428
    endloop
  endfacet
  facet normal 0 -1 0
    outer loop
      vertex 38.9184 71.8 10.6713
      vertex 39.382 71.8 12.0979
      vertex 38.5764 71.8 10.8026
    endloop
  endfacet
  facet normal 0 -1 0
    outer loop
      vertex 41.3383 71.8 12.5137
      vertex 42.342 71.8 11.399
      vertex 42.601 71.8 11.658
    endloop
  endfacet
  facet normal 0 -1 -0
    outer loop
      vertex 39.382 71.8 12.0979
      vertex 38.9184 71.8 10.6713
      vertex 39.5842 71.8 12.0437
    endloop
  endfacet
  facet normal 0 -1 0
    outer loop
      vertex 41.1756 71.8 12.382
      vertex 42.0572 71.8 11.1684
      vertex 42.342 71.8 11.399
    endloop
  endfacet
  facet normal 0 -1 0
    outer loop
      vertex 39.2723 71.8 10.5765
      vertex 39.5842 71.8 12.0437
      vertex 38.9184 71.8 10.6713
    endloop
  endfacet
  facet normal 0 -1 0
    outer loop
      vertex 41 71.8 12.268
      vertex 41.75 71.8 10.9689
      vertex 42.0572 71.8 11.1684
    endloop
  endfacet
  facet normal 0 -1 -0
    outer loop
      vertex 39.5842 71.8 12.0437
      vertex 39.2723 71.8 10.5765
      vertex 39.7909 71.8 12.011
    endloop
  endfacet
  facet normal 0 -1 0
    outer loop
      vertex 40.8135 71.8 12.1729
      vertex 41.4236 71.8 10.8026
      vertex 41.75 71.8 10.9689
    endloop
  endfacet
  facet normal 0 -1 0
    outer loop
      vertex 39.6342 71.8 10.5192
      vertex 39.7909 71.8 12.011
      vertex 39.2723 71.8 10.5765
    endloop
  endfacet
  facet normal 0 -1 0
    outer loop
      vertex 40.618 71.8 12.0979
      vertex 41.0816 71.8 10.6713
      vertex 41.4236 71.8 10.8026
    endloop
  endfacet
  facet normal 0 -1 -0
    outer loop
      vertex 39.7909 71.8 12.011
      vertex 39.6342 71.8 10.5192
      vertex 40 71.8 12
    endloop
  endfacet
  facet normal 0 -1 0
    outer loop
      vertex 40.4158 71.8 12.0437
      vertex 40.7277 71.8 10.5765
      vertex 41.0816 71.8 10.6713
    endloop
  endfacet
  facet normal 0 -1 0
    outer loop
      vertex 40 71.8 10.5
      vertex 40 71.8 12
      vertex 39.6342 71.8 10.5192
    endloop
  endfacet
  facet normal 0 -1 0
    outer loop
      vertex 40.2091 71.8 12.011
      vertex 40.3658 71.8 10.5192
      vertex 40.7277 71.8 10.5765
    endloop
  endfacet
  facet normal 0 -1 0
    outer loop
      vertex 40 71.8 12
      vertex 40 71.8 10.5
      vertex 40.3658 71.8 10.5192
    endloop
  endfacet
  facet normal -0.0524155 0 0.998625
    outer loop
      vertex 39.6342 73.3 17.4808
      vertex 40 71.8 17.5
      vertex 40 73.3 17.5
    endloop
  endfacet
  facet normal -0.0524155 0 0.998625
    outer loop
      vertex 40 71.8 17.5
      vertex 39.6342 73.3 17.4808
      vertex 39.6342 71.8 17.4808
    endloop
  endfacet
  facet normal -0.998625 0 -0.0524155
    outer loop
      vertex 36.5192 71.8 13.6342
      vertex 36.5 73.3 14
      vertex 36.5192 73.3 13.6342
    endloop
  endfacet
  facet normal -0.998625 -0 -0.0524155
    outer loop
      vertex 36.5 73.3 14
      vertex 36.5192 71.8 13.6342
      vertex 36.5 71.8 14
    endloop
  endfacet
  facet normal -0.156383 0 0.987696
    outer loop
      vertex 39.2723 73.3 17.4235
      vertex 39.6342 71.8 17.4808
      vertex 39.6342 73.3 17.4808
    endloop
  endfacet
  facet normal -0.156383 0 0.987696
    outer loop
      vertex 39.6342 71.8 17.4808
      vertex 39.2723 73.3 17.4235
      vertex 39.2723 71.8 17.4235
    endloop
  endfacet
  facet normal -0.544643 0 0.838668
    outer loop
      vertex 37.9428 73.3 16.8316
      vertex 38.25 71.8 17.0311
      vertex 38.25 73.3 17.0311
    endloop
  endfacet
  facet normal -0.544643 0 0.838668
    outer loop
      vertex 38.25 71.8 17.0311
      vertex 37.9428 73.3 16.8316
      vertex 37.9428 71.8 16.8316
    endloop
  endfacet
  facet normal 0.707107 -0 0.707107
    outer loop
      vertex 42.342 71.8 16.601
      vertex 42.601 73.3 16.342
      vertex 42.342 73.3 16.601
    endloop
  endfacet
  facet normal 0.707107 0 0.707107
    outer loop
      vertex 42.601 73.3 16.342
      vertex 42.342 71.8 16.601
      vertex 42.601 71.8 16.342
    endloop
  endfacet
  facet normal 1 0 0
    outer loop
      vertex 45 69.3 36
      vertex 45 58.5 28.7
      vertex 45 69.3 10.3
    endloop
  endfacet
  facet normal 1 -0 0
    outer loop
      vertex 45 58.3 36
      vertex 45 58.5 28.7
      vertex 45 69.3 36
    endloop
  endfacet
  facet normal 1 0 0
    outer loop
      vertex 45 58.5 28.7
      vertex 45 58.3 36
      vertex 45 58.3 28.7
    endloop
  endfacet
  facet normal 1 0 0
    outer loop
      vertex 45 69.3 10.3
      vertex 45 58.5 28.7
      vertex 45 58.5 10.3
    endloop
  endfacet
  facet normal 0 0 1
    outer loop
      vertex 45 69.3 36
      vertex 44 62.5 36
      vertex 45 58.3 36
    endloop
  endfacet
  facet normal 0 0 1
    outer loop
      vertex 35 67 36
      vertex 45 69.3 36
      vertex 35 69.3 36
    endloop
  endfacet
  facet normal 0 0 1
    outer loop
      vertex 45 69.3 36
      vertex 35 67 36
      vertex 44 62.5 36
    endloop
  endfacet
  facet normal 0 0 1
    outer loop
      vertex 45 58.3 36
      vertex 44 62.5 36
      vertex 35.6 58.3 36
    endloop
  endfacet
  facet normal 0 0 -1
    outer loop
      vertex -9.7 53.7 10.3
      vertex 35 54 10.3
      vertex 35 53.7 10.3
    endloop
  endfacet
  facet normal -0 0 -1
    outer loop
      vertex 35 54 10.3
      vertex -9.7 53.7 10.3
      vertex 35 58 10.3
    endloop
  endfacet
  facet normal 0 0 -1
    outer loop
      vertex -9.7 58.5 10.3
      vertex 35 58 10.3
      vertex -9.7 53.7 10.3
    endloop
  endfacet
  facet normal 0 0 -1
    outer loop
      vertex 35 58 10.3
      vertex -9.7 58.5 10.3
      vertex 35 58.5 10.3
    endloop
  endfacet
  facet normal 0 0 -1
    outer loop
      vertex 45 54 10.3
      vertex 47.7 53.7 10.3
      vertex 45 53.7 10.3
    endloop
  endfacet
  facet normal 0 0 -1
    outer loop
      vertex 47.7 53.7 10.3
      vertex 45 54 10.3
      vertex 47.7 58.5 10.3
    endloop
  endfacet
  facet normal 0 0 -1
    outer loop
      vertex 45 54 10.3
      vertex 45 58.5 10.3
      vertex 47.7 58.5 10.3
    endloop
  endfacet
  facet normal 0 0 -1
    outer loop
      vertex 35 58 10.3
      vertex 45 58.5 10.3
      vertex 45 54 10.3
    endloop
  endfacet
  facet normal 0 0 -1
    outer loop
      vertex 45 58.5 10.3
      vertex 44 62.5 10.3
      vertex 45 69.3 10.3
    endloop
  endfacet
  facet normal 0 0 -1
    outer loop
      vertex 35 58 10.3
      vertex 45 54 10.3
      vertex 35 54 10.3
    endloop
  endfacet
  facet normal -0 0 -1
    outer loop
      vertex 45 58.5 10.3
      vertex 35 58 10.3
      vertex 44 62.5 10.3
    endloop
  endfacet
  facet normal 0 0 -1
    outer loop
      vertex 35 67 10.3
      vertex 45 69.3 10.3
      vertex 44 62.5 10.3
    endloop
  endfacet
  facet normal -0 0 -1
    outer loop
      vertex 45 69.3 10.3
      vertex 35 67 10.3
      vertex 35 69.3 10.3
    endloop
  endfacet
  facet normal -1 0 0
    outer loop
      vertex 35 67 10.3
      vertex 35 69.3 36
      vertex 35 69.3 10.3
    endloop
  endfacet
  facet normal -1 -0 0
    outer loop
      vertex 35 69.3 36
      vertex 35 67 10.3
      vertex 35 67 36
    endloop
  endfacet
  facet normal 1 -0 0
    outer loop
      vertex 35 58 28.7
      vertex 35 58.5 10.3
      vertex 35 58.5 28.7
    endloop
  endfacet
  facet normal 1 0 0
    outer loop
      vertex 35 58.5 10.3
      vertex 35 58 28.7
      vertex 35 58 10.3
    endloop
  endfacet
  facet normal 0 1 0
    outer loop
      vertex 45 69.3 36
      vertex 40 69.3 16
      vertex 35 69.3 36
    endloop
  endfacet
  facet normal 0 1 0
    outer loop
      vertex 45 69.3 36
      vertex 40.2091 69.3 15.989
      vertex 40 69.3 16
    endloop
  endfacet
  facet normal 0 1 0
    outer loop
      vertex 45 69.3 36
      vertex 40.4158 69.3 15.9563
      vertex 40.2091 69.3 15.989
    endloop
  endfacet
  facet normal 0 1 0
    outer loop
      vertex 45 69.3 36
      vertex 40.618 69.3 15.9021
      vertex 40.4158 69.3 15.9563
    endloop
  endfacet
  facet normal 0 1 0
    outer loop
      vertex 45 69.3 36
      vertex 40.8135 69.3 15.8271
      vertex 40.618 69.3 15.9021
    endloop
  endfacet
  facet normal 0 1 0
    outer loop
      vertex 45 69.3 36
      vertex 41 69.3 15.732
      vertex 40.8135 69.3 15.8271
    endloop
  endfacet
  facet normal 0 1 0
    outer loop
      vertex 45 69.3 36
      vertex 41.1756 69.3 15.618
      vertex 41 69.3 15.732
    endloop
  endfacet
  facet normal 0 1 0
    outer loop
      vertex 45 69.3 36
      vertex 41.3383 69.3 15.4863
      vertex 41.1756 69.3 15.618
    endloop
  endfacet
  facet normal 0 1 0
    outer loop
      vertex 45 69.3 36
      vertex 41.4863 69.3 15.3383
      vertex 41.3383 69.3 15.4863
    endloop
  endfacet
  facet normal 0 1 0
    outer loop
      vertex 45 69.3 36
      vertex 41.618 69.3 15.1756
      vertex 41.4863 69.3 15.3383
    endloop
  endfacet
  facet normal 0 1 0
    outer loop
      vertex 45 69.3 36
      vertex 41.732 69.3 15
      vertex 41.618 69.3 15.1756
    endloop
  endfacet
  facet normal 0 1 0
    outer loop
      vertex 45 69.3 36
      vertex 41.8271 69.3 14.8135
      vertex 41.732 69.3 15
    endloop
  endfacet
  facet normal 0 1 -0
    outer loop
      vertex 45 69.3 10.3
      vertex 41.8271 69.3 14.8135
      vertex 45 69.3 36
    endloop
  endfacet
  facet normal 0 1 0
    outer loop
      vertex 41.8271 69.3 14.8135
      vertex 45 69.3 10.3
      vertex 41.9021 69.3 14.618
    endloop
  endfacet
  facet normal 0 1 0
    outer loop
      vertex 41.9021 69.3 14.618
      vertex 45 69.3 10.3
      vertex 41.9563 69.3 14.4158
    endloop
  endfacet
  facet normal 0 1 0
    outer loop
      vertex 41.9563 69.3 14.4158
      vertex 45 69.3 10.3
      vertex 41.989 69.3 14.2091
    endloop
  endfacet
  facet normal 0 1 0
    outer loop
      vertex 41.989 69.3 14.2091
      vertex 45 69.3 10.3
      vertex 42 69.3 14
    endloop
  endfacet
  facet normal 0 1 0
    outer loop
      vertex 40.2091 69.3 12.011
      vertex 45 69.3 10.3
      vertex 40 69.3 12
    endloop
  endfacet
  facet normal 0 1 0
    outer loop
      vertex 40.4158 69.3 12.0437
      vertex 45 69.3 10.3
      vertex 40.2091 69.3 12.011
    endloop
  endfacet
  facet normal 0 1 0
    outer loop
      vertex 40.618 69.3 12.0979
      vertex 45 69.3 10.3
      vertex 40.4158 69.3 12.0437
    endloop
  endfacet
  facet normal 0 1 0
    outer loop
      vertex 40.8135 69.3 12.1729
      vertex 45 69.3 10.3
      vertex 40.618 69.3 12.0979
    endloop
  endfacet
  facet normal 0 1 0
    outer loop
      vertex 41 69.3 12.268
      vertex 45 69.3 10.3
      vertex 40.8135 69.3 12.1729
    endloop
  endfacet
  facet normal 0 1 0
    outer loop
      vertex 41.1756 69.3 12.382
      vertex 45 69.3 10.3
      vertex 41 69.3 12.268
    endloop
  endfacet
  facet normal 0 1 0
    outer loop
      vertex 41.3383 69.3 12.5137
      vertex 45 69.3 10.3
      vertex 41.1756 69.3 12.382
    endloop
  endfacet
  facet normal 0 1 0
    outer loop
      vertex 41.4863 69.3 12.6617
      vertex 45 69.3 10.3
      vertex 41.3383 69.3 12.5137
    endloop
  endfacet
  facet normal 0 1 0
    outer loop
      vertex 41.618 69.3 12.8244
      vertex 45 69.3 10.3
      vertex 41.4863 69.3 12.6617
    endloop
  endfacet
  facet normal 0 1 0
    outer loop
      vertex 41.732 69.3 13
      vertex 45 69.3 10.3
      vertex 41.618 69.3 12.8244
    endloop
  endfacet
  facet normal 0 1 0
    outer loop
      vertex 41.8271 69.3 13.1865
      vertex 45 69.3 10.3
      vertex 41.732 69.3 13
    endloop
  endfacet
  facet normal 0 1 0
    outer loop
      vertex 41.9021 69.3 13.382
      vertex 45 69.3 10.3
      vertex 41.8271 69.3 13.1865
    endloop
  endfacet
  facet normal 0 1 0
    outer loop
      vertex 41.9563 69.3 13.5842
      vertex 45 69.3 10.3
      vertex 41.9021 69.3 13.382
    endloop
  endfacet
  facet normal 0 1 0
    outer loop
      vertex 41.989 69.3 13.7909
      vertex 45 69.3 10.3
      vertex 41.9563 69.3 13.5842
    endloop
  endfacet
  facet normal 0 1 0
    outer loop
      vertex 42 69.3 14
      vertex 45 69.3 10.3
      vertex 41.989 69.3 13.7909
    endloop
  endfacet
  facet normal 0 1 -0
    outer loop
      vertex 39.7909 69.3 15.989
      vertex 35 69.3 36
      vertex 40 69.3 16
    endloop
  endfacet
  facet normal 0 1 -0
    outer loop
      vertex 39.5842 69.3 15.9563
      vertex 35 69.3 36
      vertex 39.7909 69.3 15.989
    endloop
  endfacet
  facet normal 0 1 -0
    outer loop
      vertex 39.382 69.3 15.9021
      vertex 35 69.3 36
      vertex 39.5842 69.3 15.9563
    endloop
  endfacet
  facet normal 0 1 -0
    outer loop
      vertex 39.1865 69.3 15.8271
      vertex 35 69.3 36
      vertex 39.382 69.3 15.9021
    endloop
  endfacet
  facet normal 0 1 -0
    outer loop
      vertex 39 69.3 15.732
      vertex 35 69.3 36
      vertex 39.1865 69.3 15.8271
    endloop
  endfacet
  facet normal 0 1 -0
    outer loop
      vertex 38.8244 69.3 15.618
      vertex 35 69.3 36
      vertex 39 69.3 15.732
    endloop
  endfacet
  facet normal 0 1 -0
    outer loop
      vertex 38.6617 69.3 15.4863
      vertex 35 69.3 36
      vertex 38.8244 69.3 15.618
    endloop
  endfacet
  facet normal 0 1 -0
    outer loop
      vertex 38.5137 69.3 15.3383
      vertex 35 69.3 36
      vertex 38.6617 69.3 15.4863
    endloop
  endfacet
  facet normal 0 1 -0
    outer loop
      vertex 38.382 69.3 15.1756
      vertex 35 69.3 36
      vertex 38.5137 69.3 15.3383
    endloop
  endfacet
  facet normal 0 1 -0
    outer loop
      vertex 38.268 69.3 15
      vertex 35 69.3 36
      vertex 38.382 69.3 15.1756
    endloop
  endfacet
  facet normal 0 1 -0
    outer loop
      vertex 38.1729 69.3 14.8135
      vertex 35 69.3 36
      vertex 38.268 69.3 15
    endloop
  endfacet
  facet normal 0 1 0
    outer loop
      vertex 35 69.3 10.3
      vertex 38.1729 69.3 14.8135
      vertex 38.0979 69.3 14.618
    endloop
  endfacet
  facet normal 0 1 0
    outer loop
      vertex 35 69.3 10.3
      vertex 38.0979 69.3 14.618
      vertex 38.0437 69.3 14.4158
    endloop
  endfacet
  facet normal 0 1 0
    outer loop
      vertex 35 69.3 10.3
      vertex 38.0437 69.3 14.4158
      vertex 38.011 69.3 14.2091
    endloop
  endfacet
  facet normal 0 1 0
    outer loop
      vertex 35 69.3 10.3
      vertex 38.011 69.3 14.2091
      vertex 38 69.3 14
    endloop
  endfacet
  facet normal 0 1 0
    outer loop
      vertex 35 69.3 10.3
      vertex 38 69.3 14
      vertex 38.011 69.3 13.7909
    endloop
  endfacet
  facet normal 0 1 0
    outer loop
      vertex 35 69.3 10.3
      vertex 40 69.3 12
      vertex 45 69.3 10.3
    endloop
  endfacet
  facet normal 0 1 0
    outer loop
      vertex 40 69.3 12
      vertex 35 69.3 10.3
      vertex 39.7909 69.3 12.011
    endloop
  endfacet
  facet normal 0 1 0
    outer loop
      vertex 39.7909 69.3 12.011
      vertex 35 69.3 10.3
      vertex 39.5842 69.3 12.0437
    endloop
  endfacet
  facet normal 0 1 0
    outer loop
      vertex 38.1729 69.3 14.8135
      vertex 35 69.3 10.3
      vertex 35 69.3 36
    endloop
  endfacet
  facet normal 0 1 0
    outer loop
      vertex 38.0437 69.3 13.5842
      vertex 35 69.3 10.3
      vertex 38.011 69.3 13.7909
    endloop
  endfacet
  facet normal 0 1 0
    outer loop
      vertex 38.0979 69.3 13.382
      vertex 35 69.3 10.3
      vertex 38.0437 69.3 13.5842
    endloop
  endfacet
  facet normal 0 1 0
    outer loop
      vertex 38.1729 69.3 13.1865
      vertex 35 69.3 10.3
      vertex 38.0979 69.3 13.382
    endloop
  endfacet
  facet normal 0 1 0
    outer loop
      vertex 38.268 69.3 13
      vertex 35 69.3 10.3
      vertex 38.1729 69.3 13.1865
    endloop
  endfacet
  facet normal 0 1 0
    outer loop
      vertex 38.382 69.3 12.8244
      vertex 35 69.3 10.3
      vertex 38.268 69.3 13
    endloop
  endfacet
  facet normal 0 1 0
    outer loop
      vertex 38.5137 69.3 12.6617
      vertex 35 69.3 10.3
      vertex 38.382 69.3 12.8244
    endloop
  endfacet
  facet normal 0 1 0
    outer loop
      vertex 38.6617 69.3 12.5137
      vertex 35 69.3 10.3
      vertex 38.5137 69.3 12.6617
    endloop
  endfacet
  facet normal 0 1 0
    outer loop
      vertex 38.8244 69.3 12.382
      vertex 35 69.3 10.3
      vertex 38.6617 69.3 12.5137
    endloop
  endfacet
  facet normal 0 1 0
    outer loop
      vertex 39 69.3 12.268
      vertex 35 69.3 10.3
      vertex 38.8244 69.3 12.382
    endloop
  endfacet
  facet normal 0 1 0
    outer loop
      vertex 39.1865 69.3 12.1729
      vertex 35 69.3 10.3
      vertex 39 69.3 12.268
    endloop
  endfacet
  facet normal 0 1 0
    outer loop
      vertex 39.382 69.3 12.0979
      vertex 35 69.3 10.3
      vertex 39.1865 69.3 12.1729
    endloop
  endfacet
  facet normal 0 1 0
    outer loop
      vertex 39.5842 69.3 12.0437
      vertex 35 69.3 10.3
      vertex 39.382 69.3 12.0979
    endloop
  endfacet
  facet normal 0 -1 0
    outer loop
      vertex 35.6 58.3 28.7
      vertex 45 58.3 36
      vertex 35.6 58.3 36
    endloop
  endfacet
  facet normal 0 -1 -0
    outer loop
      vertex 45 58.3 36
      vertex 35.6 58.3 28.7
      vertex 45 58.3 28.7
    endloop
  endfacet
  facet normal 1 -0 0
    outer loop
      vertex 45 53.7 31.7
      vertex 45 54 28.7
      vertex 45 54 31.7
    endloop
  endfacet
  facet normal 1 0 0
    outer loop
      vertex 45 54 28.7
      vertex 45 53.7 31.7
      vertex 45 53.7 28.7
    endloop
  endfacet
  facet normal 1 -0 0
    outer loop
      vertex 45 53.7 10.3
      vertex 45 54 7.3
      vertex 45 54 10.3
    endloop
  endfacet
  facet normal 1 0 0
    outer loop
      vertex 45 54 7.3
      vertex 45 53.7 10.3
      vertex 45 53.7 7.3
    endloop
  endfacet
  facet normal 0 0 1
    outer loop
      vertex 45 54 31.7
      vertex 35 54 31.7
      vertex 45 53.7 31.7
    endloop
  endfacet
  facet normal -0 0 1
    outer loop
      vertex 45 53.7 31.7
      vertex 47.7 51.3 31.7
      vertex 47.7 53.7 31.7
    endloop
  endfacet
  facet normal 0 0 1
    outer loop
      vertex 35 53.7 31.7
      vertex 45 53.7 31.7
      vertex 35 54 31.7
    endloop
  endfacet
  facet normal 0 0 1
    outer loop
      vertex 45 53.7 31.7
      vertex 35 53.7 31.7
      vertex 47.7 51.3 31.7
    endloop
  endfacet
  facet normal 0 0 1
    outer loop
      vertex -9.7 51.3 31.7
      vertex 35 53.7 31.7
      vertex -9.7 53.7 31.7
    endloop
  endfacet
  facet normal 0 0 1
    outer loop
      vertex 35 53.7 31.7
      vertex -9.7 51.3 31.7
      vertex 47.7 51.3 31.7
    endloop
  endfacet
  facet normal 0 0 -1
    outer loop
      vertex 47.7 51.3 7.3
      vertex 45 53.7 7.3
      vertex 47.7 53.7 7.3
    endloop
  endfacet
  facet normal 0 0 -1
    outer loop
      vertex 45 53.7 7.3
      vertex 35 53.7 7.3
      vertex 45 54 7.3
    endloop
  endfacet
  facet normal 0 0 -1
    outer loop
      vertex 47.7 51.3 7.3
      vertex 35 53.7 7.3
      vertex 45 53.7 7.3
    endloop
  endfacet
  facet normal 0 0 -1
    outer loop
      vertex -9.7 51.3 7.3
      vertex 35 53.7 7.3
      vertex 47.7 51.3 7.3
    endloop
  endfacet
  facet normal -0 0 -1
    outer loop
      vertex 35 53.7 7.3
      vertex -9.7 51.3 7.3
      vertex -9.7 53.7 7.3
    endloop
  endfacet
  facet normal -0 0 -1
    outer loop
      vertex 45 54 7.3
      vertex 35 53.7 7.3
      vertex 35 54 7.3
    endloop
  endfacet
  facet normal -1 0 0
    outer loop
      vertex 35 53.7 28.7
      vertex 35 54 31.7
      vertex 35 54 28.7
    endloop
  endfacet
  facet normal -1 -0 0
    outer loop
      vertex 35 54 31.7
      vertex 35 53.7 28.7
      vertex 35 53.7 31.7
    endloop
  endfacet
  facet normal -1 0 0
    outer loop
      vertex 35 53.7 7.3
      vertex 35 54 10.3
      vertex 35 54 7.3
    endloop
  endfacet
  facet normal -1 -0 0
    outer loop
      vertex 35 54 10.3
      vertex 35 53.7 7.3
      vertex 35 53.7 10.3
    endloop
  endfacet
  facet normal 0 1 -0
    outer loop
      vertex 45 54 28.7
      vertex 35 54 31.7
      vertex 45 54 31.7
    endloop
  endfacet
  facet normal 0 1 0
    outer loop
      vertex 35 54 31.7
      vertex 45 54 28.7
      vertex 35 54 28.7
    endloop
  endfacet
  facet normal 0 1 -0
    outer loop
      vertex 45 54 7.3
      vertex 35 54 10.3
      vertex 45 54 10.3
    endloop
  endfacet
  facet normal 0 1 0
    outer loop
      vertex 35 54 10.3
      vertex 45 54 7.3
      vertex 35 54 7.3
    endloop
  endfacet
  facet normal 1 -0 0
    outer loop
      vertex 47.7 51.3 31.7
      vertex 47.7 53.7 28.7
      vertex 47.7 53.7 31.7
    endloop
  endfacet
  facet normal 1 0 0
    outer loop
      vertex 47.7 53.7 28.7
      vertex 47.7 51.3 31.7
      vertex 47.7 53.7 10.3
    endloop
  endfacet
  facet normal 1 0 0
    outer loop
      vertex 47.7 51.3 7.3
      vertex 47.7 53.7 10.3
      vertex 47.7 51.3 31.7
    endloop
  endfacet
  facet normal 1 0 0
    outer loop
      vertex 47.7 53.7 10.3
      vertex 47.7 51.3 7.3
      vertex 47.7 53.7 7.3
    endloop
  endfacet
  facet normal 1 -0 0
    outer loop
      vertex 47.7 53.7 28.7
      vertex 47.7 58.5 10.3
      vertex 47.7 58.5 28.7
    endloop
  endfacet
  facet normal 1 0 0
    outer loop
      vertex 47.7 58.5 10.3
      vertex 47.7 53.7 28.7
      vertex 47.7 53.7 10.3
    endloop
  endfacet
  facet normal -0 0 1
    outer loop
      vertex -9.7 58.5 28.7
      vertex 35 58 28.7
      vertex 35 58.5 28.7
    endloop
  endfacet
  facet normal 0 0 1
    outer loop
      vertex 35 58 28.7
      vertex -9.7 58.5 28.7
      vertex 35 54 28.7
    endloop
  endfacet
  facet normal 0 0 1
    outer loop
      vertex -9.7 53.7 28.7
      vertex 35 54 28.7
      vertex -9.7 58.5 28.7
    endloop
  endfacet
  facet normal 0 0 1
    outer loop
      vertex 35 54 28.7
      vertex -9.7 53.7 28.7
      vertex 35 53.7 28.7
    endloop
  endfacet
  facet normal -0 0 1
    outer loop
      vertex 35.6 58.3 28.7
      vertex 45 54 28.7
      vertex 45 58.3 28.7
    endloop
  endfacet
  facet normal 0 0 1
    outer loop
      vertex 35 54 28.7
      vertex 35.6 58.3 28.7
      vertex 35 58 28.7
    endloop
  endfacet
  facet normal 0 0 1
    outer loop
      vertex 35.6 58.3 28.7
      vertex 35 54 28.7
      vertex 45 54 28.7
    endloop
  endfacet
  facet normal 0 0 1
    outer loop
      vertex 45 58.3 28.7
      vertex 47.7 58.5 28.7
      vertex 45 58.5 28.7
    endloop
  endfacet
  facet normal 0 0 1
    outer loop
      vertex 45 54 28.7
      vertex 47.7 58.5 28.7
      vertex 45 58.3 28.7
    endloop
  endfacet
  facet normal 0 0 1
    outer loop
      vertex 47.7 58.5 28.7
      vertex 45 54 28.7
      vertex 47.7 53.7 28.7
    endloop
  endfacet
  facet normal 0 0 1
    outer loop
      vertex 47.7 53.7 28.7
      vertex 45 54 28.7
      vertex 45 53.7 28.7
    endloop
  endfacet
  facet normal -1 0 0
    outer loop
      vertex -9.7 51.3 7.3
      vertex -9.7 53.7 10.3
      vertex -9.7 53.7 7.3
    endloop
  endfacet
  facet normal -1 -0 0
    outer loop
      vertex -9.7 53.7 10.3
      vertex -9.7 51.3 7.3
      vertex -9.7 53.7 28.7
    endloop
  endfacet
  facet normal -1 0 0
    outer loop
      vertex -9.7 51.3 31.7
      vertex -9.7 53.7 28.7
      vertex -9.7 51.3 7.3
    endloop
  endfacet
  facet normal -1 0 0
    outer loop
      vertex -9.7 53.7 28.7
      vertex -9.7 51.3 31.7
      vertex -9.7 53.7 31.7
    endloop
  endfacet
  facet normal -1 0 0
    outer loop
      vertex -9.7 53.7 10.3
      vertex -9.7 58.5 28.7
      vertex -9.7 58.5 10.3
    endloop
  endfacet
  facet normal -1 -0 0
    outer loop
      vertex -9.7 58.5 28.7
      vertex -9.7 53.7 10.3
      vertex -9.7 53.7 28.7
    endloop
  endfacet
  facet normal 0 1 -0
    outer loop
      vertex 35 58.5 10.3
      vertex -9.7 58.5 28.7
      vertex 35 58.5 28.7
    endloop
  endfacet
  facet normal 0 1 0
    outer loop
      vertex -9.7 58.5 28.7
      vertex 35 58.5 10.3
      vertex -9.7 58.5 10.3
    endloop
  endfacet
  facet normal 0 1 -0
    outer loop
      vertex 47.7 58.5 10.3
      vertex 45 58.5 28.7
      vertex 47.7 58.5 28.7
    endloop
  endfacet
  facet normal 0 1 0
    outer loop
      vertex 45 58.5 28.7
      vertex 47.7 58.5 10.3
      vertex 45 58.5 10.3
    endloop
  endfacet
  facet normal 0 1 -0
    outer loop
      vertex 35 53.7 28.7
      vertex -9.7 53.7 31.7
      vertex 35 53.7 31.7
    endloop
  endfacet
  facet normal 0 1 0
    outer loop
      vertex -9.7 53.7 31.7
      vertex 35 53.7 28.7
      vertex -9.7 53.7 28.7
    endloop
  endfacet
  facet normal 0 1 -0
    outer loop
      vertex 47.7 53.7 28.7
      vertex 45 53.7 31.7
      vertex 47.7 53.7 31.7
    endloop
  endfacet
  facet normal 0 1 0
    outer loop
      vertex 45 53.7 31.7
      vertex 47.7 53.7 28.7
      vertex 45 53.7 28.7
    endloop
  endfacet
  facet normal 0 1 -0
    outer loop
      vertex 47.7 53.7 7.3
      vertex 45 53.7 10.3
      vertex 47.7 53.7 10.3
    endloop
  endfacet
  facet normal 0 1 0
    outer loop
      vertex 45 53.7 10.3
      vertex 47.7 53.7 7.3
      vertex 45 53.7 7.3
    endloop
  endfacet
  facet normal 0 1 -0
    outer loop
      vertex 35 53.7 7.3
      vertex -9.7 53.7 10.3
      vertex 35 53.7 10.3
    endloop
  endfacet
  facet normal 0 1 0
    outer loop
      vertex -9.7 53.7 10.3
      vertex 35 53.7 7.3
      vertex -9.7 53.7 7.3
    endloop
  endfacet
  facet normal 0 -1 0
    outer loop
      vertex -9.7 51.3 7.3
      vertex 47.7 51.3 31.7
      vertex -9.7 51.3 31.7
    endloop
  endfacet
  facet normal 0 -1 -0
    outer loop
      vertex 47.7 51.3 31.7
      vertex -9.7 51.3 7.3
      vertex 47.7 51.3 7.3
    endloop
  endfacet
  facet normal -0.447214 0.894427 0
    outer loop
      vertex 44 62.5 36
      vertex 35.6 58.3 28.7
      vertex 35.6 58.3 36
    endloop
  endfacet
  facet normal -0.447214 0.894427 0
    outer loop
      vertex 44 62.5 10.3
      vertex 35.6 58.3 28.7
      vertex 44 62.5 36
    endloop
  endfacet
  facet normal -0.447214 0.894427 1.72698e-16
    outer loop
      vertex 35 58 10.3
      vertex 35.6 58.3 28.7
      vertex 44 62.5 10.3
    endloop
  endfacet
  facet normal -0.447214 0.894427 0
    outer loop
      vertex 35.6 58.3 28.7
      vertex 35 58 10.3
      vertex 35 58 28.7
    endloop
  endfacet
  facet normal -0.447214 -0.894427 0
    outer loop
      vertex 35 67 10.3
      vertex 44 62.5 36
      vertex 35 67 36
    endloop
  endfacet
  facet normal -0.447214 -0.894427 -0
    outer loop
      vertex 44 62.5 36
      vertex 35 67 10.3
      vertex 44 62.5 10.3
    endloop
  endfacet
endsolid OpenSCAD_Model
