solid OpenSCAD_Model
  facet normal 1 -0 0
    outer loop
      vertex -35 51 36
      vertex -35 69 8
      vertex -35 69 36
    endloop
  endfacet
  facet normal 1 0 0
    outer loop
      vertex -35 69 8
      vertex -35 51 36
      vertex -35 51 8
    endloop
  endfacet
  facet normal 0 0 1
    outer loop
      vertex -35 69 36
      vertex -36 66 36
      vertex -35 51 36
    endloop
  endfacet
  facet normal -0 0 1
    outer loop
      vertex -45 69 36
      vertex -36 66 36
      vertex -35 69 36
    endloop
  endfacet
  facet normal 0 0 1
    outer loop
      vertex -36 66 36
      vertex -45 69 36
      vertex -42 60 36
    endloop
  endfacet
  facet normal -0 0 1
    outer loop
      vertex -36 54 36
      vertex -35 51 36
      vertex -36 66 36
    endloop
  endfacet
  facet normal 0 0 1
    outer loop
      vertex -45 51 36
      vertex -36 54 36
      vertex -42 60 36
    endloop
  endfacet
  facet normal 0 0 1
    outer loop
      vertex -36 54 36
      vertex -45 51 36
      vertex -35 51 36
    endloop
  endfacet
  facet normal 0 0 1
    outer loop
      vertex -45 51 36
      vertex -42 60 36
      vertex -45 69 36
    endloop
  endfacet
  facet normal 0 0 -1
    outer loop
      vertex -35 51 8
      vertex -36 54 8
      vertex -35 69 8
    endloop
  endfacet
  facet normal 0 0 -1
    outer loop
      vertex -45 51 8
      vertex -36 54 8
      vertex -35 51 8
    endloop
  endfacet
  facet normal -0 0 -1
    outer loop
      vertex -36 54 8
      vertex -45 51 8
      vertex -42 60 8
    endloop
  endfacet
  facet normal 0 0 -1
    outer loop
      vertex -36 66 8
      vertex -35 69 8
      vertex -36 54 8
    endloop
  endfacet
  facet normal 0 0 -1
    outer loop
      vertex -45 69 8
      vertex -36 66 8
      vertex -42 60 8
    endloop
  endfacet
  facet normal 0 0 -1
    outer loop
      vertex -36 66 8
      vertex -45 69 8
      vertex -35 69 8
    endloop
  endfacet
  facet normal 0 0 -1
    outer loop
      vertex -45 69 8
      vertex -42 60 8
      vertex -45 51 8
    endloop
  endfacet
  facet normal -1 0 0
    outer loop
      vertex -45 51 8
      vertex -45 69 36
      vertex -45 69 8
    endloop
  endfacet
  facet normal -1 -0 0
    outer loop
      vertex -45 69 36
      vertex -45 51 8
      vertex -45 51 36
    endloop
  endfacet
  facet normal 0 1 -0
    outer loop
      vertex -35 69 8
      vertex -45 69 36
      vertex -35 69 36
    endloop
  endfacet
  facet normal 0 1 0
    outer loop
      vertex -45 69 36
      vertex -35 69 8
      vertex -45 69 8
    endloop
  endfacet
  facet normal 0 -1 0
    outer loop
      vertex -45 51 36
      vertex -44 51 28.8
      vertex -35 51 36
    endloop
  endfacet
  facet normal 0 -1 0
    outer loop
      vertex -45 51 36
      vertex -44 51 23.2
      vertex -44 51 28.8
    endloop
  endfacet
  facet normal 0 -1 -0
    outer loop
      vertex -44 51 23.2
      vertex -45 51 8
      vertex -36 51 23.2
    endloop
  endfacet
  facet normal 0 -1 0
    outer loop
      vertex -45 51 8
      vertex -44 51 23.2
      vertex -45 51 36
    endloop
  endfacet
  facet normal 0 -1 0
    outer loop
      vertex -36 51 28.8
      vertex -35 51 36
      vertex -44 51 28.8
    endloop
  endfacet
  facet normal 0 -1 0
    outer loop
      vertex -36 51 23.2
      vertex -35 51 36
      vertex -36 51 28.8
    endloop
  endfacet
  facet normal 0 -1 0
    outer loop
      vertex -36 51 23.2
      vertex -35 51 8
      vertex -35 51 36
    endloop
  endfacet
  facet normal 0 -1 0
    outer loop
      vertex -35 51 8
      vertex -36 51 23.2
      vertex -45 51 8
    endloop
  endfacet
  facet normal 1 -0 0
    outer loop
      vertex -36 42 28.8
      vertex -36 51 23.2
      vertex -36 51 28.8
    endloop
  endfacet
  facet normal 1 0 0
    outer loop
      vertex -36 51 23.2
      vertex -36 42 28.8
      vertex -36 42 23.2
    endloop
  endfacet
  facet normal -0 0 1
    outer loop
      vertex -44 51 28.8
      vertex -36 42 28.8
      vertex -36 51 28.8
    endloop
  endfacet
  facet normal 0 0 1
    outer loop
      vertex -36 42 28.8
      vertex -44 51 28.8
      vertex -44 42 28.8
    endloop
  endfacet
  facet normal 0 0 -1
    outer loop
      vertex -44 42 23.2
      vertex -36 51 23.2
      vertex -36 42 23.2
    endloop
  endfacet
  facet normal -0 0 -1
    outer loop
      vertex -36 51 23.2
      vertex -44 42 23.2
      vertex -44 51 23.2
    endloop
  endfacet
  facet normal -1 0 0
    outer loop
      vertex -44 42 23.2
      vertex -44 51 28.8
      vertex -44 51 23.2
    endloop
  endfacet
  facet normal -1 -0 0
    outer loop
      vertex -44 51 28.8
      vertex -44 42 23.2
      vertex -44 42 28.8
    endloop
  endfacet
  facet normal 0 -1 0
    outer loop
      vertex -44 42 28.8
      vertex -40 42 28
      vertex -36 42 28.8
    endloop
  endfacet
  facet normal 0 -1 0
    outer loop
      vertex -44 42 28.8
      vertex -40.2091 42 27.989
      vertex -40 42 28
    endloop
  endfacet
  facet normal 0 -1 0
    outer loop
      vertex -44 42 28.8
      vertex -40.4158 42 27.9563
      vertex -40.2091 42 27.989
    endloop
  endfacet
  facet normal 0 -1 0
    outer loop
      vertex -44 42 28.8
      vertex -40.618 42 27.9021
      vertex -40.4158 42 27.9563
    endloop
  endfacet
  facet normal 0 -1 0
    outer loop
      vertex -44 42 28.8
      vertex -40.8135 42 27.8271
      vertex -40.618 42 27.9021
    endloop
  endfacet
  facet normal 0 -1 0
    outer loop
      vertex -44 42 28.8
      vertex -41 42 27.732
      vertex -40.8135 42 27.8271
    endloop
  endfacet
  facet normal 0 -1 0
    outer loop
      vertex -44 42 28.8
      vertex -41.1756 42 27.618
      vertex -41 42 27.732
    endloop
  endfacet
  facet normal 0 -1 0
    outer loop
      vertex -44 42 28.8
      vertex -41.3383 42 27.4863
      vertex -41.1756 42 27.618
    endloop
  endfacet
  facet normal 0 -1 0
    outer loop
      vertex -44 42 28.8
      vertex -41.4863 42 27.3383
      vertex -41.3383 42 27.4863
    endloop
  endfacet
  facet normal 0 -1 0
    outer loop
      vertex -44 42 28.8
      vertex -41.618 42 27.1756
      vertex -41.4863 42 27.3383
    endloop
  endfacet
  facet normal 0 -1 0
    outer loop
      vertex -44 42 28.8
      vertex -41.732 42 27
      vertex -41.618 42 27.1756
    endloop
  endfacet
  facet normal 0 -1 0
    outer loop
      vertex -44 42 28.8
      vertex -41.8271 42 26.8135
      vertex -41.732 42 27
    endloop
  endfacet
  facet normal 0 -1 0
    outer loop
      vertex -44 42 28.8
      vertex -41.9021 42 26.618
      vertex -41.8271 42 26.8135
    endloop
  endfacet
  facet normal 0 -1 0
    outer loop
      vertex -44 42 28.8
      vertex -41.9563 42 26.4158
      vertex -41.9021 42 26.618
    endloop
  endfacet
  facet normal 0 -1 0
    outer loop
      vertex -44 42 28.8
      vertex -41.989 42 26.2091
      vertex -41.9563 42 26.4158
    endloop
  endfacet
  facet normal 0 -1 0
    outer loop
      vertex -44 42 28.8
      vertex -42 42 26
      vertex -41.989 42 26.2091
    endloop
  endfacet
  facet normal 0 -1 0
    outer loop
      vertex -44 42 23.2
      vertex -42 42 26
      vertex -44 42 28.8
    endloop
  endfacet
  facet normal 0 -1 -0
    outer loop
      vertex -42 42 26
      vertex -44 42 23.2
      vertex -41.989 42 25.7909
    endloop
  endfacet
  facet normal 0 -1 -0
    outer loop
      vertex -41.989 42 25.7909
      vertex -44 42 23.2
      vertex -41.9563 42 25.5842
    endloop
  endfacet
  facet normal 0 -1 -0
    outer loop
      vertex -41.9563 42 25.5842
      vertex -44 42 23.2
      vertex -41.9021 42 25.382
    endloop
  endfacet
  facet normal 0 -1 -0
    outer loop
      vertex -41.9021 42 25.382
      vertex -44 42 23.2
      vertex -41.8271 42 25.1865
    endloop
  endfacet
  facet normal 0 -1 -0
    outer loop
      vertex -40.2091 42 24.011
      vertex -44 42 23.2
      vertex -40 42 24
    endloop
  endfacet
  facet normal 0 -1 -0
    outer loop
      vertex -40.4158 42 24.0437
      vertex -44 42 23.2
      vertex -40.2091 42 24.011
    endloop
  endfacet
  facet normal 0 -1 -0
    outer loop
      vertex -40.618 42 24.0979
      vertex -44 42 23.2
      vertex -40.4158 42 24.0437
    endloop
  endfacet
  facet normal 0 -1 -0
    outer loop
      vertex -40.8135 42 24.1729
      vertex -44 42 23.2
      vertex -40.618 42 24.0979
    endloop
  endfacet
  facet normal 0 -1 -0
    outer loop
      vertex -41 42 24.268
      vertex -44 42 23.2
      vertex -40.8135 42 24.1729
    endloop
  endfacet
  facet normal 0 -1 -0
    outer loop
      vertex -41.1756 42 24.382
      vertex -44 42 23.2
      vertex -41 42 24.268
    endloop
  endfacet
  facet normal 0 -1 -0
    outer loop
      vertex -41.3383 42 24.5137
      vertex -44 42 23.2
      vertex -41.1756 42 24.382
    endloop
  endfacet
  facet normal 0 -1 -0
    outer loop
      vertex -41.4863 42 24.6617
      vertex -44 42 23.2
      vertex -41.3383 42 24.5137
    endloop
  endfacet
  facet normal 0 -1 -0
    outer loop
      vertex -41.618 42 24.8244
      vertex -44 42 23.2
      vertex -41.4863 42 24.6617
    endloop
  endfacet
  facet normal 0 -1 -0
    outer loop
      vertex -41.732 42 25
      vertex -44 42 23.2
      vertex -41.618 42 24.8244
    endloop
  endfacet
  facet normal 0 -1 -0
    outer loop
      vertex -41.8271 42 25.1865
      vertex -44 42 23.2
      vertex -41.732 42 25
    endloop
  endfacet
  facet normal 0 -1 0
    outer loop
      vertex -39.7909 42 27.989
      vertex -36 42 28.8
      vertex -40 42 28
    endloop
  endfacet
  facet normal 0 -1 0
    outer loop
      vertex -39.5842 42 27.9563
      vertex -36 42 28.8
      vertex -39.7909 42 27.989
    endloop
  endfacet
  facet normal 0 -1 0
    outer loop
      vertex -39.382 42 27.9021
      vertex -36 42 28.8
      vertex -39.5842 42 27.9563
    endloop
  endfacet
  facet normal 0 -1 0
    outer loop
      vertex -39.1865 42 27.8271
      vertex -36 42 28.8
      vertex -39.382 42 27.9021
    endloop
  endfacet
  facet normal 0 -1 0
    outer loop
      vertex -39 42 27.732
      vertex -36 42 28.8
      vertex -39.1865 42 27.8271
    endloop
  endfacet
  facet normal 0 -1 0
    outer loop
      vertex -38.8244 42 27.618
      vertex -36 42 28.8
      vertex -39 42 27.732
    endloop
  endfacet
  facet normal 0 -1 0
    outer loop
      vertex -38.6617 42 27.4863
      vertex -36 42 28.8
      vertex -38.8244 42 27.618
    endloop
  endfacet
  facet normal 0 -1 0
    outer loop
      vertex -38.5137 42 27.3383
      vertex -36 42 28.8
      vertex -38.6617 42 27.4863
    endloop
  endfacet
  facet normal 0 -1 0
    outer loop
      vertex -38.382 42 27.1756
      vertex -36 42 28.8
      vertex -38.5137 42 27.3383
    endloop
  endfacet
  facet normal 0 -1 0
    outer loop
      vertex -38.268 42 27
      vertex -36 42 28.8
      vertex -38.382 42 27.1756
    endloop
  endfacet
  facet normal 0 -1 0
    outer loop
      vertex -38.1729 42 26.8135
      vertex -36 42 28.8
      vertex -38.268 42 27
    endloop
  endfacet
  facet normal 0 -1 0
    outer loop
      vertex -38.0979 42 26.618
      vertex -36 42 28.8
      vertex -38.1729 42 26.8135
    endloop
  endfacet
  facet normal 0 -1 0
    outer loop
      vertex -38.0437 42 26.4158
      vertex -36 42 28.8
      vertex -38.0979 42 26.618
    endloop
  endfacet
  facet normal 0 -1 0
    outer loop
      vertex -38.011 42 26.2091
      vertex -36 42 28.8
      vertex -38.0437 42 26.4158
    endloop
  endfacet
  facet normal 0 -1 0
    outer loop
      vertex -38 42 26
      vertex -36 42 28.8
      vertex -38.011 42 26.2091
    endloop
  endfacet
  facet normal 0 -1 0
    outer loop
      vertex -36 42 23.2
      vertex -38 42 26
      vertex -38.011 42 25.7909
    endloop
  endfacet
  facet normal 0 -1 0
    outer loop
      vertex -36 42 23.2
      vertex -38.011 42 25.7909
      vertex -38.0437 42 25.5842
    endloop
  endfacet
  facet normal 0 -1 0
    outer loop
      vertex -36 42 23.2
      vertex -38.0437 42 25.5842
      vertex -38.0979 42 25.382
    endloop
  endfacet
  facet normal 0 -1 0
    outer loop
      vertex -36 42 23.2
      vertex -38.0979 42 25.382
      vertex -38.1729 42 25.1865
    endloop
  endfacet
  facet normal 0 -1 0
    outer loop
      vertex -36 42 23.2
      vertex -38.1729 42 25.1865
      vertex -38.268 42 25
    endloop
  endfacet
  facet normal 0 -1 0
    outer loop
      vertex -36 42 23.2
      vertex -40 42 24
      vertex -44 42 23.2
    endloop
  endfacet
  facet normal 0 -1 0
    outer loop
      vertex -40 42 24
      vertex -36 42 23.2
      vertex -39.7909 42 24.011
    endloop
  endfacet
  facet normal 0 -1 0
    outer loop
      vertex -38 42 26
      vertex -36 42 23.2
      vertex -36 42 28.8
    endloop
  endfacet
  facet normal 0 -1 0
    outer loop
      vertex -38.382 42 24.8244
      vertex -36 42 23.2
      vertex -38.268 42 25
    endloop
  endfacet
  facet normal 0 -1 0
    outer loop
      vertex -38.5137 42 24.6617
      vertex -36 42 23.2
      vertex -38.382 42 24.8244
    endloop
  endfacet
  facet normal 0 -1 0
    outer loop
      vertex -38.6617 42 24.5137
      vertex -36 42 23.2
      vertex -38.5137 42 24.6617
    endloop
  endfacet
  facet normal 0 -1 0
    outer loop
      vertex -38.8244 42 24.382
      vertex -36 42 23.2
      vertex -38.6617 42 24.5137
    endloop
  endfacet
  facet normal 0 -1 0
    outer loop
      vertex -39 42 24.268
      vertex -36 42 23.2
      vertex -38.8244 42 24.382
    endloop
  endfacet
  facet normal 0 -1 0
    outer loop
      vertex -39.1865 42 24.1729
      vertex -36 42 23.2
      vertex -39 42 24.268
    endloop
  endfacet
  facet normal 0 -1 0
    outer loop
      vertex -39.382 42 24.0979
      vertex -36 42 23.2
      vertex -39.1865 42 24.1729
    endloop
  endfacet
  facet normal 0 -1 0
    outer loop
      vertex -39.5842 42 24.0437
      vertex -36 42 23.2
      vertex -39.382 42 24.0979
    endloop
  endfacet
  facet normal 0 -1 0
    outer loop
      vertex -39.7909 42 24.011
      vertex -36 42 23.2
      vertex -39.5842 42 24.0437
    endloop
  endfacet
  facet normal 0.707107 0.707107 0
    outer loop
      vertex -36 54 36
      vertex -42 60 8
      vertex -42 60 36
    endloop
  endfacet
  facet normal 0.707107 0.707107 0
    outer loop
      vertex -42 60 8
      vertex -36 54 36
      vertex -36 54 8
    endloop
  endfacet
  facet normal -1 0 0
    outer loop
      vertex -36 54 8
      vertex -36 66 36
      vertex -36 66 8
    endloop
  endfacet
  facet normal -1 -0 0
    outer loop
      vertex -36 66 36
      vertex -36 54 8
      vertex -36 54 36
    endloop
  endfacet
  facet normal 0.707107 -0.707107 0
    outer loop
      vertex -42 60 36
      vertex -36 66 8
      vertex -36 66 36
    endloop
  endfacet
  facet normal 0.707107 -0.707107 0
    outer loop
      vertex -36 66 8
      vertex -42 60 36
      vertex -42 60 8
    endloop
  endfacet
  facet normal 0.987716 0 -0.156257
    outer loop
      vertex -38.011 41.5 25.7909
      vertex -38.0437 42 25.5842
      vertex -38.011 42 25.7909
    endloop
  endfacet
  facet normal 0.987716 0 -0.156257
    outer loop
      vertex -38.0437 42 25.5842
      vertex -38.011 41.5 25.7909
      vertex -38.0437 41.5 25.5842
    endloop
  endfacet
  facet normal 0.987716 -0 0.156257
    outer loop
      vertex -38.0437 41.5 26.4158
      vertex -38.011 42 26.2091
      vertex -38.0437 42 26.4158
    endloop
  endfacet
  facet normal 0.987716 0 0.156257
    outer loop
      vertex -38.011 42 26.2091
      vertex -38.0437 41.5 26.4158
      vertex -38.011 41.5 26.2091
    endloop
  endfacet
  facet normal 0.998619 -0 0.0525338
    outer loop
      vertex -38.011 41.5 26.2091
      vertex -38 42 26
      vertex -38.011 42 26.2091
    endloop
  endfacet
  facet normal 0.998619 0 0.0525338
    outer loop
      vertex -38 42 26
      vertex -38.011 41.5 26.2091
      vertex -38 41.5 26
    endloop
  endfacet
  facet normal 0.965901 -0 0.258911
    outer loop
      vertex -38.0979 41.5 26.618
      vertex -38.0437 42 26.4158
      vertex -38.0979 42 26.618
    endloop
  endfacet
  facet normal 0.965901 0 0.258911
    outer loop
      vertex -38.0437 42 26.4158
      vertex -38.0979 41.5 26.618
      vertex -38.0437 41.5 26.4158
    endloop
  endfacet
  facet normal 0.838749 -0 0.544518
    outer loop
      vertex -38.382 41.5 27.1756
      vertex -38.268 42 27
      vertex -38.382 42 27.1756
    endloop
  endfacet
  facet normal 0.838749 0 0.544518
    outer loop
      vertex -38.268 42 27
      vertex -38.382 41.5 27.1756
      vertex -38.268 41.5 27
    endloop
  endfacet
  facet normal -0.0525338 0 0.998619
    outer loop
      vertex -40.2091 42 27.989
      vertex -40 41.5 28
      vertex -40 42 28
    endloop
  endfacet
  facet normal -0.0525338 0 0.998619
    outer loop
      vertex -40 41.5 28
      vertex -40.2091 42 27.989
      vertex -40.2091 41.5 27.989
    endloop
  endfacet
  facet normal 0.998619 0 -0.0525338
    outer loop
      vertex -38 41.5 26
      vertex -38.011 42 25.7909
      vertex -38 42 26
    endloop
  endfacet
  facet normal 0.998619 0 -0.0525338
    outer loop
      vertex -38.011 42 25.7909
      vertex -38 41.5 26
      vertex -38.011 41.5 25.7909
    endloop
  endfacet
  facet normal 0.777267 -0 0.629171
    outer loop
      vertex -38.5137 41.5 27.3383
      vertex -38.382 42 27.1756
      vertex -38.5137 42 27.3383
    endloop
  endfacet
  facet normal 0.777267 0 0.629171
    outer loop
      vertex -38.382 42 27.1756
      vertex -38.5137 41.5 27.3383
      vertex -38.382 41.5 27.1756
    endloop
  endfacet
  facet normal -0.987716 0 -0.156257
    outer loop
      vertex -41.9563 41.5 25.5842
      vertex -41.989 42 25.7909
      vertex -41.9563 42 25.5842
    endloop
  endfacet
  facet normal -0.987716 -0 -0.156257
    outer loop
      vertex -41.989 42 25.7909
      vertex -41.9563 41.5 25.5842
      vertex -41.989 41.5 25.7909
    endloop
  endfacet
  facet normal -0.890864 0 0.454269
    outer loop
      vertex -41.8271 41.5 26.8135
      vertex -41.732 42 27
      vertex -41.8271 42 26.8135
    endloop
  endfacet
  facet normal -0.890864 0 0.454269
    outer loop
      vertex -41.732 42 27
      vertex -41.8271 41.5 26.8135
      vertex -41.732 41.5 27
    endloop
  endfacet
  facet normal 0.258911 0 0.965901
    outer loop
      vertex -39.5842 42 27.9563
      vertex -39.382 41.5 27.9021
      vertex -39.382 42 27.9021
    endloop
  endfacet
  facet normal 0.258911 0 0.965901
    outer loop
      vertex -39.382 41.5 27.9021
      vertex -39.5842 42 27.9563
      vertex -39.5842 41.5 27.9563
    endloop
  endfacet
  facet normal 0.358179 0 0.933653
    outer loop
      vertex -39.382 42 27.9021
      vertex -39.1865 41.5 27.8271
      vertex -39.1865 42 27.8271
    endloop
  endfacet
  facet normal 0.358179 0 0.933653
    outer loop
      vertex -39.1865 41.5 27.8271
      vertex -39.382 42 27.9021
      vertex -39.382 41.5 27.9021
    endloop
  endfacet
  facet normal -0.965901 0 -0.258911
    outer loop
      vertex -41.9021 41.5 25.382
      vertex -41.9563 42 25.5842
      vertex -41.9021 42 25.382
    endloop
  endfacet
  facet normal -0.965901 -0 -0.258911
    outer loop
      vertex -41.9563 42 25.5842
      vertex -41.9021 41.5 25.382
      vertex -41.9563 41.5 25.5842
    endloop
  endfacet
  facet normal 0.629171 0 0.777267
    outer loop
      vertex -38.8244 42 27.618
      vertex -38.6617 41.5 27.4863
      vertex -38.6617 42 27.4863
    endloop
  endfacet
  facet normal 0.629171 0 0.777267
    outer loop
      vertex -38.6617 41.5 27.4863
      vertex -38.8244 42 27.618
      vertex -38.8244 41.5 27.618
    endloop
  endfacet
  facet normal 0.358179 0 -0.933653
    outer loop
      vertex -39.382 41.5 24.0979
      vertex -39.1865 42 24.1729
      vertex -39.1865 41.5 24.1729
    endloop
  endfacet
  facet normal 0.358179 0 -0.933653
    outer loop
      vertex -39.1865 42 24.1729
      vertex -39.382 41.5 24.0979
      vertex -39.382 42 24.0979
    endloop
  endfacet
  facet normal -0.777267 0 0.629171
    outer loop
      vertex -41.618 41.5 27.1756
      vertex -41.4863 42 27.3383
      vertex -41.618 42 27.1756
    endloop
  endfacet
  facet normal -0.777267 0 0.629171
    outer loop
      vertex -41.4863 42 27.3383
      vertex -41.618 41.5 27.1756
      vertex -41.4863 41.5 27.3383
    endloop
  endfacet
  facet normal -0.258911 0 0.965901
    outer loop
      vertex -40.618 42 27.9021
      vertex -40.4158 41.5 27.9563
      vertex -40.4158 42 27.9563
    endloop
  endfacet
  facet normal -0.258911 0 0.965901
    outer loop
      vertex -40.4158 41.5 27.9563
      vertex -40.618 42 27.9021
      vertex -40.618 41.5 27.9021
    endloop
  endfacet
  facet normal -0.707107 0 0.707107
    outer loop
      vertex -41.4863 41.5 27.3383
      vertex -41.3383 42 27.4863
      vertex -41.4863 42 27.3383
    endloop
  endfacet
  facet normal -0.707107 0 0.707107
    outer loop
      vertex -41.3383 42 27.4863
      vertex -41.4863 41.5 27.3383
      vertex -41.3383 41.5 27.4863
    endloop
  endfacet
  facet normal -0.544518 0 0.838749
    outer loop
      vertex -41.1756 42 27.618
      vertex -41 41.5 27.732
      vertex -41 42 27.732
    endloop
  endfacet
  facet normal -0.544518 0 0.838749
    outer loop
      vertex -41 41.5 27.732
      vertex -41.1756 42 27.618
      vertex -41.1756 41.5 27.618
    endloop
  endfacet
  facet normal 0.965901 0 -0.258911
    outer loop
      vertex -38.0437 41.5 25.5842
      vertex -38.0979 42 25.382
      vertex -38.0437 42 25.5842
    endloop
  endfacet
  facet normal 0.965901 0 -0.258911
    outer loop
      vertex -38.0979 42 25.382
      vertex -38.0437 41.5 25.5842
      vertex -38.0979 41.5 25.382
    endloop
  endfacet
  facet normal 0.0525338 0 -0.998619
    outer loop
      vertex -40 41.5 24
      vertex -39.7909 42 24.011
      vertex -39.7909 41.5 24.011
    endloop
  endfacet
  facet normal 0.0525338 0 -0.998619
    outer loop
      vertex -39.7909 42 24.011
      vertex -40 41.5 24
      vertex -40 42 24
    endloop
  endfacet
  facet normal 0.544518 0 0.838749
    outer loop
      vertex -39 42 27.732
      vertex -38.8244 41.5 27.618
      vertex -38.8244 42 27.618
    endloop
  endfacet
  facet normal 0.544518 0 0.838749
    outer loop
      vertex -38.8244 41.5 27.618
      vertex -39 42 27.732
      vertex -39 41.5 27.732
    endloop
  endfacet
  facet normal -0.838749 0 -0.544518
    outer loop
      vertex -41.618 41.5 24.8244
      vertex -41.732 42 25
      vertex -41.618 42 24.8244
    endloop
  endfacet
  facet normal -0.838749 -0 -0.544518
    outer loop
      vertex -41.732 42 25
      vertex -41.618 41.5 24.8244
      vertex -41.732 41.5 25
    endloop
  endfacet
  facet normal 0.156257 0 -0.987716
    outer loop
      vertex -39.7909 41.5 24.011
      vertex -39.5842 42 24.0437
      vertex -39.5842 41.5 24.0437
    endloop
  endfacet
  facet normal 0.156257 0 -0.987716
    outer loop
      vertex -39.5842 42 24.0437
      vertex -39.7909 41.5 24.011
      vertex -39.7909 42 24.011
    endloop
  endfacet
  facet normal -0.156257 0 -0.987716
    outer loop
      vertex -40.4158 41.5 24.0437
      vertex -40.2091 42 24.011
      vertex -40.2091 41.5 24.011
    endloop
  endfacet
  facet normal -0.156257 0 -0.987716
    outer loop
      vertex -40.2091 42 24.011
      vertex -40.4158 41.5 24.0437
      vertex -40.4158 42 24.0437
    endloop
  endfacet
  facet normal -0.454269 0 -0.890864
    outer loop
      vertex -41 41.5 24.268
      vertex -40.8135 42 24.1729
      vertex -40.8135 41.5 24.1729
    endloop
  endfacet
  facet normal -0.454269 0 -0.890864
    outer loop
      vertex -40.8135 42 24.1729
      vertex -41 41.5 24.268
      vertex -41 42 24.268
    endloop
  endfacet
  facet normal -0.358179 0 0.933653
    outer loop
      vertex -40.8135 42 27.8271
      vertex -40.618 41.5 27.9021
      vertex -40.618 42 27.9021
    endloop
  endfacet
  facet normal -0.358179 0 0.933653
    outer loop
      vertex -40.618 41.5 27.9021
      vertex -40.8135 42 27.8271
      vertex -40.8135 41.5 27.8271
    endloop
  endfacet
  facet normal 0.454269 0 0.890864
    outer loop
      vertex -39.1865 42 27.8271
      vertex -39 41.5 27.732
      vertex -39 42 27.732
    endloop
  endfacet
  facet normal 0.454269 0 0.890864
    outer loop
      vertex -39 41.5 27.732
      vertex -39.1865 42 27.8271
      vertex -39.1865 41.5 27.8271
    endloop
  endfacet
  facet normal 0.890864 0 -0.454269
    outer loop
      vertex -38.1729 41.5 25.1865
      vertex -38.268 42 25
      vertex -38.1729 42 25.1865
    endloop
  endfacet
  facet normal 0.890864 0 -0.454269
    outer loop
      vertex -38.268 42 25
      vertex -38.1729 41.5 25.1865
      vertex -38.268 41.5 25
    endloop
  endfacet
  facet normal 0.707107 -0 0.707107
    outer loop
      vertex -38.6617 41.5 27.4863
      vertex -38.5137 42 27.3383
      vertex -38.6617 42 27.4863
    endloop
  endfacet
  facet normal 0.707107 0 0.707107
    outer loop
      vertex -38.5137 42 27.3383
      vertex -38.6617 41.5 27.4863
      vertex -38.5137 41.5 27.3383
    endloop
  endfacet
  facet normal -0.629171 0 -0.777267
    outer loop
      vertex -41.3383 41.5 24.5137
      vertex -41.1756 42 24.382
      vertex -41.1756 41.5 24.382
    endloop
  endfacet
  facet normal -0.629171 0 -0.777267
    outer loop
      vertex -41.1756 42 24.382
      vertex -41.3383 41.5 24.5137
      vertex -41.3383 42 24.5137
    endloop
  endfacet
  facet normal 0.838749 0 -0.544518
    outer loop
      vertex -38.268 41.5 25
      vertex -38.382 42 24.8244
      vertex -38.268 42 25
    endloop
  endfacet
  facet normal 0.838749 0 -0.544518
    outer loop
      vertex -38.382 42 24.8244
      vertex -38.268 41.5 25
      vertex -38.382 41.5 24.8244
    endloop
  endfacet
  facet normal 0.454269 0 -0.890864
    outer loop
      vertex -39.1865 41.5 24.1729
      vertex -39 42 24.268
      vertex -39 41.5 24.268
    endloop
  endfacet
  facet normal 0.454269 0 -0.890864
    outer loop
      vertex -39 42 24.268
      vertex -39.1865 41.5 24.1729
      vertex -39.1865 42 24.1729
    endloop
  endfacet
  facet normal -0.156257 0 0.987716
    outer loop
      vertex -40.4158 42 27.9563
      vertex -40.2091 41.5 27.989
      vertex -40.2091 42 27.989
    endloop
  endfacet
  facet normal -0.156257 0 0.987716
    outer loop
      vertex -40.2091 41.5 27.989
      vertex -40.4158 42 27.9563
      vertex -40.4158 41.5 27.9563
    endloop
  endfacet
  facet normal 0.933653 -0 0.358179
    outer loop
      vertex -38.1729 41.5 26.8135
      vertex -38.0979 42 26.618
      vertex -38.1729 42 26.8135
    endloop
  endfacet
  facet normal 0.933653 0 0.358179
    outer loop
      vertex -38.0979 42 26.618
      vertex -38.1729 41.5 26.8135
      vertex -38.0979 41.5 26.618
    endloop
  endfacet
  facet normal 0.777267 0 -0.629171
    outer loop
      vertex -38.382 41.5 24.8244
      vertex -38.5137 42 24.6617
      vertex -38.382 42 24.8244
    endloop
  endfacet
  facet normal 0.777267 0 -0.629171
    outer loop
      vertex -38.5137 42 24.6617
      vertex -38.382 41.5 24.8244
      vertex -38.5137 41.5 24.6617
    endloop
  endfacet
  facet normal -0.933653 0 -0.358179
    outer loop
      vertex -41.8271 41.5 25.1865
      vertex -41.9021 42 25.382
      vertex -41.8271 42 25.1865
    endloop
  endfacet
  facet normal -0.933653 -0 -0.358179
    outer loop
      vertex -41.9021 42 25.382
      vertex -41.8271 41.5 25.1865
      vertex -41.9021 41.5 25.382
    endloop
  endfacet
  facet normal -0.987716 0 0.156257
    outer loop
      vertex -41.989 41.5 26.2091
      vertex -41.9563 42 26.4158
      vertex -41.989 42 26.2091
    endloop
  endfacet
  facet normal -0.987716 0 0.156257
    outer loop
      vertex -41.9563 42 26.4158
      vertex -41.989 41.5 26.2091
      vertex -41.9563 41.5 26.4158
    endloop
  endfacet
  facet normal 0.0525338 0 0.998619
    outer loop
      vertex -40 42 28
      vertex -39.7909 41.5 27.989
      vertex -39.7909 42 27.989
    endloop
  endfacet
  facet normal 0.0525338 0 0.998619
    outer loop
      vertex -39.7909 41.5 27.989
      vertex -40 42 28
      vertex -40 41.5 28
    endloop
  endfacet
  facet normal 0.890864 -0 0.454269
    outer loop
      vertex -38.268 41.5 27
      vertex -38.1729 42 26.8135
      vertex -38.268 42 27
    endloop
  endfacet
  facet normal 0.890864 0 0.454269
    outer loop
      vertex -38.1729 42 26.8135
      vertex -38.268 41.5 27
      vertex -38.1729 41.5 26.8135
    endloop
  endfacet
  facet normal -0.838749 0 0.544518
    outer loop
      vertex -41.732 41.5 27
      vertex -41.618 42 27.1756
      vertex -41.732 42 27
    endloop
  endfacet
  facet normal -0.838749 0 0.544518
    outer loop
      vertex -41.618 42 27.1756
      vertex -41.732 41.5 27
      vertex -41.618 41.5 27.1756
    endloop
  endfacet
  facet normal -0.629171 0 0.777267
    outer loop
      vertex -41.3383 42 27.4863
      vertex -41.1756 41.5 27.618
      vertex -41.1756 42 27.618
    endloop
  endfacet
  facet normal -0.629171 0 0.777267
    outer loop
      vertex -41.1756 41.5 27.618
      vertex -41.3383 42 27.4863
      vertex -41.3383 41.5 27.4863
    endloop
  endfacet
  facet normal -0.933653 0 0.358179
    outer loop
      vertex -41.9021 41.5 26.618
      vertex -41.8271 42 26.8135
      vertex -41.9021 42 26.618
    endloop
  endfacet
  facet normal -0.933653 0 0.358179
    outer loop
      vertex -41.8271 42 26.8135
      vertex -41.9021 41.5 26.618
      vertex -41.8271 41.5 26.8135
    endloop
  endfacet
  facet normal -0.890864 0 -0.454269
    outer loop
      vertex -41.732 41.5 25
      vertex -41.8271 42 25.1865
      vertex -41.732 42 25
    endloop
  endfacet
  facet normal -0.890864 -0 -0.454269
    outer loop
      vertex -41.8271 42 25.1865
      vertex -41.732 41.5 25
      vertex -41.8271 41.5 25.1865
    endloop
  endfacet
  facet normal 0.258911 0 -0.965901
    outer loop
      vertex -39.5842 41.5 24.0437
      vertex -39.382 42 24.0979
      vertex -39.382 41.5 24.0979
    endloop
  endfacet
  facet normal 0.258911 0 -0.965901
    outer loop
      vertex -39.382 42 24.0979
      vertex -39.5842 41.5 24.0437
      vertex -39.5842 42 24.0437
    endloop
  endfacet
  facet normal 0.629171 0 -0.777267
    outer loop
      vertex -38.8244 41.5 24.382
      vertex -38.6617 42 24.5137
      vertex -38.6617 41.5 24.5137
    endloop
  endfacet
  facet normal 0.629171 0 -0.777267
    outer loop
      vertex -38.6617 42 24.5137
      vertex -38.8244 41.5 24.382
      vertex -38.8244 42 24.382
    endloop
  endfacet
  facet normal -0.258911 0 -0.965901
    outer loop
      vertex -40.618 41.5 24.0979
      vertex -40.4158 42 24.0437
      vertex -40.4158 41.5 24.0437
    endloop
  endfacet
  facet normal -0.258911 0 -0.965901
    outer loop
      vertex -40.4158 42 24.0437
      vertex -40.618 41.5 24.0979
      vertex -40.618 42 24.0979
    endloop
  endfacet
  facet normal -0.998619 0 -0.0525338
    outer loop
      vertex -41.989 41.5 25.7909
      vertex -42 42 26
      vertex -41.989 42 25.7909
    endloop
  endfacet
  facet normal -0.998619 -0 -0.0525338
    outer loop
      vertex -42 42 26
      vertex -41.989 41.5 25.7909
      vertex -42 41.5 26
    endloop
  endfacet
  facet normal 0.156257 0 0.987716
    outer loop
      vertex -39.7909 42 27.989
      vertex -39.5842 41.5 27.9563
      vertex -39.5842 42 27.9563
    endloop
  endfacet
  facet normal 0.156257 0 0.987716
    outer loop
      vertex -39.5842 41.5 27.9563
      vertex -39.7909 42 27.989
      vertex -39.7909 41.5 27.989
    endloop
  endfacet
  facet normal -0.777267 0 -0.629171
    outer loop
      vertex -41.4863 41.5 24.6617
      vertex -41.618 42 24.8244
      vertex -41.4863 42 24.6617
    endloop
  endfacet
  facet normal -0.777267 -0 -0.629171
    outer loop
      vertex -41.618 42 24.8244
      vertex -41.4863 41.5 24.6617
      vertex -41.618 41.5 24.8244
    endloop
  endfacet
  facet normal -0.454269 0 0.890864
    outer loop
      vertex -41 42 27.732
      vertex -40.8135 41.5 27.8271
      vertex -40.8135 42 27.8271
    endloop
  endfacet
  facet normal -0.454269 0 0.890864
    outer loop
      vertex -40.8135 41.5 27.8271
      vertex -41 42 27.732
      vertex -41 41.5 27.732
    endloop
  endfacet
  facet normal -0.965901 0 0.258911
    outer loop
      vertex -41.9563 41.5 26.4158
      vertex -41.9021 42 26.618
      vertex -41.9563 42 26.4158
    endloop
  endfacet
  facet normal -0.965901 0 0.258911
    outer loop
      vertex -41.9021 42 26.618
      vertex -41.9563 41.5 26.4158
      vertex -41.9021 41.5 26.618
    endloop
  endfacet
  facet normal -0.707107 0 -0.707107
    outer loop
      vertex -41.3383 41.5 24.5137
      vertex -41.4863 42 24.6617
      vertex -41.3383 42 24.5137
    endloop
  endfacet
  facet normal -0.707107 -0 -0.707107
    outer loop
      vertex -41.4863 42 24.6617
      vertex -41.3383 41.5 24.5137
      vertex -41.4863 41.5 24.6617
    endloop
  endfacet
  facet normal 0.544518 0 -0.838749
    outer loop
      vertex -39 41.5 24.268
      vertex -38.8244 42 24.382
      vertex -38.8244 41.5 24.382
    endloop
  endfacet
  facet normal 0.544518 0 -0.838749
    outer loop
      vertex -38.8244 42 24.382
      vertex -39 41.5 24.268
      vertex -39 42 24.268
    endloop
  endfacet
  facet normal 0.933653 0 -0.358179
    outer loop
      vertex -38.0979 41.5 25.382
      vertex -38.1729 42 25.1865
      vertex -38.0979 42 25.382
    endloop
  endfacet
  facet normal 0.933653 0 -0.358179
    outer loop
      vertex -38.1729 42 25.1865
      vertex -38.0979 41.5 25.382
      vertex -38.1729 41.5 25.1865
    endloop
  endfacet
  facet normal -0.0525338 0 -0.998619
    outer loop
      vertex -40.2091 41.5 24.011
      vertex -40 42 24
      vertex -40 41.5 24
    endloop
  endfacet
  facet normal -0.0525338 0 -0.998619
    outer loop
      vertex -40 42 24
      vertex -40.2091 41.5 24.011
      vertex -40.2091 42 24.011
    endloop
  endfacet
  facet normal -0.998619 0 0.0525338
    outer loop
      vertex -42 41.5 26
      vertex -41.989 42 26.2091
      vertex -42 42 26
    endloop
  endfacet
  facet normal -0.998619 0 0.0525338
    outer loop
      vertex -41.989 42 26.2091
      vertex -42 41.5 26
      vertex -41.989 41.5 26.2091
    endloop
  endfacet
  facet normal -0.358179 0 -0.933653
    outer loop
      vertex -40.8135 41.5 24.1729
      vertex -40.618 42 24.0979
      vertex -40.618 41.5 24.0979
    endloop
  endfacet
  facet normal -0.358179 0 -0.933653
    outer loop
      vertex -40.618 42 24.0979
      vertex -40.8135 41.5 24.1729
      vertex -40.8135 42 24.1729
    endloop
  endfacet
  facet normal -0.544518 0 -0.838749
    outer loop
      vertex -41.1756 41.5 24.382
      vertex -41 42 24.268
      vertex -41 41.5 24.268
    endloop
  endfacet
  facet normal -0.544518 0 -0.838749
    outer loop
      vertex -41 42 24.268
      vertex -41.1756 41.5 24.382
      vertex -41.1756 42 24.382
    endloop
  endfacet
  facet normal 0.707107 0 -0.707107
    outer loop
      vertex -38.5137 41.5 24.6617
      vertex -38.6617 42 24.5137
      vertex -38.5137 42 24.6617
    endloop
  endfacet
  facet normal 0.707107 0 -0.707107
    outer loop
      vertex -38.6617 42 24.5137
      vertex -38.5137 41.5 24.6617
      vertex -38.6617 41.5 24.5137
    endloop
  endfacet
  facet normal 0.156383 0 0.987696
    outer loop
      vertex -39.6342 41.5 29.4808
      vertex -39.2723 40 29.4235
      vertex -39.2723 41.5 29.4235
    endloop
  endfacet
  facet normal 0.156383 0 0.987696
    outer loop
      vertex -39.2723 40 29.4235
      vertex -39.6342 41.5 29.4808
      vertex -39.6342 40 29.4808
    endloop
  endfacet
  facet normal 0.987696 -0 0.156383
    outer loop
      vertex -36.5765 40 26.7277
      vertex -36.5192 41.5 26.3658
      vertex -36.5765 41.5 26.7277
    endloop
  endfacet
  facet normal 0.987696 0 0.156383
    outer loop
      vertex -36.5192 41.5 26.3658
      vertex -36.5765 40 26.7277
      vertex -36.5192 40 26.3658
    endloop
  endfacet
  facet normal 0.998625 -0 0.0524155
    outer loop
      vertex -36.5192 40 26.3658
      vertex -36.5 41.5 26
      vertex -36.5192 41.5 26.3658
    endloop
  endfacet
  facet normal 0.998625 0 0.0524155
    outer loop
      vertex -36.5 41.5 26
      vertex -36.5192 40 26.3658
      vertex -36.5 40 26
    endloop
  endfacet
  facet normal 0.965944 -0 0.25875
    outer loop
      vertex -36.6713 40 27.0816
      vertex -36.5765 41.5 26.7277
      vertex -36.6713 41.5 27.0816
    endloop
  endfacet
  facet normal 0.965944 0 0.25875
    outer loop
      vertex -36.5765 41.5 26.7277
      vertex -36.6713 40 27.0816
      vertex -36.5765 40 26.7277
    endloop
  endfacet
  facet normal -0.0524155 0 0.998625
    outer loop
      vertex -40.3658 41.5 29.4808
      vertex -40 40 29.5
      vertex -40 41.5 29.5
    endloop
  endfacet
  facet normal -0.0524155 0 0.998625
    outer loop
      vertex -40 40 29.5
      vertex -40.3658 41.5 29.4808
      vertex -40.3658 40 29.4808
    endloop
  endfacet
  facet normal 0.0524155 0 -0.998625
    outer loop
      vertex -40 40 22.5
      vertex -39.6342 41.5 22.5192
      vertex -39.6342 40 22.5192
    endloop
  endfacet
  facet normal 0.0524155 0 -0.998625
    outer loop
      vertex -39.6342 41.5 22.5192
      vertex -40 40 22.5
      vertex -40 41.5 22.5
    endloop
  endfacet
  facet normal -0.987696 0 -0.156383
    outer loop
      vertex -43.4235 40 25.2723
      vertex -43.4808 41.5 25.6342
      vertex -43.4235 41.5 25.2723
    endloop
  endfacet
  facet normal -0.987696 -0 -0.156383
    outer loop
      vertex -43.4808 41.5 25.6342
      vertex -43.4235 40 25.2723
      vertex -43.4808 40 25.6342
    endloop
  endfacet
  facet normal -0.891017 0 0.453971
    outer loop
      vertex -43.1974 40 27.4236
      vertex -43.0311 41.5 27.75
      vertex -43.1974 41.5 27.4236
    endloop
  endfacet
  facet normal -0.891017 0 0.453971
    outer loop
      vertex -43.0311 41.5 27.75
      vertex -43.1974 40 27.4236
      vertex -43.0311 40 27.75
    endloop
  endfacet
  facet normal -0.707107 0 0.707107
    outer loop
      vertex -42.601 40 28.342
      vertex -42.342 41.5 28.601
      vertex -42.601 41.5 28.342
    endloop
  endfacet
  facet normal -0.707107 0 0.707107
    outer loop
      vertex -42.342 41.5 28.601
      vertex -42.601 40 28.342
      vertex -42.342 40 28.601
    endloop
  endfacet
  facet normal 0.707107 -0 0.707107
    outer loop
      vertex -37.658 40 28.601
      vertex -37.399 41.5 28.342
      vertex -37.658 41.5 28.601
    endloop
  endfacet
  facet normal 0.707107 0 0.707107
    outer loop
      vertex -37.399 41.5 28.342
      vertex -37.658 40 28.601
      vertex -37.399 40 28.342
    endloop
  endfacet
  facet normal 0.156383 0 -0.987696
    outer loop
      vertex -39.6342 40 22.5192
      vertex -39.2723 41.5 22.5765
      vertex -39.2723 40 22.5765
    endloop
  endfacet
  facet normal 0.156383 0 -0.987696
    outer loop
      vertex -39.2723 41.5 22.5765
      vertex -39.6342 40 22.5192
      vertex -39.6342 41.5 22.5192
    endloop
  endfacet
  facet normal 0.358412 0 0.933564
    outer loop
      vertex -38.9184 41.5 29.3287
      vertex -38.5764 40 29.1974
      vertex -38.5764 41.5 29.1974
    endloop
  endfacet
  facet normal 0.358412 0 0.933564
    outer loop
      vertex -38.5764 40 29.1974
      vertex -38.9184 41.5 29.3287
      vertex -38.9184 40 29.3287
    endloop
  endfacet
  facet normal -0.965944 0 -0.25875
    outer loop
      vertex -43.3287 40 24.9184
      vertex -43.4235 41.5 25.2723
      vertex -43.3287 41.5 24.9184
    endloop
  endfacet
  facet normal -0.965944 -0 -0.25875
    outer loop
      vertex -43.4235 41.5 25.2723
      vertex -43.3287 40 24.9184
      vertex -43.4235 40 25.2723
    endloop
  endfacet
  facet normal 0.987696 0 -0.156383
    outer loop
      vertex -36.5192 40 25.6342
      vertex -36.5765 41.5 25.2723
      vertex -36.5192 41.5 25.6342
    endloop
  endfacet
  facet normal 0.987696 0 -0.156383
    outer loop
      vertex -36.5765 41.5 25.2723
      vertex -36.5192 40 25.6342
      vertex -36.5765 40 25.2723
    endloop
  endfacet
  facet normal 0.629277 0 0.777181
    outer loop
      vertex -37.9428 41.5 28.8316
      vertex -37.658 40 28.601
      vertex -37.658 41.5 28.601
    endloop
  endfacet
  facet normal 0.629277 0 0.777181
    outer loop
      vertex -37.658 40 28.601
      vertex -37.9428 41.5 28.8316
      vertex -37.9428 40 28.8316
    endloop
  endfacet
  facet normal 0.358412 0 -0.933564
    outer loop
      vertex -38.9184 40 22.6713
      vertex -38.5764 41.5 22.8026
      vertex -38.5764 40 22.8026
    endloop
  endfacet
  facet normal 0.358412 0 -0.933564
    outer loop
      vertex -38.5764 41.5 22.8026
      vertex -38.9184 40 22.6713
      vertex -38.9184 41.5 22.6713
    endloop
  endfacet
  facet normal 0.838668 -0 0.544643
    outer loop
      vertex -37.1684 40 28.0572
      vertex -36.9689 41.5 27.75
      vertex -37.1684 41.5 28.0572
    endloop
  endfacet
  facet normal 0.838668 0 0.544643
    outer loop
      vertex -36.9689 41.5 27.75
      vertex -37.1684 40 28.0572
      vertex -36.9689 40 27.75
    endloop
  endfacet
  facet normal -0.25875 0 0.965944
    outer loop
      vertex -41.0816 41.5 29.3287
      vertex -40.7277 40 29.4235
      vertex -40.7277 41.5 29.4235
    endloop
  endfacet
  facet normal -0.25875 0 0.965944
    outer loop
      vertex -40.7277 40 29.4235
      vertex -41.0816 41.5 29.3287
      vertex -41.0816 40 29.3287
    endloop
  endfacet
  facet normal 0.998625 0 -0.0524155
    outer loop
      vertex -36.5 40 26
      vertex -36.5192 41.5 25.6342
      vertex -36.5 41.5 26
    endloop
  endfacet
  facet normal 0.998625 0 -0.0524155
    outer loop
      vertex -36.5192 41.5 25.6342
      vertex -36.5 40 26
      vertex -36.5192 40 25.6342
    endloop
  endfacet
  facet normal 0.838668 0 -0.544643
    outer loop
      vertex -36.9689 40 24.25
      vertex -37.1684 41.5 23.9428
      vertex -36.9689 41.5 24.25
    endloop
  endfacet
  facet normal 0.838668 0 -0.544643
    outer loop
      vertex -37.1684 41.5 23.9428
      vertex -36.9689 40 24.25
      vertex -37.1684 40 23.9428
    endloop
  endfacet
  facet normal -0.544643 0 0.838668
    outer loop
      vertex -42.0572 41.5 28.8316
      vertex -41.75 40 29.0311
      vertex -41.75 41.5 29.0311
    endloop
  endfacet
  facet normal -0.544643 0 0.838668
    outer loop
      vertex -41.75 40 29.0311
      vertex -42.0572 41.5 28.8316
      vertex -42.0572 40 28.8316
    endloop
  endfacet
  facet normal 0.965944 0 -0.25875
    outer loop
      vertex -36.5765 40 25.2723
      vertex -36.6713 41.5 24.9184
      vertex -36.5765 41.5 25.2723
    endloop
  endfacet
  facet normal 0.965944 0 -0.25875
    outer loop
      vertex -36.6713 41.5 24.9184
      vertex -36.5765 40 25.2723
      vertex -36.6713 40 24.9184
    endloop
  endfacet
  facet normal -0.933564 0 0.358412
    outer loop
      vertex -43.3287 40 27.0816
      vertex -43.1974 41.5 27.4236
      vertex -43.3287 41.5 27.0816
    endloop
  endfacet
  facet normal -0.933564 0 0.358412
    outer loop
      vertex -43.1974 41.5 27.4236
      vertex -43.3287 40 27.0816
      vertex -43.1974 40 27.4236
    endloop
  endfacet
  facet normal -0.629277 0 0.777181
    outer loop
      vertex -42.342 41.5 28.601
      vertex -42.0572 40 28.8316
      vertex -42.0572 41.5 28.8316
    endloop
  endfacet
  facet normal -0.629277 0 0.777181
    outer loop
      vertex -42.0572 40 28.8316
      vertex -42.342 41.5 28.601
      vertex -42.342 40 28.601
    endloop
  endfacet
  facet normal -0.838668 0 -0.544643
    outer loop
      vertex -42.8316 40 23.9428
      vertex -43.0311 41.5 24.25
      vertex -42.8316 41.5 23.9428
    endloop
  endfacet
  facet normal -0.838668 -0 -0.544643
    outer loop
      vertex -43.0311 41.5 24.25
      vertex -42.8316 40 23.9428
      vertex -43.0311 40 24.25
    endloop
  endfacet
  facet normal 0 -1 0
    outer loop
      vertex -40.3658 40 29.4808
      vertex -39.6342 40 29.4808
      vertex -40 40 29.5
    endloop
  endfacet
  facet normal 0 -1 0
    outer loop
      vertex -40.7277 40 29.4235
      vertex -39.6342 40 29.4808
      vertex -40.3658 40 29.4808
    endloop
  endfacet
  facet normal 0 -1 0
    outer loop
      vertex -40.7277 40 29.4235
      vertex -39.2723 40 29.4235
      vertex -39.6342 40 29.4808
    endloop
  endfacet
  facet normal 0 -1 0
    outer loop
      vertex -41.0816 40 29.3287
      vertex -39.2723 40 29.4235
      vertex -40.7277 40 29.4235
    endloop
  endfacet
  facet normal 0 -1 0
    outer loop
      vertex -41.0816 40 29.3287
      vertex -38.9184 40 29.3287
      vertex -39.2723 40 29.4235
    endloop
  endfacet
  facet normal 0 -1 0
    outer loop
      vertex -41.4236 40 29.1974
      vertex -38.9184 40 29.3287
      vertex -41.0816 40 29.3287
    endloop
  endfacet
  facet normal 0 -1 0
    outer loop
      vertex -41.4236 40 29.1974
      vertex -38.5764 40 29.1974
      vertex -38.9184 40 29.3287
    endloop
  endfacet
  facet normal 0 -1 0
    outer loop
      vertex -41.75 40 29.0311
      vertex -38.5764 40 29.1974
      vertex -41.4236 40 29.1974
    endloop
  endfacet
  facet normal 0 -1 0
    outer loop
      vertex -41.75 40 29.0311
      vertex -38.25 40 29.0311
      vertex -38.5764 40 29.1974
    endloop
  endfacet
  facet normal 0 -1 0
    outer loop
      vertex -42.0572 40 28.8316
      vertex -38.25 40 29.0311
      vertex -41.75 40 29.0311
    endloop
  endfacet
  facet normal 0 -1 0
    outer loop
      vertex -42.0572 40 28.8316
      vertex -37.9428 40 28.8316
      vertex -38.25 40 29.0311
    endloop
  endfacet
  facet normal 0 -1 0
    outer loop
      vertex -42.342 40 28.601
      vertex -37.9428 40 28.8316
      vertex -42.0572 40 28.8316
    endloop
  endfacet
  facet normal 0 -1 0
    outer loop
      vertex -42.342 40 28.601
      vertex -37.658 40 28.601
      vertex -37.9428 40 28.8316
    endloop
  endfacet
  facet normal 0 -1 0
    outer loop
      vertex -42.601 40 28.342
      vertex -37.658 40 28.601
      vertex -42.342 40 28.601
    endloop
  endfacet
  facet normal 0 -1 0
    outer loop
      vertex -42.601 40 28.342
      vertex -37.399 40 28.342
      vertex -37.658 40 28.601
    endloop
  endfacet
  facet normal 0 -1 0
    outer loop
      vertex -42.8316 40 28.0572
      vertex -37.399 40 28.342
      vertex -42.601 40 28.342
    endloop
  endfacet
  facet normal 0 -1 0
    outer loop
      vertex -42.8316 40 28.0572
      vertex -37.1684 40 28.0572
      vertex -37.399 40 28.342
    endloop
  endfacet
  facet normal 0 -1 0
    outer loop
      vertex -43.0311 40 27.75
      vertex -37.1684 40 28.0572
      vertex -42.8316 40 28.0572
    endloop
  endfacet
  facet normal 0 -1 0
    outer loop
      vertex -43.0311 40 27.75
      vertex -36.9689 40 27.75
      vertex -37.1684 40 28.0572
    endloop
  endfacet
  facet normal 0 -1 0
    outer loop
      vertex -43.1974 40 27.4236
      vertex -36.9689 40 27.75
      vertex -43.0311 40 27.75
    endloop
  endfacet
  facet normal 0 -1 0
    outer loop
      vertex -43.1974 40 27.4236
      vertex -36.8026 40 27.4236
      vertex -36.9689 40 27.75
    endloop
  endfacet
  facet normal 0 -1 0
    outer loop
      vertex -43.3287 40 27.0816
      vertex -36.8026 40 27.4236
      vertex -43.1974 40 27.4236
    endloop
  endfacet
  facet normal 0 -1 0
    outer loop
      vertex -43.3287 40 27.0816
      vertex -36.6713 40 27.0816
      vertex -36.8026 40 27.4236
    endloop
  endfacet
  facet normal 0 -1 0
    outer loop
      vertex -43.4235 40 26.7277
      vertex -36.6713 40 27.0816
      vertex -43.3287 40 27.0816
    endloop
  endfacet
  facet normal 0 -1 0
    outer loop
      vertex -43.4235 40 26.7277
      vertex -36.5765 40 26.7277
      vertex -36.6713 40 27.0816
    endloop
  endfacet
  facet normal 0 -1 0
    outer loop
      vertex -43.4808 40 26.3658
      vertex -36.5765 40 26.7277
      vertex -43.4235 40 26.7277
    endloop
  endfacet
  facet normal 0 -1 0
    outer loop
      vertex -43.4808 40 26.3658
      vertex -36.5192 40 26.3658
      vertex -36.5765 40 26.7277
    endloop
  endfacet
  facet normal 0 -1 0
    outer loop
      vertex -43.5 40 26
      vertex -36.5192 40 26.3658
      vertex -43.4808 40 26.3658
    endloop
  endfacet
  facet normal 0 -1 0
    outer loop
      vertex -43.5 40 26
      vertex -36.5 40 26
      vertex -36.5192 40 26.3658
    endloop
  endfacet
  facet normal 0 -1 0
    outer loop
      vertex -43.4808 40 25.6342
      vertex -36.5 40 26
      vertex -43.5 40 26
    endloop
  endfacet
  facet normal 0 -1 0
    outer loop
      vertex -43.4808 40 25.6342
      vertex -36.5192 40 25.6342
      vertex -36.5 40 26
    endloop
  endfacet
  facet normal 0 -1 0
    outer loop
      vertex -43.4235 40 25.2723
      vertex -36.5192 40 25.6342
      vertex -43.4808 40 25.6342
    endloop
  endfacet
  facet normal 0 -1 0
    outer loop
      vertex -43.4235 40 25.2723
      vertex -36.5765 40 25.2723
      vertex -36.5192 40 25.6342
    endloop
  endfacet
  facet normal 0 -1 0
    outer loop
      vertex -43.3287 40 24.9184
      vertex -36.5765 40 25.2723
      vertex -43.4235 40 25.2723
    endloop
  endfacet
  facet normal 0 -1 0
    outer loop
      vertex -43.3287 40 24.9184
      vertex -36.6713 40 24.9184
      vertex -36.5765 40 25.2723
    endloop
  endfacet
  facet normal 0 -1 0
    outer loop
      vertex -43.1974 40 24.5764
      vertex -36.6713 40 24.9184
      vertex -43.3287 40 24.9184
    endloop
  endfacet
  facet normal 0 -1 0
    outer loop
      vertex -43.1974 40 24.5764
      vertex -36.8026 40 24.5764
      vertex -36.6713 40 24.9184
    endloop
  endfacet
  facet normal 0 -1 0
    outer loop
      vertex -43.0311 40 24.25
      vertex -36.8026 40 24.5764
      vertex -43.1974 40 24.5764
    endloop
  endfacet
  facet normal 0 -1 0
    outer loop
      vertex -43.0311 40 24.25
      vertex -36.9689 40 24.25
      vertex -36.8026 40 24.5764
    endloop
  endfacet
  facet normal 0 -1 0
    outer loop
      vertex -42.8316 40 23.9428
      vertex -36.9689 40 24.25
      vertex -43.0311 40 24.25
    endloop
  endfacet
  facet normal 0 -1 0
    outer loop
      vertex -42.8316 40 23.9428
      vertex -37.1684 40 23.9428
      vertex -36.9689 40 24.25
    endloop
  endfacet
  facet normal 0 -1 0
    outer loop
      vertex -42.601 40 23.658
      vertex -37.1684 40 23.9428
      vertex -42.8316 40 23.9428
    endloop
  endfacet
  facet normal 0 -1 0
    outer loop
      vertex -42.601 40 23.658
      vertex -37.399 40 23.658
      vertex -37.1684 40 23.9428
    endloop
  endfacet
  facet normal 0 -1 0
    outer loop
      vertex -42.342 40 23.399
      vertex -37.399 40 23.658
      vertex -42.601 40 23.658
    endloop
  endfacet
  facet normal 0 -1 0
    outer loop
      vertex -42.342 40 23.399
      vertex -37.658 40 23.399
      vertex -37.399 40 23.658
    endloop
  endfacet
  facet normal 0 -1 0
    outer loop
      vertex -42.0572 40 23.1684
      vertex -37.658 40 23.399
      vertex -42.342 40 23.399
    endloop
  endfacet
  facet normal 0 -1 0
    outer loop
      vertex -42.0572 40 23.1684
      vertex -37.9428 40 23.1684
      vertex -37.658 40 23.399
    endloop
  endfacet
  facet normal 0 -1 0
    outer loop
      vertex -41.75 40 22.9689
      vertex -37.9428 40 23.1684
      vertex -42.0572 40 23.1684
    endloop
  endfacet
  facet normal 0 -1 0
    outer loop
      vertex -41.75 40 22.9689
      vertex -38.25 40 22.9689
      vertex -37.9428 40 23.1684
    endloop
  endfacet
  facet normal 0 -1 0
    outer loop
      vertex -41.4236 40 22.8026
      vertex -38.25 40 22.9689
      vertex -41.75 40 22.9689
    endloop
  endfacet
  facet normal 0 -1 0
    outer loop
      vertex -41.4236 40 22.8026
      vertex -38.5764 40 22.8026
      vertex -38.25 40 22.9689
    endloop
  endfacet
  facet normal 0 -1 0
    outer loop
      vertex -41.0816 40 22.6713
      vertex -38.5764 40 22.8026
      vertex -41.4236 40 22.8026
    endloop
  endfacet
  facet normal 0 -1 0
    outer loop
      vertex -41.0816 40 22.6713
      vertex -38.9184 40 22.6713
      vertex -38.5764 40 22.8026
    endloop
  endfacet
  facet normal 0 -1 0
    outer loop
      vertex -40.7277 40 22.5765
      vertex -38.9184 40 22.6713
      vertex -41.0816 40 22.6713
    endloop
  endfacet
  facet normal 0 -1 0
    outer loop
      vertex -40.7277 40 22.5765
      vertex -39.2723 40 22.5765
      vertex -38.9184 40 22.6713
    endloop
  endfacet
  facet normal 0 -1 0
    outer loop
      vertex -40.3658 40 22.5192
      vertex -39.2723 40 22.5765
      vertex -40.7277 40 22.5765
    endloop
  endfacet
  facet normal 0 -1 0
    outer loop
      vertex -40.3658 40 22.5192
      vertex -39.6342 40 22.5192
      vertex -39.2723 40 22.5765
    endloop
  endfacet
  facet normal -0 -1 0
    outer loop
      vertex -39.6342 40 22.5192
      vertex -40.3658 40 22.5192
      vertex -40 40 22.5
    endloop
  endfacet
  facet normal -0.838668 0 0.544643
    outer loop
      vertex -43.0311 40 27.75
      vertex -42.8316 41.5 28.0572
      vertex -43.0311 41.5 27.75
    endloop
  endfacet
  facet normal -0.838668 0 0.544643
    outer loop
      vertex -42.8316 41.5 28.0572
      vertex -43.0311 40 27.75
      vertex -42.8316 40 28.0572
    endloop
  endfacet
  facet normal 0.453971 0 0.891017
    outer loop
      vertex -38.5764 41.5 29.1974
      vertex -38.25 40 29.0311
      vertex -38.25 41.5 29.0311
    endloop
  endfacet
  facet normal 0.453971 0 0.891017
    outer loop
      vertex -38.25 40 29.0311
      vertex -38.5764 41.5 29.1974
      vertex -38.5764 40 29.1974
    endloop
  endfacet
  facet normal 0.891017 0 -0.453971
    outer loop
      vertex -36.8026 40 24.5764
      vertex -36.9689 41.5 24.25
      vertex -36.8026 41.5 24.5764
    endloop
  endfacet
  facet normal 0.891017 0 -0.453971
    outer loop
      vertex -36.9689 41.5 24.25
      vertex -36.8026 40 24.5764
      vertex -36.9689 40 24.25
    endloop
  endfacet
  facet normal -0.629277 0 -0.777181
    outer loop
      vertex -42.342 40 23.399
      vertex -42.0572 41.5 23.1684
      vertex -42.0572 40 23.1684
    endloop
  endfacet
  facet normal -0.629277 0 -0.777181
    outer loop
      vertex -42.0572 41.5 23.1684
      vertex -42.342 40 23.399
      vertex -42.342 41.5 23.399
    endloop
  endfacet
  facet normal 0.453971 0 -0.891017
    outer loop
      vertex -38.5764 40 22.8026
      vertex -38.25 41.5 22.9689
      vertex -38.25 40 22.9689
    endloop
  endfacet
  facet normal 0.453971 0 -0.891017
    outer loop
      vertex -38.25 41.5 22.9689
      vertex -38.5764 40 22.8026
      vertex -38.5764 41.5 22.8026
    endloop
  endfacet
  facet normal 0.25875 0 0.965944
    outer loop
      vertex -39.2723 41.5 29.4235
      vertex -38.9184 40 29.3287
      vertex -38.9184 41.5 29.3287
    endloop
  endfacet
  facet normal 0.25875 0 0.965944
    outer loop
      vertex -38.9184 40 29.3287
      vertex -39.2723 41.5 29.4235
      vertex -39.2723 40 29.4235
    endloop
  endfacet
  facet normal 0.777181 0 -0.629277
    outer loop
      vertex -37.1684 40 23.9428
      vertex -37.399 41.5 23.658
      vertex -37.1684 41.5 23.9428
    endloop
  endfacet
  facet normal 0.777181 0 -0.629277
    outer loop
      vertex -37.399 41.5 23.658
      vertex -37.1684 40 23.9428
      vertex -37.399 40 23.658
    endloop
  endfacet
  facet normal 0.777181 -0 0.629277
    outer loop
      vertex -37.399 40 28.342
      vertex -37.1684 41.5 28.0572
      vertex -37.399 41.5 28.342
    endloop
  endfacet
  facet normal 0.777181 0 0.629277
    outer loop
      vertex -37.1684 41.5 28.0572
      vertex -37.399 40 28.342
      vertex -37.1684 40 28.0572
    endloop
  endfacet
  facet normal 0.544643 0 0.838668
    outer loop
      vertex -38.25 41.5 29.0311
      vertex -37.9428 40 28.8316
      vertex -37.9428 41.5 28.8316
    endloop
  endfacet
  facet normal 0.544643 0 0.838668
    outer loop
      vertex -37.9428 40 28.8316
      vertex -38.25 41.5 29.0311
      vertex -38.25 40 29.0311
    endloop
  endfacet
  facet normal -0.156383 0 0.987696
    outer loop
      vertex -40.7277 41.5 29.4235
      vertex -40.3658 40 29.4808
      vertex -40.3658 41.5 29.4808
    endloop
  endfacet
  facet normal -0.156383 0 0.987696
    outer loop
      vertex -40.3658 40 29.4808
      vertex -40.7277 41.5 29.4235
      vertex -40.7277 40 29.4235
    endloop
  endfacet
  facet normal 0.933564 -0 0.358412
    outer loop
      vertex -36.8026 40 27.4236
      vertex -36.6713 41.5 27.0816
      vertex -36.8026 41.5 27.4236
    endloop
  endfacet
  facet normal 0.933564 0 0.358412
    outer loop
      vertex -36.6713 41.5 27.0816
      vertex -36.8026 40 27.4236
      vertex -36.6713 40 27.0816
    endloop
  endfacet
  facet normal -0.987696 0 0.156383
    outer loop
      vertex -43.4808 40 26.3658
      vertex -43.4235 41.5 26.7277
      vertex -43.4808 41.5 26.3658
    endloop
  endfacet
  facet normal -0.987696 0 0.156383
    outer loop
      vertex -43.4235 41.5 26.7277
      vertex -43.4808 40 26.3658
      vertex -43.4235 40 26.7277
    endloop
  endfacet
  facet normal 0.891017 -0 0.453971
    outer loop
      vertex -36.9689 40 27.75
      vertex -36.8026 41.5 27.4236
      vertex -36.9689 41.5 27.75
    endloop
  endfacet
  facet normal 0.891017 0 0.453971
    outer loop
      vertex -36.8026 41.5 27.4236
      vertex -36.9689 40 27.75
      vertex -36.8026 40 27.4236
    endloop
  endfacet
  facet normal -0.965944 0 0.25875
    outer loop
      vertex -43.4235 40 26.7277
      vertex -43.3287 41.5 27.0816
      vertex -43.4235 41.5 26.7277
    endloop
  endfacet
  facet normal -0.965944 0 0.25875
    outer loop
      vertex -43.3287 41.5 27.0816
      vertex -43.4235 40 26.7277
      vertex -43.3287 40 27.0816
    endloop
  endfacet
  facet normal -0.453971 0 0.891017
    outer loop
      vertex -41.75 41.5 29.0311
      vertex -41.4236 40 29.1974
      vertex -41.4236 41.5 29.1974
    endloop
  endfacet
  facet normal -0.453971 0 0.891017
    outer loop
      vertex -41.4236 40 29.1974
      vertex -41.75 41.5 29.0311
      vertex -41.75 40 29.0311
    endloop
  endfacet
  facet normal 0.629277 0 -0.777181
    outer loop
      vertex -37.9428 40 23.1684
      vertex -37.658 41.5 23.399
      vertex -37.658 40 23.399
    endloop
  endfacet
  facet normal 0.629277 0 -0.777181
    outer loop
      vertex -37.658 41.5 23.399
      vertex -37.9428 40 23.1684
      vertex -37.9428 41.5 23.1684
    endloop
  endfacet
  facet normal -0.777181 0 0.629277
    outer loop
      vertex -42.8316 40 28.0572
      vertex -42.601 41.5 28.342
      vertex -42.8316 41.5 28.0572
    endloop
  endfacet
  facet normal -0.777181 0 0.629277
    outer loop
      vertex -42.601 41.5 28.342
      vertex -42.8316 40 28.0572
      vertex -42.601 40 28.342
    endloop
  endfacet
  facet normal -0.933564 0 -0.358412
    outer loop
      vertex -43.1974 40 24.5764
      vertex -43.3287 41.5 24.9184
      vertex -43.1974 41.5 24.5764
    endloop
  endfacet
  facet normal -0.933564 -0 -0.358412
    outer loop
      vertex -43.3287 41.5 24.9184
      vertex -43.1974 40 24.5764
      vertex -43.3287 40 24.9184
    endloop
  endfacet
  facet normal -0.891017 0 -0.453971
    outer loop
      vertex -43.0311 40 24.25
      vertex -43.1974 41.5 24.5764
      vertex -43.0311 41.5 24.25
    endloop
  endfacet
  facet normal -0.891017 -0 -0.453971
    outer loop
      vertex -43.1974 41.5 24.5764
      vertex -43.0311 40 24.25
      vertex -43.1974 40 24.5764
    endloop
  endfacet
  facet normal 0.25875 0 -0.965944
    outer loop
      vertex -39.2723 40 22.5765
      vertex -38.9184 41.5 22.6713
      vertex -38.9184 40 22.6713
    endloop
  endfacet
  facet normal 0.25875 0 -0.965944
    outer loop
      vertex -38.9184 41.5 22.6713
      vertex -39.2723 40 22.5765
      vertex -39.2723 41.5 22.5765
    endloop
  endfacet
  facet normal -0.25875 0 -0.965944
    outer loop
      vertex -41.0816 40 22.6713
      vertex -40.7277 41.5 22.5765
      vertex -40.7277 40 22.5765
    endloop
  endfacet
  facet normal -0.25875 0 -0.965944
    outer loop
      vertex -40.7277 41.5 22.5765
      vertex -41.0816 40 22.6713
      vertex -41.0816 41.5 22.6713
    endloop
  endfacet
  facet normal -0.453971 0 -0.891017
    outer loop
      vertex -41.75 40 22.9689
      vertex -41.4236 41.5 22.8026
      vertex -41.4236 40 22.8026
    endloop
  endfacet
  facet normal -0.453971 0 -0.891017
    outer loop
      vertex -41.4236 41.5 22.8026
      vertex -41.75 40 22.9689
      vertex -41.75 41.5 22.9689
    endloop
  endfacet
  facet normal -0.998625 0 -0.0524155
    outer loop
      vertex -43.4808 40 25.6342
      vertex -43.5 41.5 26
      vertex -43.4808 41.5 25.6342
    endloop
  endfacet
  facet normal -0.998625 -0 -0.0524155
    outer loop
      vertex -43.5 41.5 26
      vertex -43.4808 40 25.6342
      vertex -43.5 40 26
    endloop
  endfacet
  facet normal -0.358412 0 0.933564
    outer loop
      vertex -41.4236 41.5 29.1974
      vertex -41.0816 40 29.3287
      vertex -41.0816 41.5 29.3287
    endloop
  endfacet
  facet normal -0.358412 0 0.933564
    outer loop
      vertex -41.0816 40 29.3287
      vertex -41.4236 41.5 29.1974
      vertex -41.4236 40 29.1974
    endloop
  endfacet
  facet normal -0.777181 0 -0.629277
    outer loop
      vertex -42.601 40 23.658
      vertex -42.8316 41.5 23.9428
      vertex -42.601 41.5 23.658
    endloop
  endfacet
  facet normal -0.777181 -0 -0.629277
    outer loop
      vertex -42.8316 41.5 23.9428
      vertex -42.601 40 23.658
      vertex -42.8316 40 23.9428
    endloop
  endfacet
  facet normal 0.0524155 0 0.998625
    outer loop
      vertex -40 41.5 29.5
      vertex -39.6342 40 29.4808
      vertex -39.6342 41.5 29.4808
    endloop
  endfacet
  facet normal 0.0524155 0 0.998625
    outer loop
      vertex -39.6342 40 29.4808
      vertex -40 41.5 29.5
      vertex -40 40 29.5
    endloop
  endfacet
  facet normal -0.707107 0 -0.707107
    outer loop
      vertex -42.342 40 23.399
      vertex -42.601 41.5 23.658
      vertex -42.342 41.5 23.399
    endloop
  endfacet
  facet normal -0.707107 -0 -0.707107
    outer loop
      vertex -42.601 41.5 23.658
      vertex -42.342 40 23.399
      vertex -42.601 40 23.658
    endloop
  endfacet
  facet normal 0.544643 0 -0.838668
    outer loop
      vertex -38.25 40 22.9689
      vertex -37.9428 41.5 23.1684
      vertex -37.9428 40 23.1684
    endloop
  endfacet
  facet normal 0.544643 0 -0.838668
    outer loop
      vertex -37.9428 41.5 23.1684
      vertex -38.25 40 22.9689
      vertex -38.25 41.5 22.9689
    endloop
  endfacet
  facet normal 0.933564 0 -0.358412
    outer loop
      vertex -36.6713 40 24.9184
      vertex -36.8026 41.5 24.5764
      vertex -36.6713 41.5 24.9184
    endloop
  endfacet
  facet normal 0.933564 0 -0.358412
    outer loop
      vertex -36.8026 41.5 24.5764
      vertex -36.6713 40 24.9184
      vertex -36.8026 40 24.5764
    endloop
  endfacet
  facet normal 0 1 0
    outer loop
      vertex -40 41.5 28
      vertex -40 41.5 29.5
      vertex -39.6342 41.5 29.4808
    endloop
  endfacet
  facet normal 0 1 0
    outer loop
      vertex -39.7909 41.5 27.989
      vertex -39.6342 41.5 29.4808
      vertex -39.2723 41.5 29.4235
    endloop
  endfacet
  facet normal 0 1 0
    outer loop
      vertex -40 41.5 29.5
      vertex -40 41.5 28
      vertex -40.3658 41.5 29.4808
    endloop
  endfacet
  facet normal 0 1 0
    outer loop
      vertex -39.5842 41.5 27.9563
      vertex -39.2723 41.5 29.4235
      vertex -38.9184 41.5 29.3287
    endloop
  endfacet
  facet normal 0 1 -0
    outer loop
      vertex -40.2091 41.5 27.989
      vertex -40.3658 41.5 29.4808
      vertex -40 41.5 28
    endloop
  endfacet
  facet normal 0 1 0
    outer loop
      vertex -39.382 41.5 27.9021
      vertex -38.9184 41.5 29.3287
      vertex -38.5764 41.5 29.1974
    endloop
  endfacet
  facet normal 0 1 0
    outer loop
      vertex -40.3658 41.5 29.4808
      vertex -40.2091 41.5 27.989
      vertex -40.7277 41.5 29.4235
    endloop
  endfacet
  facet normal 0 1 0
    outer loop
      vertex -39.1865 41.5 27.8271
      vertex -38.5764 41.5 29.1974
      vertex -38.25 41.5 29.0311
    endloop
  endfacet
  facet normal 0 1 -0
    outer loop
      vertex -40.4158 41.5 27.9563
      vertex -40.7277 41.5 29.4235
      vertex -40.2091 41.5 27.989
    endloop
  endfacet
  facet normal 0 1 0
    outer loop
      vertex -39 41.5 27.732
      vertex -38.25 41.5 29.0311
      vertex -37.9428 41.5 28.8316
    endloop
  endfacet
  facet normal 0 1 0
    outer loop
      vertex -40.7277 41.5 29.4235
      vertex -40.4158 41.5 27.9563
      vertex -41.0816 41.5 29.3287
    endloop
  endfacet
  facet normal 0 1 0
    outer loop
      vertex -38.8244 41.5 27.618
      vertex -37.9428 41.5 28.8316
      vertex -37.658 41.5 28.601
    endloop
  endfacet
  facet normal 0 1 -0
    outer loop
      vertex -40.618 41.5 27.9021
      vertex -41.0816 41.5 29.3287
      vertex -40.4158 41.5 27.9563
    endloop
  endfacet
  facet normal 0 1 0
    outer loop
      vertex -38.6617 41.5 27.4863
      vertex -37.658 41.5 28.601
      vertex -37.399 41.5 28.342
    endloop
  endfacet
  facet normal 0 1 0
    outer loop
      vertex -41.0816 41.5 29.3287
      vertex -40.618 41.5 27.9021
      vertex -41.4236 41.5 29.1974
    endloop
  endfacet
  facet normal 0 1 0
    outer loop
      vertex -38.5137 41.5 27.3383
      vertex -37.399 41.5 28.342
      vertex -37.1684 41.5 28.0572
    endloop
  endfacet
  facet normal 0 1 -0
    outer loop
      vertex -40.8135 41.5 27.8271
      vertex -41.4236 41.5 29.1974
      vertex -40.618 41.5 27.9021
    endloop
  endfacet
  facet normal 0 1 0
    outer loop
      vertex -41.4236 41.5 29.1974
      vertex -40.8135 41.5 27.8271
      vertex -41.75 41.5 29.0311
    endloop
  endfacet
  facet normal 0 1 0
    outer loop
      vertex -39.6342 41.5 29.4808
      vertex -39.7909 41.5 27.989
      vertex -40 41.5 28
    endloop
  endfacet
  facet normal 0 1 0
    outer loop
      vertex -39.2723 41.5 29.4235
      vertex -39.5842 41.5 27.9563
      vertex -39.7909 41.5 27.989
    endloop
  endfacet
  facet normal 0 1 0
    outer loop
      vertex -38.9184 41.5 29.3287
      vertex -39.382 41.5 27.9021
      vertex -39.5842 41.5 27.9563
    endloop
  endfacet
  facet normal 0 1 0
    outer loop
      vertex -38.5764 41.5 29.1974
      vertex -39.1865 41.5 27.8271
      vertex -39.382 41.5 27.9021
    endloop
  endfacet
  facet normal 0 1 0
    outer loop
      vertex -38.382 41.5 27.1756
      vertex -37.1684 41.5 28.0572
      vertex -36.9689 41.5 27.75
    endloop
  endfacet
  facet normal 0 1 0
    outer loop
      vertex -38.25 41.5 29.0311
      vertex -39 41.5 27.732
      vertex -39.1865 41.5 27.8271
    endloop
  endfacet
  facet normal 0 1 0
    outer loop
      vertex -37.9428 41.5 28.8316
      vertex -38.8244 41.5 27.618
      vertex -39 41.5 27.732
    endloop
  endfacet
  facet normal 0 1 0
    outer loop
      vertex -37.658 41.5 28.601
      vertex -38.6617 41.5 27.4863
      vertex -38.8244 41.5 27.618
    endloop
  endfacet
  facet normal 0 1 0
    outer loop
      vertex -38.268 41.5 27
      vertex -36.9689 41.5 27.75
      vertex -36.8026 41.5 27.4236
    endloop
  endfacet
  facet normal 0 1 0
    outer loop
      vertex -37.399 41.5 28.342
      vertex -38.5137 41.5 27.3383
      vertex -38.6617 41.5 27.4863
    endloop
  endfacet
  facet normal 0 1 0
    outer loop
      vertex -37.1684 41.5 28.0572
      vertex -38.382 41.5 27.1756
      vertex -38.5137 41.5 27.3383
    endloop
  endfacet
  facet normal 0 1 0
    outer loop
      vertex -38.1729 41.5 26.8135
      vertex -36.8026 41.5 27.4236
      vertex -36.6713 41.5 27.0816
    endloop
  endfacet
  facet normal 0 1 0
    outer loop
      vertex -36.9689 41.5 27.75
      vertex -38.268 41.5 27
      vertex -38.382 41.5 27.1756
    endloop
  endfacet
  facet normal 0 1 0
    outer loop
      vertex -36.8026 41.5 27.4236
      vertex -38.1729 41.5 26.8135
      vertex -38.268 41.5 27
    endloop
  endfacet
  facet normal 0 1 0
    outer loop
      vertex -38.0979 41.5 26.618
      vertex -36.6713 41.5 27.0816
      vertex -36.5765 41.5 26.7277
    endloop
  endfacet
  facet normal 0 1 0
    outer loop
      vertex -36.6713 41.5 27.0816
      vertex -38.0979 41.5 26.618
      vertex -38.1729 41.5 26.8135
    endloop
  endfacet
  facet normal 0 1 0
    outer loop
      vertex -36.5765 41.5 26.7277
      vertex -38.0437 41.5 26.4158
      vertex -38.0979 41.5 26.618
    endloop
  endfacet
  facet normal 0 1 0
    outer loop
      vertex -36.5192 41.5 26.3658
      vertex -38.0437 41.5 26.4158
      vertex -36.5765 41.5 26.7277
    endloop
  endfacet
  facet normal 0 1 0
    outer loop
      vertex -36.5192 41.5 26.3658
      vertex -38.011 41.5 26.2091
      vertex -38.0437 41.5 26.4158
    endloop
  endfacet
  facet normal 0 1 0
    outer loop
      vertex -36.5 41.5 26
      vertex -38.011 41.5 26.2091
      vertex -36.5192 41.5 26.3658
    endloop
  endfacet
  facet normal 0 1 0
    outer loop
      vertex -36.5 41.5 26
      vertex -38 41.5 26
      vertex -38.011 41.5 26.2091
    endloop
  endfacet
  facet normal 0 1 0
    outer loop
      vertex -36.5 41.5 26
      vertex -38.011 41.5 25.7909
      vertex -38 41.5 26
    endloop
  endfacet
  facet normal 0 1 -0
    outer loop
      vertex -36.5192 41.5 25.6342
      vertex -38.011 41.5 25.7909
      vertex -36.5 41.5 26
    endloop
  endfacet
  facet normal 0 1 0
    outer loop
      vertex -36.5192 41.5 25.6342
      vertex -38.0437 41.5 25.5842
      vertex -38.011 41.5 25.7909
    endloop
  endfacet
  facet normal 0 1 -0
    outer loop
      vertex -36.5765 41.5 25.2723
      vertex -38.0437 41.5 25.5842
      vertex -36.5192 41.5 25.6342
    endloop
  endfacet
  facet normal 0 1 0
    outer loop
      vertex -38.0437 41.5 25.5842
      vertex -36.5765 41.5 25.2723
      vertex -38.0979 41.5 25.382
    endloop
  endfacet
  facet normal 0 1 -0
    outer loop
      vertex -36.6713 41.5 24.9184
      vertex -38.0979 41.5 25.382
      vertex -36.5765 41.5 25.2723
    endloop
  endfacet
  facet normal 0 1 0
    outer loop
      vertex -38.0979 41.5 25.382
      vertex -36.6713 41.5 24.9184
      vertex -38.1729 41.5 25.1865
    endloop
  endfacet
  facet normal 0 1 -0
    outer loop
      vertex -36.8026 41.5 24.5764
      vertex -38.1729 41.5 25.1865
      vertex -36.6713 41.5 24.9184
    endloop
  endfacet
  facet normal 0 1 0
    outer loop
      vertex -38.1729 41.5 25.1865
      vertex -36.8026 41.5 24.5764
      vertex -38.268 41.5 25
    endloop
  endfacet
  facet normal 0 1 -0
    outer loop
      vertex -36.9689 41.5 24.25
      vertex -38.268 41.5 25
      vertex -36.8026 41.5 24.5764
    endloop
  endfacet
  facet normal 0 1 0
    outer loop
      vertex -38.268 41.5 25
      vertex -36.9689 41.5 24.25
      vertex -38.382 41.5 24.8244
    endloop
  endfacet
  facet normal 0 1 -0
    outer loop
      vertex -37.1684 41.5 23.9428
      vertex -38.382 41.5 24.8244
      vertex -36.9689 41.5 24.25
    endloop
  endfacet
  facet normal 0 1 0
    outer loop
      vertex -38.382 41.5 24.8244
      vertex -37.1684 41.5 23.9428
      vertex -38.5137 41.5 24.6617
    endloop
  endfacet
  facet normal 0 1 -0
    outer loop
      vertex -37.399 41.5 23.658
      vertex -38.5137 41.5 24.6617
      vertex -37.1684 41.5 23.9428
    endloop
  endfacet
  facet normal 0 1 0
    outer loop
      vertex -38.5137 41.5 24.6617
      vertex -37.399 41.5 23.658
      vertex -38.6617 41.5 24.5137
    endloop
  endfacet
  facet normal 0 1 -0
    outer loop
      vertex -37.658 41.5 23.399
      vertex -38.6617 41.5 24.5137
      vertex -37.399 41.5 23.658
    endloop
  endfacet
  facet normal 0 1 0
    outer loop
      vertex -38.6617 41.5 24.5137
      vertex -37.658 41.5 23.399
      vertex -38.8244 41.5 24.382
    endloop
  endfacet
  facet normal 0 1 -0
    outer loop
      vertex -37.9428 41.5 23.1684
      vertex -38.8244 41.5 24.382
      vertex -37.658 41.5 23.399
    endloop
  endfacet
  facet normal 0 1 0
    outer loop
      vertex -38.8244 41.5 24.382
      vertex -37.9428 41.5 23.1684
      vertex -39 41.5 24.268
    endloop
  endfacet
  facet normal 0 1 0
    outer loop
      vertex -39 41.5 24.268
      vertex -38.25 41.5 22.9689
      vertex -39.1865 41.5 24.1729
    endloop
  endfacet
  facet normal 0 1 -0
    outer loop
      vertex -38.25 41.5 22.9689
      vertex -39 41.5 24.268
      vertex -37.9428 41.5 23.1684
    endloop
  endfacet
  facet normal 0 1 -0
    outer loop
      vertex -41 41.5 27.732
      vertex -41.75 41.5 29.0311
      vertex -40.8135 41.5 27.8271
    endloop
  endfacet
  facet normal 0 1 0
    outer loop
      vertex -41.75 41.5 29.0311
      vertex -41 41.5 27.732
      vertex -42.0572 41.5 28.8316
    endloop
  endfacet
  facet normal 0 1 -0
    outer loop
      vertex -41.1756 41.5 27.618
      vertex -42.0572 41.5 28.8316
      vertex -41 41.5 27.732
    endloop
  endfacet
  facet normal 0 1 0
    outer loop
      vertex -42.0572 41.5 28.8316
      vertex -41.1756 41.5 27.618
      vertex -42.342 41.5 28.601
    endloop
  endfacet
  facet normal 0 1 -0
    outer loop
      vertex -41.3383 41.5 27.4863
      vertex -42.342 41.5 28.601
      vertex -41.1756 41.5 27.618
    endloop
  endfacet
  facet normal 0 1 0
    outer loop
      vertex -42.342 41.5 28.601
      vertex -41.3383 41.5 27.4863
      vertex -42.601 41.5 28.342
    endloop
  endfacet
  facet normal 0 1 -0
    outer loop
      vertex -41.4863 41.5 27.3383
      vertex -42.601 41.5 28.342
      vertex -41.3383 41.5 27.4863
    endloop
  endfacet
  facet normal 0 1 0
    outer loop
      vertex -42.601 41.5 28.342
      vertex -41.4863 41.5 27.3383
      vertex -42.8316 41.5 28.0572
    endloop
  endfacet
  facet normal 0 1 -0
    outer loop
      vertex -41.618 41.5 27.1756
      vertex -42.8316 41.5 28.0572
      vertex -41.4863 41.5 27.3383
    endloop
  endfacet
  facet normal 0 1 0
    outer loop
      vertex -42.8316 41.5 28.0572
      vertex -41.618 41.5 27.1756
      vertex -43.0311 41.5 27.75
    endloop
  endfacet
  facet normal 0 1 -0
    outer loop
      vertex -41.732 41.5 27
      vertex -43.0311 41.5 27.75
      vertex -41.618 41.5 27.1756
    endloop
  endfacet
  facet normal 0 1 0
    outer loop
      vertex -43.0311 41.5 27.75
      vertex -41.732 41.5 27
      vertex -43.1974 41.5 27.4236
    endloop
  endfacet
  facet normal 0 1 -0
    outer loop
      vertex -41.8271 41.5 26.8135
      vertex -43.1974 41.5 27.4236
      vertex -41.732 41.5 27
    endloop
  endfacet
  facet normal 0 1 0
    outer loop
      vertex -43.1974 41.5 27.4236
      vertex -41.8271 41.5 26.8135
      vertex -43.3287 41.5 27.0816
    endloop
  endfacet
  facet normal 0 1 -0
    outer loop
      vertex -41.9021 41.5 26.618
      vertex -43.3287 41.5 27.0816
      vertex -41.8271 41.5 26.8135
    endloop
  endfacet
  facet normal 0 1 0
    outer loop
      vertex -43.3287 41.5 27.0816
      vertex -41.9021 41.5 26.618
      vertex -43.4235 41.5 26.7277
    endloop
  endfacet
  facet normal 0 1 -0
    outer loop
      vertex -41.9563 41.5 26.4158
      vertex -43.4235 41.5 26.7277
      vertex -41.9021 41.5 26.618
    endloop
  endfacet
  facet normal 0 1 0
    outer loop
      vertex -41.9563 41.5 26.4158
      vertex -43.4808 41.5 26.3658
      vertex -43.4235 41.5 26.7277
    endloop
  endfacet
  facet normal 0 1 -0
    outer loop
      vertex -41.989 41.5 26.2091
      vertex -43.4808 41.5 26.3658
      vertex -41.9563 41.5 26.4158
    endloop
  endfacet
  facet normal 0 1 -0
    outer loop
      vertex -42 41.5 26
      vertex -43.4808 41.5 26.3658
      vertex -41.989 41.5 26.2091
    endloop
  endfacet
  facet normal 0 1 0
    outer loop
      vertex -42 41.5 26
      vertex -43.5 41.5 26
      vertex -43.4808 41.5 26.3658
    endloop
  endfacet
  facet normal 0 1 0
    outer loop
      vertex -41.989 41.5 25.7909
      vertex -43.5 41.5 26
      vertex -42 41.5 26
    endloop
  endfacet
  facet normal 0 1 0
    outer loop
      vertex -41.989 41.5 25.7909
      vertex -43.4808 41.5 25.6342
      vertex -43.5 41.5 26
    endloop
  endfacet
  facet normal 0 1 0
    outer loop
      vertex -41.9563 41.5 25.5842
      vertex -43.4808 41.5 25.6342
      vertex -41.989 41.5 25.7909
    endloop
  endfacet
  facet normal 0 1 0
    outer loop
      vertex -43.4235 41.5 25.2723
      vertex -41.9563 41.5 25.5842
      vertex -41.9021 41.5 25.382
    endloop
  endfacet
  facet normal 0 1 0
    outer loop
      vertex -41.9563 41.5 25.5842
      vertex -43.4235 41.5 25.2723
      vertex -43.4808 41.5 25.6342
    endloop
  endfacet
  facet normal 0 1 0
    outer loop
      vertex -43.3287 41.5 24.9184
      vertex -41.9021 41.5 25.382
      vertex -41.8271 41.5 25.1865
    endloop
  endfacet
  facet normal 0 1 0
    outer loop
      vertex -43.1974 41.5 24.5764
      vertex -41.8271 41.5 25.1865
      vertex -41.732 41.5 25
    endloop
  endfacet
  facet normal 0 1 0
    outer loop
      vertex -41.9021 41.5 25.382
      vertex -43.3287 41.5 24.9184
      vertex -43.4235 41.5 25.2723
    endloop
  endfacet
  facet normal 0 1 0
    outer loop
      vertex -43.0311 41.5 24.25
      vertex -41.732 41.5 25
      vertex -41.618 41.5 24.8244
    endloop
  endfacet
  facet normal 0 1 0
    outer loop
      vertex -42.8316 41.5 23.9428
      vertex -41.618 41.5 24.8244
      vertex -41.4863 41.5 24.6617
    endloop
  endfacet
  facet normal 0 1 0
    outer loop
      vertex -41.8271 41.5 25.1865
      vertex -43.1974 41.5 24.5764
      vertex -43.3287 41.5 24.9184
    endloop
  endfacet
  facet normal 0 1 0
    outer loop
      vertex -42.601 41.5 23.658
      vertex -41.4863 41.5 24.6617
      vertex -41.3383 41.5 24.5137
    endloop
  endfacet
  facet normal 0 1 0
    outer loop
      vertex -42.342 41.5 23.399
      vertex -41.3383 41.5 24.5137
      vertex -41.1756 41.5 24.382
    endloop
  endfacet
  facet normal 0 1 0
    outer loop
      vertex -42.0572 41.5 23.1684
      vertex -41.1756 41.5 24.382
      vertex -41 41.5 24.268
    endloop
  endfacet
  facet normal 0 1 0
    outer loop
      vertex -41.732 41.5 25
      vertex -43.0311 41.5 24.25
      vertex -43.1974 41.5 24.5764
    endloop
  endfacet
  facet normal 0 1 0
    outer loop
      vertex -41.75 41.5 22.9689
      vertex -41 41.5 24.268
      vertex -40.8135 41.5 24.1729
    endloop
  endfacet
  facet normal 0 1 0
    outer loop
      vertex -41.4236 41.5 22.8026
      vertex -40.8135 41.5 24.1729
      vertex -40.618 41.5 24.0979
    endloop
  endfacet
  facet normal 0 1 0
    outer loop
      vertex -41.0816 41.5 22.6713
      vertex -40.618 41.5 24.0979
      vertex -40.4158 41.5 24.0437
    endloop
  endfacet
  facet normal 0 1 0
    outer loop
      vertex -40.7277 41.5 22.5765
      vertex -40.4158 41.5 24.0437
      vertex -40.2091 41.5 24.011
    endloop
  endfacet
  facet normal 0 1 0
    outer loop
      vertex -41.618 41.5 24.8244
      vertex -42.8316 41.5 23.9428
      vertex -43.0311 41.5 24.25
    endloop
  endfacet
  facet normal 0 1 0
    outer loop
      vertex -40.3658 41.5 22.5192
      vertex -40.2091 41.5 24.011
      vertex -40 41.5 24
    endloop
  endfacet
  facet normal 0 1 -0
    outer loop
      vertex -38.5764 41.5 22.8026
      vertex -39.1865 41.5 24.1729
      vertex -38.25 41.5 22.9689
    endloop
  endfacet
  facet normal 0 1 0
    outer loop
      vertex -39.1865 41.5 24.1729
      vertex -38.5764 41.5 22.8026
      vertex -39.382 41.5 24.0979
    endloop
  endfacet
  facet normal 0 1 0
    outer loop
      vertex -41.4863 41.5 24.6617
      vertex -42.601 41.5 23.658
      vertex -42.8316 41.5 23.9428
    endloop
  endfacet
  facet normal 0 1 -0
    outer loop
      vertex -38.9184 41.5 22.6713
      vertex -39.382 41.5 24.0979
      vertex -38.5764 41.5 22.8026
    endloop
  endfacet
  facet normal 0 1 0
    outer loop
      vertex -41.3383 41.5 24.5137
      vertex -42.342 41.5 23.399
      vertex -42.601 41.5 23.658
    endloop
  endfacet
  facet normal 0 1 0
    outer loop
      vertex -39.382 41.5 24.0979
      vertex -38.9184 41.5 22.6713
      vertex -39.5842 41.5 24.0437
    endloop
  endfacet
  facet normal 0 1 0
    outer loop
      vertex -41.1756 41.5 24.382
      vertex -42.0572 41.5 23.1684
      vertex -42.342 41.5 23.399
    endloop
  endfacet
  facet normal 0 1 -0
    outer loop
      vertex -39.2723 41.5 22.5765
      vertex -39.5842 41.5 24.0437
      vertex -38.9184 41.5 22.6713
    endloop
  endfacet
  facet normal 0 1 0
    outer loop
      vertex -41 41.5 24.268
      vertex -41.75 41.5 22.9689
      vertex -42.0572 41.5 23.1684
    endloop
  endfacet
  facet normal 0 1 0
    outer loop
      vertex -39.5842 41.5 24.0437
      vertex -39.2723 41.5 22.5765
      vertex -39.7909 41.5 24.011
    endloop
  endfacet
  facet normal 0 1 0
    outer loop
      vertex -40.8135 41.5 24.1729
      vertex -41.4236 41.5 22.8026
      vertex -41.75 41.5 22.9689
    endloop
  endfacet
  facet normal 0 1 -0
    outer loop
      vertex -39.6342 41.5 22.5192
      vertex -39.7909 41.5 24.011
      vertex -39.2723 41.5 22.5765
    endloop
  endfacet
  facet normal 0 1 0
    outer loop
      vertex -40.618 41.5 24.0979
      vertex -41.0816 41.5 22.6713
      vertex -41.4236 41.5 22.8026
    endloop
  endfacet
  facet normal 0 1 0
    outer loop
      vertex -39.7909 41.5 24.011
      vertex -39.6342 41.5 22.5192
      vertex -40 41.5 24
    endloop
  endfacet
  facet normal 0 1 0
    outer loop
      vertex -40.4158 41.5 24.0437
      vertex -40.7277 41.5 22.5765
      vertex -41.0816 41.5 22.6713
    endloop
  endfacet
  facet normal 0 1 0
    outer loop
      vertex -40 41.5 22.5
      vertex -40 41.5 24
      vertex -39.6342 41.5 22.5192
    endloop
  endfacet
  facet normal 0 1 0
    outer loop
      vertex -40.2091 41.5 24.011
      vertex -40.3658 41.5 22.5192
      vertex -40.7277 41.5 22.5765
    endloop
  endfacet
  facet normal 0 1 0
    outer loop
      vertex -40 41.5 24
      vertex -40 41.5 22.5
      vertex -40.3658 41.5 22.5192
    endloop
  endfacet
  facet normal -0.0524155 0 -0.998625
    outer loop
      vertex -40.3658 40 22.5192
      vertex -40 41.5 22.5
      vertex -40 40 22.5
    endloop
  endfacet
  facet normal -0.0524155 0 -0.998625
    outer loop
      vertex -40 41.5 22.5
      vertex -40.3658 40 22.5192
      vertex -40.3658 41.5 22.5192
    endloop
  endfacet
  facet normal -0.998625 0 0.0524155
    outer loop
      vertex -43.5 40 26
      vertex -43.4808 41.5 26.3658
      vertex -43.5 41.5 26
    endloop
  endfacet
  facet normal -0.998625 0 0.0524155
    outer loop
      vertex -43.4808 41.5 26.3658
      vertex -43.5 40 26
      vertex -43.4808 40 26.3658
    endloop
  endfacet
  facet normal -0.358412 0 -0.933564
    outer loop
      vertex -41.4236 40 22.8026
      vertex -41.0816 41.5 22.6713
      vertex -41.0816 40 22.6713
    endloop
  endfacet
  facet normal -0.358412 0 -0.933564
    outer loop
      vertex -41.0816 41.5 22.6713
      vertex -41.4236 40 22.8026
      vertex -41.4236 41.5 22.8026
    endloop
  endfacet
  facet normal -0.156383 0 -0.987696
    outer loop
      vertex -40.7277 40 22.5765
      vertex -40.3658 41.5 22.5192
      vertex -40.3658 40 22.5192
    endloop
  endfacet
  facet normal -0.156383 0 -0.987696
    outer loop
      vertex -40.3658 41.5 22.5192
      vertex -40.7277 40 22.5765
      vertex -40.7277 41.5 22.5765
    endloop
  endfacet
  facet normal -0.544643 0 -0.838668
    outer loop
      vertex -42.0572 40 23.1684
      vertex -41.75 41.5 22.9689
      vertex -41.75 40 22.9689
    endloop
  endfacet
  facet normal -0.544643 0 -0.838668
    outer loop
      vertex -41.75 41.5 22.9689
      vertex -42.0572 40 23.1684
      vertex -42.0572 41.5 23.1684
    endloop
  endfacet
  facet normal 0.707107 0 -0.707107
    outer loop
      vertex -37.399 40 23.658
      vertex -37.658 41.5 23.399
      vertex -37.399 41.5 23.658
    endloop
  endfacet
  facet normal 0.707107 0 -0.707107
    outer loop
      vertex -37.658 41.5 23.399
      vertex -37.399 40 23.658
      vertex -37.658 40 23.399
    endloop
  endfacet
endsolid OpenSCAD_Model
